<?xml version="1.0" encoding="UTF-8" standalone="no"?>
<!-- Created with Inkscape (http://www.inkscape.org/) -->

<svg
   width="16"
   height="16"
   viewBox="0 0 16 16"
   version="1.1"
   id="svg1"
   xml:space="preserve"
   inkscape:version="1.3.2 (091e20ef0f, 2023-11-25)"
   sodipodi:docname="DynamicTweenJob.svg"
   inkscape:export-filename="State.svg"
   inkscape:export-xdpi="96"
   inkscape:export-ydpi="96"
   xmlns:inkscape="http://www.inkscape.org/namespaces/inkscape"
   xmlns:sodipodi="http://sodipodi.sourceforge.net/DTD/sodipodi-0.dtd"
   xmlns="http://www.w3.org/2000/svg"
   xmlns:svg="http://www.w3.org/2000/svg"><sodipodi:namedview
     id="namedview1"
     pagecolor="#ffffff"
     bordercolor="#000000"
     borderopacity="0.25"
     inkscape:showpageshadow="2"
     inkscape:pageopacity="0.0"
     inkscape:pagecheckerboard="0"
     inkscape:deskcolor="#414141"
     inkscape:document-units="px"
     showgrid="true"
     inkscape:zoom="35.711161"
     inkscape:cx="9.954871"
     inkscape:cy="5.5164827"
     inkscape:window-width="1920"
     inkscape:window-height="1014"
     inkscape:window-x="1920"
     inkscape:window-y="0"
     inkscape:window-maximized="1"
     inkscape:current-layer="layer1"><inkscape:grid
       id="grid2"
       units="px"
       originx="0"
       originy="0"
       spacingx="1"
       spacingy="1"
       empcolor="#0099e5"
       empopacity="0.30196078"
       color="#0099e5"
       opacity="0.14901961"
       empspacing="5"
       dotted="false"
       gridanglex="30"
       gridanglez="30"
       visible="true" /></sodipodi:namedview><defs
     id="defs1"><filter
       style="color-interpolation-filters:sRGB;"
       inkscape:label="Invert"
       id="filter2"
       x="0"
       y="0"
       width="1"
       height="1"><feColorMatrix
         id="feColorMatrix12"
         values="0 0 1 0 0 0 1 0 0 0 1 0 0 0 0 -0.20999999999999999 -0.71999999999999997 -0.070000000000000007 2 0"
         result="fbSourceGraphic"
         in="fbSourceGraphic" /></filter></defs><g
     inkscape:label="Layer 1"
     inkscape:groupmode="layer"
     id="layer1"><circle
       cx="28"
       cy="-132"
       r="5"
       fill="none"
       stroke-width="2"
       stroke="#fc7f7f"
       id="circle1-6"
       inkscape:label="Node3D" /><circle
       cx="8"
       cy="-132"
       r="5"
       fill="none"
       stroke-width="2"
       stroke="#8da5f3"
       id="circle1"
       inkscape:label="Node2D" /><circle
       cx="-12"
       cy="-132"
       r="5"
       fill="none"
       stroke-width="2"
       stroke="#e0e0e0"
       id="circle1-2"
       inkscape:label="Node" /><path
       id="path14"
       style="fill:#f18ec3;fill-opacity:1"
       d="m -39,-119 v 4 h 10 v 10 c 2.592889,0 2.973415,0.0195 4,0 v -14 z m 0,5 v 2 h 1.978516 v -2 z m 3,0 v 1 h 4 l -6,6.03711 V -111 h -1 v 6 h 6 v -1 h -4 l 5.992188,-6 0.0078,4 h 1 c 0,0 0.0023,-2.66667 0.002,-4 -2.09e-4,-0.66667 -0.002,-1.33286 -0.002,-2 z m 4,7 v 2 h 2 v -2 z"
       inkscape:label="DynamicTweenJob" /><path
       id="path1"
       style="fill:#c38ef1;fill-opacity:1;filter:url(#filter2)"
       inkscape:label="DynamicTween"
       d="m -39,-139 v 4 h 4 v -4 z m 6,0 v 2 h 4 l -8,8 v -4 h -2 v 8 h 8 v -2 h -4 l 8,-8 v 4 h 2 v -8 z m 4,10 v 4 h 4 v -4 z" /><path
       id="ellipse66"
       style="fill:none;stroke:#fc7f7f;stroke-width:1"
       d="m 33.500018,-35.852471 a 1.629256,1.6475333 0 0 1 -1.629333,1.647666 1.629256,1.6475333 0 0 1 -1.629334,-1.647666 1.629256,1.6475333 0 0 1 1.629334,-1.647667 1.629256,1.6475333 0 0 1 1.629333,1.647667 z m -3.02,5.246533 a 3.9179804,3.9619333 0 0 1 -3.917967,3.961933 3.9179804,3.9619333 0 0 1 -3.918,-3.961933 3.9179804,3.9619333 0 0 1 3.918,-3.961933 3.9179804,3.9619333 0 0 1 3.917967,3.961933 z m 0.306667,-4.016033 -1.297334,1.383666"
       inkscape:label="ClusterSpawner3D" /><path
       d="m 23.640536,-46.585377 v -10.282906 c 0,0 0.544933,-0.541219 2.179732,-0.541219 1.634799,0 2.747506,1.811086 4.382305,1.811086 1.634799,0 2.179732,-0.541206 2.179732,-0.541206 v 6.494474 c 0,0 -0.544933,0.541206 -2.179732,0.541206 -1.634799,0 -2.747506,-1.811085 -4.382305,-1.811085 -1.634799,0 -2.179732,0.541206 -2.179732,0.541206"
       stroke="#000000"
       stroke-width="1.22393"
       stroke-linecap="round"
       stroke-linejoin="round"
       id="path1-36"
       sodipodi:nodetypes="ccssccssc"
       style="fill:none;stroke:#fc7f7f;stroke-opacity:1"
       inkscape:label="WarpPoint3D" /><path
       d="m 3.6405361,-46.585377 v -10.282906 c 0,0 0.544933,-0.541219 2.179732,-0.541219 1.6347989,0 2.7475054,1.811086 4.3823039,1.811086 1.634799,0 2.179732,-0.541206 2.179732,-0.541206 v 6.494474 c 0,0 -0.544933,0.541206 -2.179732,0.541206 -1.6347985,0 -2.747505,-1.811085 -4.3823039,-1.811085 -1.634799,0 -2.179732,0.541206 -2.179732,0.541206"
       stroke="#000000"
       stroke-width="1.22393"
       stroke-linecap="round"
       stroke-linejoin="round"
       id="path64"
       sodipodi:nodetypes="ccssccssc"
       style="fill:none;stroke:#8da5f3;stroke-opacity:1"
       inkscape:label="WarpPoint2D" /><path
       id="rect40"
       style="fill:#fc7f7f;fill-opacity:1;stroke-width:1.41422"
       d="M 24.666016,-119 C 23.188685,-119 22,-117.81131 22,-116.33398 v 2.66796 c 0,1.47733 1.188685,2.66602 2.666016,2.66602 h 6.667968 C 32.811315,-111 34,-112.18869 34,-113.66602 v -2.66796 C 34,-117.81131 32.811315,-119 31.333984,-119 Z M 24,-117 h 2 v 4 h -2 z m 6,0 h 2 v 4 h -2 z m -4,7 c -0.553999,0 -1,0.446 -1,1 v 3 c 0,0.554 0.446001,1 1,1 h 4 c 0.553998,0 1,-0.446 1,-1 v -3 c 0,-0.554 -0.446002,-1 -1,-1 z"
       inkscape:label="Entity3D"
       sodipodi:nodetypes="sssssssssccccccccccsssssssss" /><path
       id="path49"
       style="fill:#8da5f3;fill-opacity:1;stroke-width:1.41422"
       d="M 4.666016,-119 C 3.188685,-119 2,-117.81131 2,-116.33398 v 2.66796 C 2,-112.18869 3.188685,-111 4.666016,-111 h 6.667968 C 12.811315,-111 14,-112.18869 14,-113.66602 v -2.66796 C 14,-117.81131 12.811315,-119 11.333984,-119 Z M 4,-117 h 2 v 4 H 4 Z m 6,0 h 2 v 4 h -2 z m -4,7 c -0.553999,0 -1,0.446 -1,1 v 3 c 0,0.554 0.446001,1 1,1 h 4 c 0.553998,0 1,-0.446 1,-1 v -3 c 0,-0.554 -0.446002,-1 -1,-1 z"
       inkscape:label="Entity3D"
       sodipodi:nodetypes="sssssssssccccccccccsssssssss" /><path
       d="m 8.041662,-77.999811 c -3.293605,-0.01456 -6.019125,1.343658 -6.041587,4.69651 -7.21e-4,1.734255 0.179758,3.404417 1.466601,4.540867 v 0.90825 c 0.0053,1.091524 1.436117,1.951584 2.508346,1.948202 h 4.049946 c 1.071997,0.0034 2.636069,-0.814314 2.641689,-1.905599 v -0.90825 c 1.287001,-1.136589 1.334155,-2.849002 1.33326,-4.58347 -0.02246,-3.352852 -2.66465,-4.711068 -5.958255,-4.69651 z m 3.650008,8.514656 c -0.143674,0.11588 -0.227432,0.292261 -0.227397,0.478862 v 1.194712 C 11.458973,-67.395777 10.559819,-66.997616 10.15134,-67 H 9.745884 v -1.633506 c 0,-0.814391 -1,-0.814391 -1,0 V -67 H 7.254117 v -1.633506 c 0,-0.814391 -1,-0.814391 -1,0 V -67 H 6.029119 c -0.409411,0.0037 -1.357188,-0.436809 -1.362459,-0.853573 v -1.194712 c 6.2e-4,-0.186188 -0.08222,-0.362495 -0.224997,-0.478862 -1.135013,-0.90359 -1.240403,-2.309346 -1.241604,-3.776154 0,-2.698658 2.190671,-3.542719 4.841603,-3.542719 2.650932,0 4.758271,0.844061 4.758271,3.542719 -0.0012,1.466808 0.02675,2.914556 -1.108263,3.818146 z M 7.199984,-71.98415 c 0,1.088393 -1.292549,1.633265 -2.048458,0.863748 C 4.395617,-71.889919 4.930854,-73.205738 6,-73.205738 c 0.662733,0 1.199984,0.546924 1.199984,1.221588 z m 3.995786,0 c 0,1.088393 -1.29255,1.633265 -2.048458,0.863748 -0.755909,-0.769517 -0.220672,-2.085336 0.848473,-2.085336 0.662734,0 1.199985,0.546924 1.199985,1.221588 z"
       id="path62"
       sodipodi:nodetypes="cccccccccccccccssccssccccccsccssssssss"
       style="fill:#8da5f3;fill-opacity:1;stroke:#000000;stroke-width:0;stroke-dasharray:none"
       inkscape:label="Hurtbox2D" /><path
       d="m 28.041662,-77.999811 c -3.293605,-0.01456 -6.019125,1.343658 -6.041587,4.69651 -7.21e-4,1.734255 0.179758,3.404417 1.466601,4.540867 v 0.90825 c 0.0053,1.091524 1.436117,1.951584 2.508346,1.948202 h 4.049946 c 1.071997,0.0034 2.636069,-0.814314 2.641689,-1.905599 v -0.90825 c 1.287001,-1.136589 1.334155,-2.849002 1.33326,-4.58347 -0.02246,-3.352852 -2.66465,-4.711068 -5.958255,-4.69651 z m 3.650008,8.514656 c -0.143674,0.11588 -0.227432,0.292261 -0.227397,0.478862 v 1.194712 c -0.0053,0.415804 -0.904454,0.813965 -1.312933,0.811581 h -0.405456 v -1.633506 c 0,-0.814391 -1,-0.814391 -1,0 V -67 h -1.491767 v -1.633506 c 0,-0.814391 -1,-0.814391 -1,0 V -67 h -0.224998 c -0.409411,0.0037 -1.357188,-0.436809 -1.362459,-0.853573 v -1.194712 c 6.2e-4,-0.186188 -0.08222,-0.362495 -0.224997,-0.478862 -1.135013,-0.90359 -1.240403,-2.309346 -1.241604,-3.776154 0,-2.698658 2.190671,-3.542719 4.841603,-3.542719 2.650932,0 4.758271,0.844061 4.758271,3.542719 -0.0012,1.466808 0.02675,2.914556 -1.108263,3.818146 z m -4.491686,-2.498995 c 0,1.088393 -1.292549,1.633265 -2.048458,0.863748 -0.755909,-0.769517 -0.220672,-2.085336 0.848474,-2.085336 0.662733,0 1.199984,0.546924 1.199984,1.221588 z m 3.995786,0 c 0,1.088393 -1.29255,1.633265 -2.048458,0.863748 -0.755909,-0.769517 -0.220672,-2.085336 0.848473,-2.085336 0.662734,0 1.199985,0.546924 1.199985,1.221588 z"
       id="path1-0"
       sodipodi:nodetypes="cccccccccccccccssccssccccccsccssssssss"
       style="fill:#fc7f7f;fill-opacity:1;stroke:#000000;stroke-width:0;stroke-dasharray:none"
       inkscape:label="Hurtbox3D" /><path
       fill-rule="evenodd"
       clip-rule="evenodd"
       d="M 7.996366,-95.774577 C 7,-97 4.92514,-97.314547 4,-96.497403 c -1.325725,1.170966 -1.393256,3.260089 -0.406501,4.732492 0.820421,1.22416 3.303296,3.8061 4.117051,4.641787 0.09101,0.09348 0.136545,0.14023 0.189659,0.158578 0.04631,0.01601 0.09703,0.01601 0.1434,0 0.05311,-0.01835 0.09859,-0.06508 0.189659,-0.158578 0.813755,-0.835687 3.296596,-3.417627 4.11704,-4.641787 0.986748,-1.472403 0.94278,-3.707259 -0.4467,-4.798784 C 10.963513,-97.302199 9,-97 7.996366,-95.774577 Z"
       stroke="#000000"
       stroke-width="2"
       stroke-linecap="round"
       stroke-linejoin="round"
       id="path60"
       sodipodi:nodetypes="csccccccsc"
       style="fill:none;stroke:#8da5f3;stroke-width:1.904;stroke-linecap:round;stroke-linejoin:miter;stroke-dasharray:none;stroke-opacity:1"
       inkscape:label="Hitbox2D" /><path
       fill-rule="evenodd"
       clip-rule="evenodd"
       d="M 27.996366,-95.774577 C 27,-97 24.92514,-97.314547 24,-96.497403 c -1.325725,1.170966 -1.393256,3.260089 -0.406501,4.732492 0.820421,1.22416 3.303296,3.8061 4.117051,4.641787 0.09101,0.09348 0.136545,0.14023 0.189659,0.158578 0.04631,0.01601 0.09703,0.01601 0.1434,0 0.05311,-0.01835 0.09859,-0.06508 0.189659,-0.158578 0.813755,-0.835687 3.296596,-3.417627 4.11704,-4.641787 0.986748,-1.472403 0.94278,-3.707259 -0.4467,-4.798784 C 30.963513,-97.302199 29,-97 27.996366,-95.774577 Z"
       stroke="#000000"
       stroke-width="2"
       stroke-linecap="round"
       stroke-linejoin="round"
       id="path1-5"
       sodipodi:nodetypes="csccccccsc"
       style="fill:none;stroke:#fc7f7f;stroke-width:1.90444;stroke-linecap:round;stroke-linejoin:miter;stroke-dasharray:none;stroke-opacity:1"
       inkscape:label="Hitbox3D" /><path
       id="rect66"
       style="opacity:1;fill:none;stroke:#e0e0e0;stroke-width:2.003;stroke-linecap:round;stroke-linejoin:round;stroke-miterlimit:3.7;paint-order:stroke fill markers"
       inkscape:label="State"
       d="m -15.63126,-37 h 7.26252 C -7.610458,-37 -7,-36.342102 -7,-35.524892 v 7.049784 C -7,-27.657898 -7.610458,-27 -8.36874,-27 h -7.26252 C -16.389542,-27 -17,-27.657898 -17,-28.475108 v -7.049784 C -17,-36.342102 -16.389542,-37 -15.63126,-37 Z" /><path
       fill="none"
       stroke="#000000"
       stroke-width="1.63405"
       d="m -17.512471,-53.486711 10.9982671,0.0019 0.011048,-4.039375 -11.0093151,0.03125 z m 0.02114,6.995275 h 3.993691 v -4.006229 h -3.993691 z m 6.98896,0 h 3.9936909 v -4.006229 h -3.9936909 z m -4.992115,-4.006229 0.0041,-2.988703 z m 2.496057,2.003115 h 1.996846 z m 4.4842193,-4.990636 0.00868,2.987521 z"
       id="path1-32"
       sodipodi:nodetypes="cccccccccccccccccccccccc"
       style="fill:none;stroke:#e0e0e0;stroke-width:1;stroke-linecap:round;stroke-linejoin:round;stroke-miterlimit:4;stroke-dasharray:none;stroke-opacity:1;paint-order:stroke fill markers"
       inkscape:label="StateMachine" /><path
       d="m -8.070673,-73.338031 v 3.736048 c 0,0.977386 0,1.46608 -0.1855102,1.839362 -0.1631797,0.328375 -0.4235565,0.59532 -0.7438165,0.762621 -0.3640826,0.190218 -0.8018109,0.09259 -1.7550403,0.09259 h -2.496315 c -0.953253,0 -1.384523,0.09763 -1.748645,-0.09259 -0.320266,-0.167301 -0.58062,-0.434246 -0.743789,-0.762621 -0.185522,-0.373282 -0.179698,-0.861993 -0.185522,-1.839362 l -0.02067,-3.469904 m -1.159314,0.929098 3.082496,-3.511199 c 0.701067,-0.798553 1.051572,-1.197826 1.464428,-1.345231 0.362534,-0.129465 0.757178,-0.129436 1.119768,8.8e-5 0.412801,0.147462 0.763243,0.546794 1.4641803,1.345451 l 3.0813277,3.510891"
       stroke="#000000"
       stroke-width="2"
       stroke-linecap="round"
       stroke-linejoin="round"
       id="path1-9"
       style="fill:none;stroke:#e0e0e0;stroke-width:1.396;stroke-linecap:round;stroke-linejoin:miter;stroke-dasharray:none;stroke-opacity:1"
       sodipodi:nodetypes="csccssccsccccccc"
       inkscape:label="Subarea" /><path
       d="m -8.769214,-94.8 h -6.461499 c -0.509812,0 -0.923071,-0.35816 -0.923071,-0.8 v -2 c 0,-0.22088 0.206675,-0.4 0.461535,-0.4 0.25486,0 0.461536,0.17912 0.461536,0.4 v 1.2 h 0.923071 v -0.8 c 0,-0.44184 0.413259,-0.8 0.923072,-0.8 0.509812,0 0.923071,0.35816 0.923071,0.8 v 0.8 h 0.923071 v -0.8 c 0,-0.44184 0.413259,-0.8 0.923071,-0.8 0.509813,0 0.923072,0.35816 0.923072,0.8 v 0.8 h 0.923071 v -1.2 c 0,-0.22088 0.206676,-0.4 0.461536,-0.4 0.25486,0 0.461535,0.17912 0.461535,0.4 v 2 c 0,0.44184 -0.413259,0.8 -0.923071,0.8 z M -6,-86.399999 C -6,-86.179119 -6.206675,-86 -6.461535,-86 h -11.076856 c -0.25486,0 -0.461536,-0.179119 -0.461536,-0.399999 0,-0.220882 0.206676,-0.400001 0.461536,-0.400001 h 0.461535 c 0.509813,0 0.923072,-0.358161 0.923072,-0.8 0,0 0.923071,-4.8 0.923071,-5.6 0,-0.44184 0.413259,-0.8 0.923071,-0.8 h 4.615357 c 0.509813,0 0.923071,0.35816 0.923071,0.8 0,0.8 0.923071,5.6 0.923071,5.6 0,0.441839 0.41326,0.8 0.923073,0.8 h 0.461535 c 0.251352,-7.6e-5 0.456551,0.17424 0.461535,0.392 z M -10.615357,-89.6 c 0,-0.66272 -0.619934,-1.2 -1.384606,-1.2 -0.764673,0 -1.384607,0.53728 -1.384607,1.2 v 2.8 h 2.769213 z"
       id="path1-3"
       style="fill:#e0e0e0;fill-opacity:1;stroke-width:1.659;stroke-dasharray:none"
       inkscape:label="Level" /><path
       d="m -6.5088372,-112 c 0,3.00444 -2.4608317,5.43997 -5.4964718,5.43997 M -6.5088372,-112 c 0,-3.00442 -2.4608317,-5.43998 -5.4964718,-5.43998 M -6.5088372,-112 c 0,1.0015 -2.4608317,1.81332 -5.4964718,1.81332 -3.035617,0 -5.496473,-0.81182 -5.496473,-1.81332 m 10.9929448,0 c 0,-1.0015 -2.4608317,-1.81333 -5.4964718,-1.81333 -3.035617,0 -5.496473,0.81183 -5.496473,1.81333 m 5.496473,5.43997 c -3.035617,0 -5.496473,-2.43553 -5.496473,-5.43997 m 5.496473,5.43997 c -1.011901,0 -1.832158,-2.43553 -1.832158,-5.43997 0,-3.00442 0.820257,-5.43998 1.832158,-5.43998 m 0,10.87995 c 1.0119,0 1.832157,-2.43553 1.832157,-5.43997 0,-3.00442 -0.820257,-5.43998 -1.832157,-5.43998 M -17.501782,-112 c 0,-3.00442 2.460856,-5.43998 5.496473,-5.43998"
       stroke="#000000"
       stroke-width="2"
       stroke-linecap="round"
       stroke-linejoin="round"
       id="path1-8"
       style="fill:none;stroke:#e0e0e0;stroke-width:1.00573;stroke-dasharray:none;stroke-opacity:1"
       inkscape:label="LevelManager" /><g
       style="fill:none"
       id="g66"
       transform="matrix(0.69334064,0,0,1.0344897,-0.32008762,-4.1717366)"><g
         id="SVGRepo_bgCarrier"
         stroke-width="0" /><g
         id="SVGRepo_tracerCarrier"
         stroke-linecap="round"
         stroke-linejoin="round" /><g
         id="SVGRepo_iconCarrier"
         transform="matrix(1,0,0,0.79109459,-1.4422924e-8,1.1158098)" /></g><path
       id="path75"
       style="opacity:1;fill:#e0e0e0;stroke:#e0e0e0;stroke-width:1.5;stroke-linecap:round;stroke-linejoin:round;stroke-miterlimit:3.7;paint-order:stroke fill markers;stroke-dasharray:none"
       d="M 14,11.5 A 2.5,2.5 0 0 1 11.5,14 2.5,2.5 0 0 1 9,11.5 2.5,2.5 0 0 1 11.5,9 2.5,2.5 0 0 1 14,11.5 Z M 7.0252888,13.280991 H 2.4532749 M 7.0252888,9.7672374 H 2.4532749 M 13.546725,6.2534834 H 2.4532749 M 13.546725,2.7397298 H 2.4532749" /></g></svg>
