<?xml version="1.0" encoding="UTF-8" standalone="no"?>
<!-- Created with Inkscape (http://www.inkscape.org/) -->

<svg
   width="16"
   height="16"
   viewBox="0 0 16 16"
   version="1.1"
   id="svg1"
   xml:space="preserve"
   inkscape:version="1.3.2 (091e20ef0f, 2023-11-25)"
   sodipodi:docname="sheet.svg"
   inkscape:export-filename="misc/InputManager.svg"
   inkscape:export-xdpi="96"
   inkscape:export-ydpi="96"
   xmlns:inkscape="http://www.inkscape.org/namespaces/inkscape"
   xmlns:sodipodi="http://sodipodi.sourceforge.net/DTD/sodipodi-0.dtd"
   xmlns="http://www.w3.org/2000/svg"
   xmlns:svg="http://www.w3.org/2000/svg"><sodipodi:namedview
     id="namedview1"
     pagecolor="#ffffff"
     bordercolor="#000000"
     borderopacity="0.25"
     inkscape:showpageshadow="2"
     inkscape:pageopacity="0.0"
     inkscape:pagecheckerboard="0"
     inkscape:deskcolor="#414141"
     inkscape:document-units="px"
     showgrid="false"
     inkscape:zoom="3.8658406"
     inkscape:cx="-144.21184"
     inkscape:cy="19.142021"
     inkscape:window-width="1920"
     inkscape:window-height="1014"
     inkscape:window-x="1920"
     inkscape:window-y="0"
     inkscape:window-maximized="1"
     inkscape:current-layer="layer1"
     showguides="true"><inkscape:grid
       id="grid2"
       units="px"
       originx="0"
       originy="0"
       spacingx="1"
       spacingy="1"
       empcolor="#0099e5"
       empopacity="0.30196078"
       color="#0099e5"
       opacity="0.14901961"
       empspacing="8"
       dotted="false"
       gridanglex="30"
       gridanglez="30"
       visible="false" /></sodipodi:namedview><defs
     id="defs1"><filter
       style="color-interpolation-filters:sRGB"
       inkscape:label="Invert"
       id="filter2"
       x="0"
       y="0"
       width="1"
       height="1"><feColorMatrix
         id="feColorMatrix12"
         values="0 0 1 0 0 0 1 0 0 0 1 0 0 0 0 -0.20999999999999999 -0.71999999999999997 -0.070000000000000007 2 0"
         result="fbSourceGraphic"
         in="fbSourceGraphic" /></filter></defs><g
     inkscape:label="Layer 1"
     inkscape:groupmode="layer"
     id="layer1"><g
       id="g165"
       style="fill:#e0e0e0;fill-opacity:1"
       transform="translate(-220,-60)"
       inkscape:label="DynamicTweenJob"><path
         id="path162"
         style="fill:#c38ef1;fill-opacity:1;filter:url(#filter2)"
         inkscape:label="DynamicTween"
         d="M 1,1 V 5 H 5 V 1 Z m 6,0 v 2 h 4 L 3,11 V 7 H 1 v 8 H 9 C 8.836827,14.999232 7.8975211,14.139875 8.109375,13.162109 8.1223388,13.102278 8.1381234,13.050013 8.1542969,13 H 5 l 8,-8 v 2.9179688 c 0.07772,0.051018 0.145869,0.1041908 0.199219,0.1542968 0.19087,0.1792638 0.280262,0.3323772 0.351562,0.46875 C 13.636495,8.7050383 13.690792,8.8530046 13.734375,9 H 15 V 1 Z"
         sodipodi:nodetypes="cccccccccccccsccccsccccc"
         transform="translate(220,60)" /><path
         style="color:#000000;fill:#e0e0e0;fill-opacity:1;-inkscape-stroke:none"
         d="m 232.20312,69 c -0.23493,6.19e-4 -0.44185,0.878079 -0.50976,2.160156 -2.76163,-1.353609 -3.13022,-0.75227 -0.51563,0.841797 -2.61459,1.594068 -2.246,2.195408 0.51563,0.841797 0.15311,2.873964 0.86642,2.873964 1.01953,0 2.76163,1.353611 3.13022,0.752271 0.51563,-0.841797 2.61459,-1.594067 2.246,-2.195406 -0.51563,-0.841797 C 232.64499,69.878079 232.43806,69.000619 232.20312,69 Z"
         id="path164"
         inkscape:label="Star" /></g></g></svg>
