<?xml version="1.0" encoding="UTF-8" standalone="no"?>
<!-- Created with Inkscape (http://www.inkscape.org/) -->

<svg
   width="16"
   height="16"
   viewBox="0 0 16 16"
   version="1.1"
   id="svg1"
   xml:space="preserve"
   xmlns="http://www.w3.org/2000/svg"
   xmlns:svg="http://www.w3.org/2000/svg"><defs
     id="defs1" /><g
     id="layer1"><path
       id="path49-7"
       style="fill:#e0e0e0;fill-opacity:1;stroke-width:1.41422"
       d="M 4.6660156,1 C 3.1886871,1 2,2.1886871 2,3.6660156 V 6.3339844 C 2,7.8113129 3.1886871,9 4.6660156,9 H 11.333984 C 12.811313,9 14,7.8113129 14,6.3339844 V 3.6660156 C 14,2.1886871 12.811313,1 11.333984,1 Z M 7,2.0332031 h 2 v 1.9335938 h 2 v 2 H 9 v 2 H 7 v -2 H 5 v -2 H 7 Z M 6,10 c -0.5539994,0 -1,0.446001 -1,1 v 3 c 0,0.553999 0.4460006,1 1,1 h 4 c 0.553999,0 1,-0.446001 1,-1 v -3 c 0,-0.553999 -0.446001,-1 -1,-1 z" /></g></svg>
