<?xml version="1.0" encoding="UTF-8" standalone="no"?>
<!-- Created with Inkscape (http://www.inkscape.org/) -->

<svg
   width="16"
   height="16"
   viewBox="0 0 16 16"
   version="1.1"
   id="svg1"
   xml:space="preserve"
   xmlns="http://www.w3.org/2000/svg"
   xmlns:svg="http://www.w3.org/2000/svg"><defs
     id="defs1" /><g
     id="layer1"><path
       style="font-size:14.212px;font-family:Comfortaa;-inkscape-font-specification:Comfortaa;fill:#e0e0e0;stroke:#e0e0e0;stroke-width:1.33238;stroke-miterlimit:3.7;paint-order:stroke fill markers"
       d="m 3.8560939,4.4418627 c 0.4584132,0 0.8133138,-0.327813 0.8133138,-0.7512381 0,-0.4507429 -0.3844756,-0.7375793 -0.7985263,-0.7375793 -0.4288382,0 -0.8133138,0.2868364 -0.8133138,0.7375793 0,0.4234251 0.3549006,0.7512381 0.7985263,0.7512381 z m 0.014787,8.8919283 c 0.3253255,0 0.5619259,-0.218542 0.5619259,-0.532696 V 7.08841 c 0,-0.3141542 -0.2366004,-0.5326962 -0.5619259,-0.5326962 -0.340113,0 -0.5767134,0.218542 -0.5767134,0.5326962 v 5.712685 c 0,0.314154 0.2366004,0.532696 0.5767134,0.532696 z m 5.9365965,0 c 0.3696876,0 0.5915006,-0.204883 0.5915006,-0.532696 V 7.993634 h 1.774502 c 0.310538,0 0.517564,-0.1912243 0.517564,-0.4507429 0,-0.2731775 -0.207025,-0.4644018 -0.517563,-0.4644018 H 10.398978 V 6.7643352 c 0,-2.102269 0.621076,-3.142005 1.96674,-3.142005 0.340113,0 0.576714,-0.2048832 0.576714,-0.4780607 0,-0.2731775 -0.236601,-0.4780606 -0.576714,-0.4780606 -2.02589,0 -3.1053787,1.3337911 -3.1053787,4.1527618 V 7.0784893 H 7.7038092 c -0.310538,0 -0.5175633,0.1912243 -0.5175633,0.4644018 0,0.2595186 0.2070253,0.4507429 0.5175633,0.4507429 h 1.5565301 v 4.807461 c 0,0.327813 0.2366004,0.532696 0.5471381,0.532696 z"
       id="text95"
       aria-label="if" /></g></svg>
