<?xml version="1.0" encoding="UTF-8" standalone="no"?>
<!-- Created with Inkscape (http://www.inkscape.org/) -->

<svg
   width="16"
   height="16"
   viewBox="0 0 16 16"
   version="1.1"
   id="svg1"
   xml:space="preserve"
   xmlns="http://www.w3.org/2000/svg"
   xmlns:svg="http://www.w3.org/2000/svg"><defs
     id="defs1" /><g
     id="layer1"><g
       id="g150"><path
         style="fill:#f18ec3;fill-opacity:1;stroke-width:0.503999;stroke-dasharray:none"
         d="M 7,10 H 4 v 3 h 2 v 1 l -2.001002,0.03906 0.001,0.960943 h 3 v -3 l -2,0.0057 L 5,11 h 1.999998 z"
         id="path150" /><path
         style="fill:#f18ec3;fill-opacity:1;stroke-width:0.503999;stroke-dasharray:none"
         d="m 8,10 v 5 h 1 l -4e-6,-2 H 10 l -4.4e-5,-0.999996 H 8.999955 v -1 h 1.999999 L 10.974984,10 Z"
         id="path149" /><path
         style="fill:#f18ec3;fill-opacity:1;stroke-width:0.503999;stroke-dasharray:none"
         d="m 15,10 h -0.951588 l -1.687127,4 -0.451849,1.000003 h 1.097346 l 1.993214,-4.429975 z m -3,0 v 0.677251 L 14.297773,15.000003 14.999996,15 15,14.355024 13,10 Z"
         id="path148" /><path
         style="fill:#e0e0e0;fill-opacity:1;stroke-width:0.503999;stroke-dasharray:none"
         d="m 7.585455,3.337149 c 0.423507,0.442365 0.656508,1.024289 0.656508,1.638141 0,0.613851 -0.233001,1.195776 -0.656508,1.63814 L 7.228948,6.251917 C 7.559955,5.906366 7.741957,5.453187 7.741957,4.97529 c 0,-0.477898 -0.182002,-0.931077 -0.513009,-1.276627 z"
         id="path147" /><path
         style="fill:#e0e0e0;fill-opacity:1;stroke-width:0.503999;stroke-dasharray:none"
         d="m 9.353506,2.260143 c 0.708008,0.72972 1.098015,1.699426 1.098015,2.731435 0,1.031502 -0.390007,2.001203 -1.098015,2.730923 L 9,7.358416 C 9.614008,6.726021 9.95151,5.88558 9.95151,4.991582 9.95151,4.097064 9.614008,3.256623 9,2.624233 Z"
         id="path146" /><path
         style="fill:#e0e0e0;fill-opacity:1;stroke-width:0.503999;stroke-dasharray:none"
         d="M 6.045718,1 V 8.952873 H 4.8727 L 3.534502,7 H 1.750012 C 1.336502,7 1,6.31817 1,5.89228 V 3.832371 C 1,3.406485 1.336502,2.9458 1.750012,2.9458 h 1.78449 L 4.8727,1 Z M 5.226206,1.902947 5.079701,1.902942 3.888008,3.423994 V 6.300656 L 5.079701,8 H 5.226206 Z M 3.000031,3.917212 H 2.137983 c -0.137505,0 -0.250006,0.115358 -0.250006,0.257486 V 5.89228 c 0,0.142132 0.112501,0.25749 0.250006,0.25749 h 0.862048 z"
         id="path1-926" /></g></g></svg>
