<?xml version="1.0" encoding="UTF-8" standalone="no"?>
<!-- Created with Inkscape (http://www.inkscape.org/) -->

<svg
   width="16"
   height="16"
   viewBox="0 0 16 16"
   version="1.1"
   id="svg1"
   xml:space="preserve"
   xmlns="http://www.w3.org/2000/svg"
   xmlns:svg="http://www.w3.org/2000/svg"><defs
     id="defs1" /><g
     id="layer1"><path
       id="rect100"
       style="color:#000000;fill:#e0e0e0;stroke-miterlimit:3.7;-inkscape-stroke:none;paint-order:stroke fill markers"
       d="M 4.3085938,2 C 4.053734,2 3.8457031,2.1795108 3.8457031,2.4003906 v 2 c 0,0.4418396 0.4140087,0.7988282 0.9238281,0.7988282 h 6.4609378 c 0.509809,0 0.923828,-0.3569886 0.923828,-0.7988282 v -2 C 12.154297,2.1795108 11.946266,2 11.691406,2 11.436547,2 11.230469,2.1795108 11.230469,2.4003906 V 3.5996094 H 10.308594 V 2.8007812 C 10.308594,2.3589417 9.8945851,2 9.3847656,2 8.8749561,2 8.4609375,2.3589417 8.4609375,2.8007812 V 3.5996094 H 7.5390625 V 2.8007812 C 7.5390625,2.3589417 7.1250439,2 6.6152344,2 6.1054249,2 5.6914063,2.3589417 5.6914062,2.8007812 V 3.5996094 H 4.7695312 V 2.4003906 C 4.7695312,2.1795108 4.5634535,2 4.3085938,2 Z m 1.3828124,4 c -0.5098094,0 -0.921875,0.3589417 -0.921875,0.8007812 0,0.7999993 -0.9238281,5.5996098 -0.9238281,5.5996098 0,0.441839 -0.4120555,0.798828 -0.921875,0.798828 H 2.4609375 C 2.2060778,13.199219 2,13.37873 2,13.599609 2,13.820489 2.2060778,14 2.4609375,14 h 5.1386719 v -0.800781 h -0.984375 v -2.798828 c 0,-0.5420731 0.4148545,-0.9993083 0.984375,-1.1484379 V 9 A 1.40014,1.40014 0 0 1 8,8.0292969 V 8 H 8.033203 A 1.40014,1.40014 0 0 1 8.1855469,7.8613281 C 8.6805983,7.5077175 9.2721685,7.3238035 9.8007812,7.296875 10.374648,7.2676314 10.869052,7.3571216 11.300781,7.4902344 11.260094,7.1882697 11.230469,6.9303269 11.230469,6.8007812 11.230469,6.3589417 10.818403,6 10.308594,6 Z" /><g
       id="g137"><g
         id="path137"><path
           style="color:#000000;fill:#f18ec3;stroke-linecap:round;stroke-linejoin:round;-inkscape-stroke:none"
           d="M 9.87109,8.69541 C 9.57271,8.71061 9.28102,8.79936 9,9.00009 v 4 2 h 1 v -2 c 1.47735,-1.05984 3,1.42917 5,0 0,0 -0.0228,-2.02182 0,-4 -1.6875,1.6875 -3.51761,-0.3868 -5.12891,-0.30469 z"
           id="path138" /></g></g></g></svg>
