<?xml version="1.0" encoding="UTF-8" standalone="no"?>
<!-- Created with Inkscape (http://www.inkscape.org/) -->

<svg
   width="16"
   height="16"
   viewBox="0 0 16 16"
   version="1.1"
   id="svg1"
   xml:space="preserve"
   inkscape:version="1.3.2 (091e20ef0f, 2023-11-25)"
   sodipodi:docname="sheet.svg"
   inkscape:export-filename="../GitHub/gd-cinder-icon/misc/EventCam.svg"
   inkscape:export-xdpi="96"
   inkscape:export-ydpi="96"
   xmlns:inkscape="http://www.inkscape.org/namespaces/inkscape"
   xmlns:sodipodi="http://sodipodi.sourceforge.net/DTD/sodipodi-0.dtd"
   xmlns="http://www.w3.org/2000/svg"
   xmlns:svg="http://www.w3.org/2000/svg"><sodipodi:namedview
     id="namedview1"
     pagecolor="#ffffff"
     bordercolor="#000000"
     borderopacity="0.25"
     inkscape:showpageshadow="2"
     inkscape:pageopacity="0.0"
     inkscape:pagecheckerboard="0"
     inkscape:deskcolor="#414141"
     inkscape:document-units="px"
     showgrid="true"
     inkscape:zoom="1.9329203"
     inkscape:cx="-106.31582"
     inkscape:cy="46.561671"
     inkscape:window-width="1920"
     inkscape:window-height="1014"
     inkscape:window-x="1920"
     inkscape:window-y="0"
     inkscape:window-maximized="1"
     inkscape:current-layer="layer1"
     showguides="true"><inkscape:grid
       id="grid2"
       units="px"
       originx="0"
       originy="0"
       spacingx="1"
       spacingy="1"
       empcolor="#0099e5"
       empopacity="0.30196078"
       color="#0099e5"
       opacity="0.14901961"
       empspacing="8"
       dotted="false"
       gridanglex="30"
       gridanglez="30"
       visible="true" /></sodipodi:namedview><defs
     id="defs1" /><g
     inkscape:label="Layer 1"
     inkscape:groupmode="layer"
     id="layer1"><g
       id="g10"
       inkscape:label="EventEvoke"><g
         id="text4"
         transform="matrix(0.79809096,0,0,0.74330701,1.6407663,3.204023)" /><path
         id="path6"
         style="color:#000000;-inkscape-font-specification:Comfortaa;fill:#f18ec3;fill-opacity:1;stroke-linecap:round;stroke-linejoin:round;stroke-miterlimit:3.7;-inkscape-stroke:none;paint-order:stroke fill markers"
         d="m 9.4221915,13.983808 c 0.176,0 0.32,-0.048 0.432,-0.192 l 2.7040005,-3.44 2.64,3.344 c 0.16,0.224 0.304,0.288 0.56,0.288 0.368,0 0.8,-0.432 0.368,-0.96 l -2.736,-3.4879995 2.672,-3.2960002 c 0.336,-0.416 0.16,-1.008 -0.384,-1.008 -0.192,0 -0.368,0.08 -0.528,0.288 l -2.544,3.2 -2.576,-3.296 c -0.1280005,-0.128 -0.2880005,-0.192 -0.4640005,-0.192 -0.544,0 -0.736,0.592 -0.4,0.992 L 11.790192,9.5518085 9.0221915,13.007808 c -0.336,0.416 -0.112,0.976 0.4,0.976 z M 9.5663437,4.6319015 c -0.4896465,0 -0.9379384,0.324653 -1.0917968,0.7363281 -0.1536247,0.4110498 -0.064455,0.8856862 0.2324219,1.2402344 4.516e-4,5.394e-4 -4.527e-4,0.00141 0,0.00195 l 2.3164062,2.9375005 -2.46875,3.0839835 c -0.2905512,0.360901 -0.3703423,0.844097 -0.2070312,1.246094 0.1635601,0.402609 0.5994692,0.705078 1.0742187,0.705078 0.2850906,0 0.6809075,-0.134102 0.9062505,-0.423828 l 2.230468,-2.837891 2.167969,2.746094 -0.01563,-0.02344 c 0.227549,0.318569 0.690876,0.539063 1.046876,0.539063 0.418782,0 0.785137,-0.201374 1.003906,-0.582031 0.218768,-0.380657 0.156979,-0.95549 -0.171875,-1.357422 L 14.158141,9.5420575 16.529235,6.6182296 a 0.60006002,0.60006002 0 0 0 0,-0.00195 c 0.287592,-0.3560662 0.381786,-0.8187805 0.236328,-1.234375 -0.145458,-0.4155945 -0.598244,-0.75 -1.087891,-0.75 -0.358666,0 -0.75959,0.2038727 -1.003906,0.5214844 L 12.609313,7.7510421 10.503844,5.0537765 A 0.60006002,0.60006002 0 0 0 10.455016,4.999089 C 10.22095,4.7650232 9.887798,4.6319015 9.5663437,4.6319015 Z m 2.6582033,4.5019531 a 0.60006002,0.60006002 0 0 0 0.699219,0.03125 0.60006002,0.60006002 0 0 0 -0.0059,0.7402349 l 0.02539,0.0332 a 0.60006002,0.60006002 0 0 0 -0.664063,-0.050779 0.60006002,0.60006002 0 0 0 -0.01758,-0.7070309 z"
         transform="matrix(0.79809096,0,0,0.74330701,1.6407663,3.204023)" /><path
         style="font-size:14.212px;font-family:Comfortaa;-inkscape-font-specification:Comfortaa;fill:#e0e0e0;stroke:#e0e0e0;stroke-width:0.941535;stroke-miterlimit:3.7;stroke-dasharray:none;paint-order:stroke fill markers"
         d="m 2.8006794,13.529214 c 0.3691817,0 0.6432033,-0.209384 0.7272298,-0.5444 L 4.7601838,8.0717285 H 6.532244 c 0.310113,0 0.5658742,-0.1954254 0.6323953,-0.4606463 0.070023,-0.2791789 -0.087707,-0.4746053 -0.39782,-0.4746053 H 4.9947591 l 0.080525,-0.3210563 c 0.5388653,-2.148458 1.425592,-3.2110381 2.7694118,-3.2110381 0.3396424,0 0.6284337,-0.2093845 0.6984563,-0.4885645 C 8.6131752,2.836639 8.429416,2.6272545 8.0897736,2.6272545 c -2.0231046,0 -3.442995,1.3630958 -4.1655685,4.2440025 L 3.8576808,7.1364769 H 2.3032909 c -0.310113,0 -0.5658642,0.1954264 -0.6358868,0.4746053 -0.066524,0.2652209 0.091198,0.4606463 0.4013115,0.4606463 H 3.6231055 L 2.3908349,12.984814 c -0.084024,0.335016 0.099732,0.5444 0.4098445,0.5444 z"
         id="path10" /></g></g></svg>
