<?xml version="1.0" encoding="UTF-8" standalone="no"?>
<!-- Created with Inkscape (http://www.inkscape.org/) -->

<svg
   width="16"
   height="16"
   viewBox="0 0 16 16"
   version="1.1"
   id="svg1"
   xml:space="preserve"
   xmlns="http://www.w3.org/2000/svg"
   xmlns:svg="http://www.w3.org/2000/svg"><defs
     id="defs1" /><g
     id="layer1"><g
       id="g156"><path
         style="fill:#f18ec3;fill-opacity:1;stroke-width:0.503999;stroke-dasharray:none"
         d="m 11.980469,10 0.02344,5 h 0.982422 L 13,12 13.990234,15 15,12 14.9941,15 H 16 V 10 H 14.994141 L 14,12 12.986328,10 Z"
         id="path156" /><path
         style="fill:#f18ec3;fill-opacity:1;stroke-width:0.503999;stroke-dasharray:none"
         d="m 8,10 v 5 h 3 V 14 H 9 v -1 h 1 V 12 H 9 v -1 h 2 l -0.04492,-1 z"
         id="path155" /><path
         style="fill:#f18ec3;fill-opacity:1;stroke-width:0.503999;stroke-dasharray:none"
         d="m 4,10 v 1 h 1 v 4 h 1 v -4 h 1 v -1 z"
         id="path154" /><path
         style="fill:#f18ec3;fill-opacity:1;stroke-width:0.503999;stroke-dasharray:none"
         d="m 0,10 v 3 h 2 v 1 L -0.001953,14.03906 0,15 H 3 V 12 L 1,12.0059 V 11 h 2 v -1 z"
         id="path153" /><path
         style="fill:#e0e0e0;fill-opacity:1;stroke-width:0.503999;stroke-dasharray:none"
         d="M 7.585937,3.337891 7.228516,3.699219 c 0.331006,0.345549 0.513671,0.797493 0.513671,1.27539 0,0.477897 -0.182665,0.931793 -0.513671,1.277344 l 0.357421,0.361328 c 0.423507,-0.442363 0.65625,-1.024821 0.65625,-1.638672 0,-0.613851 -0.232743,-1.194354 -0.65625,-1.636718 z"
         id="path152" /><path
         style="fill:#e0e0e0;fill-opacity:1;stroke-width:0.503999;stroke-dasharray:none"
         d="M 9.353516,2.259766 9,2.625 C 9.614007,3.257389 9.951172,4.09767 9.951172,4.992187 9.951172,5.886185 9.614007,6.726981 9,7.359375 l 0.353516,0.363281 c 0.708007,-0.729719 1.097656,-1.698968 1.097656,-2.730469 0,-1.032008 -0.389649,-2.002702 -1.097656,-2.732421 z"
         id="path151" /><path
         style="fill:#e0e0e0;fill-opacity:1;stroke-width:0.503999;stroke-dasharray:none"
         d="M 4.873047,1 3.535156,2.945312 H 1.75 C 1.33649,2.945312 1,3.406146 1,3.832031 V 5.892578 C 1,6.318468 1.33649,7 1.75,7 H 3.535156 L 4.873047,8.953125 H 6.044922 V 1 Z M 5.080078,1.902344 H 5.226562 V 8 H 5.080078 L 3.888672,6.300781 V 3.423828 Z M 2.138672,3.917969 H 3 V 6.150391 H 2.138672 c -0.137505,0 -0.25,-0.115681 -0.25,-0.257813 v -1.71875 c 0,-0.142128 0.112495,-0.255859 0.25,-0.255859 z"
         id="path119" /></g></g></svg>
