<?xml version="1.0" encoding="UTF-8" standalone="no"?>
<!-- Created with Inkscape (http://www.inkscape.org/) -->

<svg
   width="16"
   height="16"
   viewBox="0 0 16 16"
   version="1.1"
   id="svg1"
   xml:space="preserve"
   inkscape:version="1.3.2 (091e20ef0f, 2023-11-25)"
   sodipodi:docname="sheet.svg"
   inkscape:export-filename="../GitHub/gd-cinder-icon/misc/DynamicTween.svg"
   inkscape:export-xdpi="96"
   inkscape:export-ydpi="96"
   xmlns:inkscape="http://www.inkscape.org/namespaces/inkscape"
   xmlns:sodipodi="http://sodipodi.sourceforge.net/DTD/sodipodi-0.dtd"
   xmlns="http://www.w3.org/2000/svg"
   xmlns:svg="http://www.w3.org/2000/svg"><sodipodi:namedview
     id="namedview1"
     pagecolor="#ffffff"
     bordercolor="#000000"
     borderopacity="0.25"
     inkscape:showpageshadow="2"
     inkscape:pageopacity="0.0"
     inkscape:pagecheckerboard="0"
     inkscape:deskcolor="#414141"
     inkscape:document-units="px"
     showgrid="false"
     inkscape:zoom="3.8658406"
     inkscape:cx="-144.21184"
     inkscape:cy="19.142021"
     inkscape:window-width="1920"
     inkscape:window-height="1014"
     inkscape:window-x="1920"
     inkscape:window-y="0"
     inkscape:window-maximized="1"
     inkscape:current-layer="layer1"
     showguides="true"><inkscape:grid
       id="grid2"
       units="px"
       originx="0"
       originy="0"
       spacingx="1"
       spacingy="1"
       empcolor="#0099e5"
       empopacity="0.30196078"
       color="#0099e5"
       opacity="0.14901961"
       empspacing="8"
       dotted="false"
       gridanglex="30"
       gridanglez="30"
       visible="false" /></sodipodi:namedview><defs
     id="defs1" /><g
     inkscape:label="Layer 1"
     inkscape:groupmode="layer"
     id="layer1"><g
       id="g216"
       inkscape:label="EventConditional"
       transform="translate(160,-80)"><path
         id="path208"
         style="font-size:14.212px;font-family:Comfortaa;-inkscape-font-specification:Comfortaa;fill:#e0e0e0;stroke:#e0e0e0;stroke-width:1.33238;stroke-miterlimit:3.7;paint-order:stroke fill markers"
         d="m -156.12911,93.333791 c 0.32533,0 0.56193,-0.218542 0.56193,-0.532696 V 87.08841 c 0,-0.314154 -0.2366,-0.532696 -0.56193,-0.532696 -0.34011,0 -0.57671,0.218542 -0.57671,0.532696 v 5.712685 c 0,0.314154 0.2366,0.532696 0.57671,0.532696 z m 5.9366,0 c 0.36969,0 0.5915,-0.204883 0.5915,-0.532696 v -4.807461 h 1.7745 c 0.31054,0 0.51757,-0.191224 0.51757,-0.450743 0,-0.273177 -0.20703,-0.464402 -0.51757,-0.464402 h -1.7745 v -0.314154 c 0,-2.102269 0.62107,-3.142005 1.96674,-3.142005 0.34011,0 0.57671,-0.204883 0.57671,-0.478061 0,-0.273177 -0.2366,-0.47806 -0.57671,-0.47806 -2.02589,0 -3.10538,1.333791 -3.10538,4.152762 v 0.259518 h -1.55653 c -0.31054,0 -0.51756,0.191225 -0.51756,0.464402 0,0.259519 0.20702,0.450743 0.51756,0.450743 h 1.55653 v 4.807461 c 0,0.327813 0.2366,0.532696 0.54714,0.532696 z" /><path
         style="font-size:14.212px;font-family:Comfortaa;-inkscape-font-specification:Comfortaa;fill:#f18ec3;fill-opacity:1;stroke:#f18ec3;stroke-width:1.33238;stroke-miterlimit:3.7;stroke-opacity:1;paint-order:stroke fill markers"
         d="m -156.14391,84.441863 c 0.45842,0 0.81332,-0.327813 0.81332,-0.751238 0,-0.450743 -0.38448,-0.73758 -0.79853,-0.73758 -0.42884,0 -0.81331,0.286837 -0.81331,0.73758 0,0.423425 0.3549,0.751238 0.79852,0.751238 z"
         id="text95" /></g></g></svg>
