<?xml version="1.0" encoding="UTF-8" standalone="no"?>
<!-- Created with Inkscape (http://www.inkscape.org/) -->

<svg
   width="16"
   height="16"
   viewBox="0 0 16 16"
   version="1.1"
   id="svg1"
   xml:space="preserve"
   xmlns="http://www.w3.org/2000/svg"
   xmlns:svg="http://www.w3.org/2000/svg"><defs
     id="defs1" /><g
     id="layer1"><path
       id="path101"
       style="color:#000000;fill:#e0e0e0;stroke-linecap:round;stroke-linejoin:round;-inkscape-stroke:none"
       d="m 7.9882812,1.8535156 c -3.3849066,0 -6.1425781,2.7673265 -6.1425781,6.1582032 0,3.2262652 2.4964575,5.8840812 5.6542969,6.1347652 V 13 11.269531 C 6.9631026,10.388162 6.6472108,9.5528209 6.5449219,8.7617188 h 0.984375 C 7.5905977,8.3675479 7.8063668,7.5667976 8.1289062,7.3320705 L 6.4433594,7.2617188 C 6.4547594,7.1666188 6.406375,7.0501512 6.421875,6.9570312 6.6457148,5.6090026 7.3264119,4.5583886 7.9882812,3.7871094 8.6503906,4.5583886 9.3307577,5.6084726 9.5546875,6.9570312 9.568148,7.0378812 9.5351095,7.1358747 9.5332031,7.2226562 9.6215596,7.2102189 9.7091652,7.2016342 9.7949219,7.1972656 11.216263,7.1248357 12.147765,7.748624 12.814453,8 H 13.875 c 0.02169,-0.020053 0.03831,-0.034403 0.06445,-0.060547 0.04724,-0.046235 0.09748,-0.089298 0.150391,-0.1289062 -0.0013,-0.029177 -0.004,-0.057837 -0.01563,-0.085937 l -0.002,-0.00195 C 13.912596,4.4726695 11.270958,1.8535156 7.9882812,1.8535156 Z M 6.0800781,3.7832031 C 5.5666386,4.6062523 5.1327292,5.5704686 4.9433594,6.7109375 c -0.028,0.1685998 -0.048353,0.3765914 -0.064453,0.5507813 H 3.4960938 C 3.7547935,5.7104903 4.6976895,4.4103925 6.0800781,3.7832031 Z m 3.8164063,0 C 11.278933,4.4103825 12.221759,5.7104503 12.480469,7.2617188 L 11.114561,7.330641 C 11.098361,7.1564611 11.063116,6.8795273 11.035156,6.7109375 10.845776,5.5704286 10.409954,4.6062723 9.8964844,3.7832031 Z M 3.4960938,8.7617188 H 5.09375 C 5.2194099,9.9122376 5.457132,11.079427 6.2382812,12.316406 4.7720127,11.719307 3.7652635,10.373977 3.4960938,8.7617188 Z" /><g
       id="path133"
       style="fill:#f18ec3;fill-opacity:1"><path
         style="color:#000000;fill:#f18ec3;fill-opacity:1;stroke-linecap:round;stroke-linejoin:round;-inkscape-stroke:none"
         d="M 9.87109,8.69541 C 9.57271,8.71061 9.28102,8.79936 9,9.00009 v 4 2 h 1 v -2 c 1.47735,-1.05984 3,1.42917 5,0 0,0 -0.0228,-2.02182 0,-4 -1.6875,1.6875 -3.51761,-0.3868 -5.12891,-0.30469 z"
         id="path135" /></g></g></svg>
