<?xml version="1.0" encoding="UTF-8" standalone="no"?>
<!-- Created with Inkscape (http://www.inkscape.org/) -->

<svg
   width="16"
   height="16"
   viewBox="0 0 16 16"
   version="1.1"
   id="svg1"
   xml:space="preserve"
   xmlns="http://www.w3.org/2000/svg"
   xmlns:svg="http://www.w3.org/2000/svg"><defs
     id="defs1" /><g
     id="layer1"><g
       id="g234"><path
         id="path1-84"
         d="m 4,1.5 c -0.5522841,0 -1,0.4477159 -1,1 v 9 c -6.9e-6,0.550337 0.4438101,0.997248 0.9941406,1 h 4.4628906 c 0.1392135,-0.189632 0.2813556,-0.327737 0.4433594,-0.472656 0.00863,-0.0077 0.026406,-0.01769 0.035156,-0.02539 -0.00875,-0.0077 -0.026526,-0.01769 -0.035156,-0.02539 C 8.7050073,11.801784 8.5383249,11.64235 8.3710938,11.382812 8.2874781,11.253043 8.1949558,11.095725 8.1386719,10.835938 8.0823881,10.576149 8.0919351,10.153672 8.3105469,9.796875 8.5291586,9.4400787 8.8702691,9.2568528 9.1054688,9.1835938 c 0.2351995,-0.073259 0.4059617,-0.076087 0.5546874,-0.072266 0.2974515,0.00764 0.5239738,0.062434 0.7773438,0.1347657 0.05036,0.014376 0.129678,0.057907 0.181641,0.074219 0.0013,-0.00549 6.53e-4,-0.014061 0.002,-0.019531 0.05936,-0.251582 0.119227,-0.4771321 0.259765,-0.7460937 0.07027,-0.1344809 0.158447,-0.2850581 0.345703,-0.4609375 0.187256,-0.1758794 0.538923,-0.3933913 0.972657,-0.3945312 h 0.0039 0.0039 c 0.317273,8.359e-4 0.589886,0.118593 0.78711,0.25 V 2.5 C 12.990314,1.9523953 12.547611,1.5105372 12,1.5078125 H 4 Z m -3,2 v 9 c 0,1.104568 0.8954316,2 2,2 H 8.5546875 C 8.4658262,14.418636 8.3814351,14.322728 8.3105469,14.207031 8.1701308,13.977859 8.1171965,13.722852 8.1113281,13.5 H 3 c -0.5522841,0 -1,-0.447716 -1,-1 v -9 z m 13,0 V 9.2382812 C 14.240777,9.170433 14.461091,9.1186484 14.746094,9.1113281 14.822954,9.1093535 14.905517,9.1107134 15,9.1210938 V 3.5 Z"
         style="fill:#e0e0e0;fill-opacity:1" /><path
         style="color:#000000;fill:#f18ec3;-inkscape-stroke:none"
         d="m 12.20312,9 c -0.23493,6.19e-4 -0.44185,0.878079 -0.50976,2.160156 -2.76163,-1.353609 -3.13022,-0.75227 -0.51563,0.841797 -2.61459,1.594068 -2.246,2.195408 0.51563,0.841797 0.15311,2.873964 0.86642,2.873964 1.01953,0 2.76163,1.353611 3.13022,0.752271 0.51563,-0.841797 2.61459,-1.594067 2.246,-2.195406 -0.51563,-0.841797 C 12.64499,9.878079 12.43806,9.000619 12.20312,9 Z"
         id="path233" /></g></g></svg>
