<?xml version="1.0" encoding="UTF-8" standalone="no"?>
<!-- Created with Inkscape (http://www.inkscape.org/) -->

<svg
   width="16"
   height="16"
   viewBox="0 0 16 16"
   version="1.1"
   id="svg1"
   xml:space="preserve"
   xmlns="http://www.w3.org/2000/svg"
   xmlns:svg="http://www.w3.org/2000/svg"><defs
     id="defs1" /><g
     id="layer1"><path
       d="m 4.2012,8.68442 h 0.006 m -0.006,2.740666 h 0.006 M 6.73387,8.68442 h 0.006 m 2.52634,0 h 0.006 m 2.52667,2.740666 h 0.006 m -0.006,-2.740666 h 0.006 m -1.27267,-6.8519 v 1.37 h -5.0657 v 2.740667 m 1.266,5.481466 h 2.533 M 3.69328,14.16532 h 8.61166 c 0.70934,0 1.064,0 1.335,-0.15 0.24,-0.13 0.432,-0.341 0.55367,-0.599 0.13667,-0.296667 0.13667,-0.677334 0.13667,-1.444 v -3.8371 c 0,-0.767667 0,-1.151 -0.13667,-1.444 -0.12333,-0.26 -0.31667,-0.467333 -0.55367,-0.599 -0.27,-0.15 -0.62566,-0.15 -1.335,-0.15 H 3.69328 c -0.70934,0 -1.064,0 -1.335,0.15 -0.24,0.13 -0.432,0.341333 -0.55367,0.599 -0.13667,0.296667 -0.13667,0.677 -0.13667,1.444 v 3.837633 c 0,0.767667 0,1.151 0.13667,1.444 0.12333,0.26 0.31667,0.467333 0.55367,0.599 0.27,0.15 0.62566,0.15 1.335,0.15 z"
       stroke="#000000"
       stroke-width="1.31738"
       stroke-linecap="round"
       stroke-linejoin="round"
       id="path1-1"
       style="fill:none;stroke:#e0e0e0;stroke-opacity:1" /></g></svg>
