<?xml version="1.0" encoding="UTF-8" standalone="no"?>
<!-- Created with Inkscape (http://www.inkscape.org/) -->

<svg
   width="16"
   height="16"
   viewBox="0 0 16 16"
   version="1.1"
   id="svg1"
   xml:space="preserve"
   xmlns="http://www.w3.org/2000/svg"
   xmlns:svg="http://www.w3.org/2000/svg"><defs
     id="defs1" /><g
     id="layer1"><path
       d="M 11.230786,5.2000001 H 4.7692868 c -0.5098122,0 -0.9230712,-0.3581602 -0.9230712,-0.8000002 V 2.3999997 C 3.8462156,2.1791201 4.0528912,2 4.3077513,2 4.5626113,2 4.7692868,2.1791201 4.7692868,2.3999997 V 3.5999998 H 5.6923583 V 2.8000003 C 5.6923583,2.3581603 6.1056173,2 6.6154296,2 7.1252419,2 7.5385011,2.3581603 7.5385011,2.8000003 V 3.5999998 H 8.461572 V 2.8000003 C 8.461572,2.3581603 8.8748313,2 9.3846435,2 9.8944559,2 10.307715,2.3581603 10.307715,2.8000003 v 0.7999995 h 0.923071 V 2.3999997 C 11.230786,2.1791201 11.437462,2 11.692322,2 c 0.25486,0 0.461535,0.1791201 0.461535,0.3999997 v 2.0000002 c 0,0.44184 -0.413259,0.8000002 -0.923071,0.8000002 z M 14,13.600001 C 14,13.820881 13.793325,14 13.538465,14 H 2.4616086 C 2.2067486,14 2.0000729,13.820881 2.0000729,13.600001 2.0000729,13.379119 2.2067486,13.2 2.4616086,13.2 h 0.4615357 c 0.5098123,0 0.9230713,-0.358161 0.9230713,-0.8 0,0 0.9230712,-4.7999997 0.9230712,-5.6000001 0,-0.4418399 0.4132592,-0.8000002 0.9230715,-0.8000002 h 4.6153567 c 0.509813,0 0.923071,0.3581603 0.923071,0.8000002 0,0.8000004 0.923071,5.6000001 0.923071,5.6000001 0,0.441839 0.41326,0.8 0.923073,0.8 h 0.461535 C 13.789817,13.199924 13.995016,13.37424 14,13.592 Z M 9.3846435,10.4 c 0,-0.6627203 -0.6199344,-1.2000001 -1.3846069,-1.2000001 -0.7646726,0 -1.384607,0.5372798 -1.384607,1.2000001 v 2.8 h 2.7692139 z"
       id="path1-3"
       style="fill:#e0e0e0;fill-opacity:1;stroke-width:0.859335" /></g></svg>
