<?xml version="1.0" encoding="UTF-8" standalone="no"?>
<!-- Created with Inkscape (http://www.inkscape.org/) -->

<svg
   width="16"
   height="16"
   viewBox="0 0 16 16"
   version="1.1"
   id="svg1"
   xml:space="preserve"
   xmlns="http://www.w3.org/2000/svg"
   xmlns:svg="http://www.w3.org/2000/svg"><defs
     id="defs1" /><g
     id="layer1"><g
       id="g128"><path
         style="fill:#f18ec3;fill-opacity:1;stroke-width:1.659;stroke-dasharray:none"
         d="m 12.20312,9 c -0.23493,6.19e-4 -0.44185,0.878079 -0.50976,2.160156 -2.76163,-1.353609 -3.13022,-0.75227 -0.51563,0.841797 -2.61459,1.594068 -2.246,2.195408 0.51563,0.841797 0.15311,2.873964 0.86642,2.873964 1.01953,0 2.76163,1.353611 3.13022,0.752271 0.51563,-0.841797 2.61459,-1.594067 2.246,-2.195406 -0.51563,-0.841797 C 12.64499,9.878079 12.43806,9.000619 12.20312,9 Z"
         id="path128" /><path
         id="path124"
         style="fill:#e0e0e0;fill-opacity:1;stroke-width:1.659;stroke-dasharray:none"
         d="M 4.30859,2 C 4.05373,2 3.8457,2.179511 3.8457,2.400391 v 2 c 0,0.441839 0.41401,0.798828 0.92383,0.798828 h 6.46094 c 0.50981,0 0.92383,-0.356989 0.92383,-0.798828 v -2 C 12.1543,2.179511 11.94627,2 11.69141,2 11.43655,2 11.23047,2.179511 11.23047,2.400391 V 3.599609 H 10.30859 V 2.800781 C 10.30859,2.358942 9.89459,2 9.38477,2 8.87496,2 8.46094,2.358942 8.46094,2.800781 V 3.599609 H 7.53906 V 2.800781 C 7.53906,2.358942 7.12504,2 6.61523,2 6.10542,2 5.69141,2.358942 5.69141,2.800781 V 3.599609 H 4.76953 V 2.400391 C 4.76953,2.179511 4.56345,2 4.30859,2 Z M 5.69141,6 C 5.1816,6 4.76953,6.358942 4.76953,6.800781 c 0,0.799999 -0.92383,5.59961 -0.92383,5.59961 0,0.441838 -0.41205,0.798828 -0.92187,0.798828 H 2.46094 C 2.20608,13.199219 2,13.378731 2,13.599609 2,13.820489 2.23358,14 2.48844,14 h 5.71093 c 0.0537,0 0.0266,-0.800781 -0.0123,-0.800781 h -1.5718 v -2.798828 c 0,-0.662719 0.62015,-1.192035 1.38477,-1.201172 1.13598,-0.01357 1.50249,0.01836 2.5918,0.07031 0.0582,-0.244048 0.11915,-0.467185 0.25781,-0.732422 0.0715,-0.136838 0.15979,-0.290631 0.35156,-0.470703 0.0451,-0.04232 0.0994,-0.08723 0.16211,-0.13086 C 11.28412,7.413273 11.23051,6.990499 11.23051,6.800779 11.23047,6.358942 10.8184,6 10.30859,6 Z" /></g></g></svg>
