<?xml version="1.0" encoding="UTF-8" standalone="no"?>
<!-- Created with Inkscape (http://www.inkscape.org/) -->

<svg
   width="16"
   height="16"
   viewBox="0 0 16 16"
   version="1.1"
   id="svg1"
   xml:space="preserve"
   xmlns="http://www.w3.org/2000/svg"
   xmlns:svg="http://www.w3.org/2000/svg"><defs
     id="defs1" /><g
     id="layer1"><path
       id="primary-2"
       style="fill:none;stroke:#e0e0e0;stroke-width:2;stroke-linecap:round;stroke-linejoin:round;stroke-opacity:1"
       d="m 11.89,13.16 -4.9099311,5.35 c -0.2049036,0.307486 -0.92,0.49 -0.92,0.49 v 0 c 0,0 -1.2463648,-0.673475 -1.07,-1.37 L 8,11 Z M 6.67,7 8,11 l 6.37,3.54 3.39,-2.37 c 0.157858,-0.112863 0.279467,-0.269218 0.35,-0.45 L 20,7 Z M 19,15 c -1.781934,0 -2.674006,2.154277 -1.414142,3.414142 C 18.845723,19.674006 21,18.781934 21,17 21,15.895431 20.104569,15 19,15 Z M 17.21,16.11 8,11 6.23,5.68 A 1,1 0 0 0 5.23,5 H 3 m 3.67,2 1.33,4 6.37,3.54 3.39,-2.37 a 1,1 0 0 0 0.35,-0.45 L 20,7 Z"
       transform="matrix(0.6875,0,0,0.7,-0.25,-0.39952996)" /></g></svg>
