<?xml version="1.0" encoding="UTF-8" standalone="no"?>
<!-- Created with Inkscape (http://www.inkscape.org/) -->

<svg
   width="16"
   height="16"
   viewBox="0 0 16 16"
   version="1.1"
   id="svg1"
   xml:space="preserve"
   xmlns="http://www.w3.org/2000/svg"
   xmlns:svg="http://www.w3.org/2000/svg"><defs
     id="defs1" /><g
     id="layer1"><g
       id="g230"><path
         id="path225"
         style="color:#000000;fill:#e0e0e0;stroke-linecap:round;stroke-linejoin:round;-inkscape-stroke:none"
         d="M 14.138672,1.0488281 C 11.759447,1.1323112 10.398497,1.9713486 9.5585938,2.8554688 9.5277683,2.8875778 9.499676,2.9222031 9.4746094,2.9589844 8.7999355,3.9579247 8.4693891,5.1261565 8.4628906,6.3164062 8.2733225,6.6170917 8.2867558,6.8018472 8.1445312,7.0585938 7.8428509,6.4313465 7.4587977,5.8444787 6.8085938,5.3964844 5.7338909,4.6560088 4.137463,4.2300875 1.6992188,4.6425781 1.2194778,4.7245982 0.92349209,5.2123751 1.0722656,5.6757812 1.6942289,7.6118593 2.7329764,8.8404631 3.9492188,9.4199219 4.9460121,9.9240649 5.9788827,9.883599 7.140625,9.71875 c -0.063267,1.016101 0.050781,2.091236 0.050781,4.433594 6.455e-4,0.440913 0.3579152,0.798183 0.7988282,0.798828 0.2576914,-0.0056 0.4968981,-0.135021 0.6425781,-0.347656 C 7.4796095,13.722424 8.4541624,12.295551 8.7695313,12 8.6082543,12.01507 7.3384992,10.181241 8.765625,9.3105469 8.8772856,8.7198277 9.1926183,8.1693383 9.7792969,7.2363281 11.195989,7.0942724 12.381402,6.7281589 13.251953,6.0683594 c 0.02315,-0.017658 0.04532,-0.036566 0.06641,-0.056641 C 14.275937,5.1045311 14.878492,3.8090627 14.966797,1.8847656 14.988057,1.417667 14.60595,1.0319545 14.138672,1.0488281 Z m -0.958984,1.7910157 c -0.173596,0.869097 -0.452007,1.5102563 -0.935547,1.9765624 -0.458544,0.3387381 -1.132073,0.565609 -1.933594,0.7226563 0.110816,-0.5601728 0.15135,-1.1388216 0.474609,-1.6308594 0.48565,-0.4998241 1.238452,-0.8640546 2.394532,-1.0683593 z m -9.0039068,3.28125 c 0.1087416,6.1e-5 0.2093976,0.00496 0.2949219,0.019531 C 5.0918936,6.2464922 5.535207,6.4599315 5.9023438,6.7128904 6.3533506,7.0236368 6.6180942,7.5354805 6.8730469,8.160156 5.9658829,8.290391 5.2943804,8.311778 4.6640625,7.9902342 4.6569525,7.9868742 4.6497875,7.9836142 4.6425785,7.9804642 4.0890296,7.7182631 3.5594485,7.0824056 3.0917969,6.1855469 3.4428363,6.1707669 3.8495566,6.1209105 4.1757812,6.1210938 Z" /><path
         style="color:#000000;fill:#f18ec3;-inkscape-stroke:none"
         d="m 12.20312,9 c -0.23493,6.19e-4 -0.44185,0.878079 -0.50976,2.160156 -2.76163,-1.353609 -3.13022,-0.75227 -0.51563,0.841797 -2.61459,1.594068 -2.246,2.195408 0.51563,0.841797 0.15311,2.873964 0.86642,2.873964 1.01953,0 2.76163,1.353611 3.13022,0.752271 0.51563,-0.841797 2.61459,-1.594067 2.246,-2.195406 -0.51563,-0.841797 C 12.64499,9.878079 12.43806,9.000619 12.20312,9 Z"
         id="path229" /></g></g></svg>
