<?xml version="1.0" encoding="UTF-8" standalone="no"?>
<!-- Created with Inkscape (http://www.inkscape.org/) -->

<svg
   width="16"
   height="16"
   viewBox="0 0 16 16"
   version="1.1"
   id="svg1"
   xml:space="preserve"
   xmlns="http://www.w3.org/2000/svg"
   xmlns:svg="http://www.w3.org/2000/svg"><defs
     id="defs1" /><g
     id="layer1"><g
       style="fill:none"
       id="g64"
       transform="matrix(0.62278057,0,0,0.60134024,0.52663315,0.7864782)"><path
         d="m 37.11404,-12.259042 v -17.09998 c 0,0 0.875,-0.90002 3.5,-0.90002 2.625,0 4.411675,3.011749 7.036675,3.011749 2.625,0 3.5,-0.9 3.5,-0.9 v 10.799999 c 0,0 -0.875,0.9 -3.5,0.9 -2.625,0 -4.411675,-3.011748 -7.036675,-3.011748 -2.625,0 -3.5,0.9 -3.5,0.9"
         stroke="#000000"
         stroke-width="2"
         stroke-linecap="round"
         stroke-linejoin="round"
         id="path1-36"
         style="stroke:#fc7f7f;stroke-opacity:1" /><path
         d="m 5.0000002,-12.259042 v -17.09998 c 0,0 0.875,-0.90002 3.5,-0.90002 2.6249998,0 4.4116748,3.011749 7.0366748,3.011749 2.625,0 3.5,-0.9 3.5,-0.9 v 10.799999 c 0,0 -0.875,0.9 -3.5,0.9 -2.625,0 -4.411675,-3.011748 -7.0366748,-3.011748 -2.625,0 -3.5,0.9 -3.5,0.9"
         stroke="#000000"
         stroke-width="2"
         stroke-linecap="round"
         stroke-linejoin="round"
         id="path64"
         style="stroke:#8da5f3;stroke-opacity:1" /><path
         fill="none"
         stroke="#000000"
         stroke-width="1.63405"
         d="m 3.1486148,9.5234125 17.6599392,0.0031 0.01774,-6.717287 -17.6776792,0.05197 z m 0.03395,11.6328075 h 6.412678 v -6.662167 h -6.412678 z m 11.2221872,0 h 6.412678 v -6.662167 h -6.412678 z m -8.0158482,-6.662167 0.00656,-4.9700706 z m 4.0079232,3.331085 h 3.20634 z m 7.20032,-8.2991892 0.01394,4.9681042 z"
         id="path1-32"
         style="stroke:#e0e0e0;stroke-width:1.63408;stroke-linecap:round;stroke-linejoin:round;stroke-miterlimit:4;stroke-dasharray:none;stroke-opacity:1;paint-order:stroke fill markers" /></g></g></svg>
