<?xml version="1.0" encoding="UTF-8" standalone="no"?>
<!-- Created with Inkscape (http://www.inkscape.org/) -->

<svg
   width="16"
   height="16"
   viewBox="0 0 16 16"
   version="1.1"
   id="svg1"
   xml:space="preserve"
   xmlns="http://www.w3.org/2000/svg"
   xmlns:svg="http://www.w3.org/2000/svg"><defs
     id="defs1" /><g
     id="layer1"><g
       style="fill:none;stroke-width:3.126;stroke-dasharray:none"
       id="g62"
       transform="matrix(-0.60641304,0,0,0.61627478,15.350471,0.45926526)"><path
         d="m 5.6416064,10.064835 v 6.062308 c 0,1.585959 0,2.37894 0.3059142,2.984647 0.2690898,0.532838 0.6984624,0.965998 1.2265847,1.237468 0.6003862,0.308658 1.3222182,0.15024 2.8941327,0.15024 h 4.116527 c 1.571952,0 2.283135,0.158418 2.883587,-0.15024 0.528132,-0.27147 0.957466,-0.70463 1.226538,-1.237468 0.305933,-0.605707 0.29633,-1.398716 0.305933,-2.984647 l 0.03409,-5.630449 m 1.911756,1.507604 -5.083163,-5.6974579 C 14.307419,5.0110671 13.729422,4.3631853 13.048604,4.1239982 12.450772,3.9139213 11.799987,3.9139686 11.202061,4.1241398 10.521336,4.3634213 9.9434418,5.0113975 8.7875677,6.3073404 L 3.7063322,12.004298"
         stroke="#000000"
         stroke-width="2"
         stroke-linecap="round"
         stroke-linejoin="round"
         id="path1-9"
         style="stroke:#e0e0e0;stroke-width:2.28357;stroke-linecap:round;stroke-linejoin:miter;stroke-dasharray:none;stroke-opacity:1" /></g></g></svg>
