<?xml version="1.0" encoding="UTF-8" standalone="no"?>
<!-- Created with Inkscape (http://www.inkscape.org/) -->

<svg
   width="16"
   height="16"
   viewBox="0 0 16 16"
   version="1.1"
   id="svg1"
   xml:space="preserve"
   xmlns="http://www.w3.org/2000/svg"
   xmlns:svg="http://www.w3.org/2000/svg"><defs
     id="defs1" /><g
     id="layer1"><g
       style="fill:none"
       id="g64"
       transform="matrix(0.62278057,0,0,0.60134024,0.52663315,0.7864782)"><path
         d="m 37.11404,-45.518084 v -17.09998 c 0,0 0.875,-0.90002 3.5,-0.90002 2.625,0 4.411675,3.011749 7.036675,3.011749 2.625,0 3.5,-0.9 3.5,-0.9 v 10.799999 c 0,0 -0.875,0.9 -3.5,0.9 -2.625,0 -4.411675,-3.011748 -7.036675,-3.011748 -2.625,0 -3.5,0.9 -3.5,0.9"
         stroke="#000000"
         stroke-width="2"
         stroke-linecap="round"
         stroke-linejoin="round"
         id="path1-36"
         style="stroke:#fc7f7f;stroke-opacity:1" /><path
         d="m 5.0000002,-45.518084 v -17.09998 c 0,0 0.875,-0.90002 3.5,-0.90002 2.6249998,0 4.4116748,3.011749 7.0366748,3.011749 2.625,0 3.5,-0.9 3.5,-0.9 v 10.799999 c 0,0 -0.875,0.9 -3.5,0.9 -2.625,0 -4.411675,-3.011748 -7.0366748,-3.011748 -2.625,0 -3.5,0.9 -3.5,0.9"
         stroke="#000000"
         stroke-width="2"
         stroke-linecap="round"
         stroke-linejoin="round"
         id="path64"
         style="stroke:#8da5f3;stroke-opacity:1" /><path
         fill="none"
         stroke="#000000"
         stroke-width="1.63405"
         d="m -28.965425,-56.994671 17.659939,0.0031 0.01774,-6.717287 -17.677679,0.05197 z m 0.03395,11.632807 h 6.412678 v -6.662167 h -6.412678 z m 11.222187,0 h 6.412678 v -6.662167 h -6.412678 z m -8.015848,-6.662167 0.0066,-4.97007 z m 4.007923,3.331085 h 3.20634 z m 7.20032,-8.299189 0.01394,4.968104 z"
         id="path1-32"
         style="stroke:#e0e0e0;stroke-width:1.63408;stroke-linecap:round;stroke-linejoin:round;stroke-miterlimit:4;stroke-dasharray:none;stroke-opacity:1;paint-order:stroke fill markers" /><g
         style="fill:none"
         id="g65"
         transform="matrix(53.5234,0,0,55.431736,-636.1008,-752.54648)"><path
           opacity="0.5"
           d="m 12.192358,13.713841 -0.03892,0.04151"
           stroke="#1c274c"
           stroke-width="0.0278512"
           stroke-linecap="round"
           id="path1-6"
           style="opacity:0.639506;stroke:#fc7f7f;stroke-width:0.0341419;stroke-linecap:butt;stroke-miterlimit:3.7;stroke-dasharray:none;stroke-opacity:1" /><ellipse
           cx="12.065597"
           cy="13.834322"
           stroke="#1c274c"
           stroke-width="0.0236394"
           id="circle1-0"
           rx="0.11753941"
           ry="0.118858"
           style="stroke:#fc7f7f;stroke-width:0.03864;stroke-dasharray:none;stroke-opacity:1" /><ellipse
           cx="12.22486"
           cy="13.676926"
           stroke="#1c274c"
           stroke-width="0.0236394"
           id="ellipse66"
           rx="0.048877683"
           ry="0.049426004"
           style="stroke:#fc7f7f;stroke-width:0.03;stroke-dasharray:none;stroke-opacity:1" /></g></g></g></svg>
