<?xml version="1.0" encoding="UTF-8" standalone="no"?>
<!-- Created with Inkscape (http://www.inkscape.org/) -->

<svg
   width="16"
   height="16"
   viewBox="0 0 16 16"
   version="1.1"
   id="svg1"
   xml:space="preserve"
   xmlns="http://www.w3.org/2000/svg"
   xmlns:svg="http://www.w3.org/2000/svg"><defs
     id="defs1" /><g
     id="layer1"><path
       id="path176"
       style="color:#000000;fill:#fc7f7f;fill-opacity:1;stroke-width:33.3333;stroke-linecap:round;stroke-linejoin:round;-inkscape-stroke:none"
       d="m 13.494706,7.972963 c -3.021667,-3.4e-5 -5.468767,2.503666 -5.468767,5.533833 a 0.499,0.499 0 0 0 0.455667,0.521 0.499,0.499 0 0 0 0.521,-0.521 c 0,-2.493 2.012,-4.4922 4.4922,-4.492167 a 0.499,0.499 0 0 0 0.455666,-0.521 0.499,0.499 0 0 0 -0.455666,-0.521 z m 0,2.018333 c -1.921,0 -3.515834,1.59 -3.515634,3.5156 a 0.499,0.499 0 0 0 0.521,0.521 0.499,0.499 0 0 0 0.521,-0.521 c -1.33e-4,-1.387667 1.094334,-2.539 2.474,-2.539 a 0.499,0.499 0 0 0 0.455667,-0.455667 0.499,0.499 0 0 0 -0.455667,-0.521 z m -1.041667,2.474 c -0.581,0.581333 -0.581,1.502333 0,2.083333 0.579,0.581 1.503333,0.58 2.083333,0 0.581667,-0.581 0.581334,-1.502 0,-2.083333 -0.579,-0.581 -1.503333,-0.58 -2.083333,0 z m 0.651,0.651 c 0.2,-0.2 0.517333,-0.2 0.716,0 0.2,0.2 0.2,0.517 0,0.716 -0.2,0.2 -0.517333,0.2 -0.716,0 -0.2,-0.2 -0.2,-0.516667 0,-0.716 z M 7.556639,0.736329 c -0.871667,0 -1.643667,0.611334 -1.814333,1.488334 l -0.05,0.253333 c -0.116667,0.6 -0.765667,0.993667 -1.398334,0.777333 L 4.047306,3.171999 c -0.825,-0.283333 -1.747,0.04667 -2.195333,0.810667 L 1.408639,4.740333 c -0.452333,0.771333 -0.28,1.748 0.394667,2.322333 l 0.196667,0.166667 c 0.480333,0.408666 0.480333,1.130333 0,1.539 L 1.803306,8.934999 c -0.675,0.574334 -0.847,1.551 -0.394667,2.322333 l 0.443334,0.757667 c 0.448333,0.764 1.370333,1.092667 2.195333,0.810667 l 0.246666,-0.08333 c 0.632667,-0.216666 1.281667,0.176667 1.398334,0.777334 l 0.05,0.253333 c 0.17,0.877 0.943,1.488333 1.814333,1.488333 h 0.781333 c -0.916333,-0.08667 -1.592,-0.901 -1.549,-1.822333 0.0014,-0.173333 0.01137,-0.341 0.02537,-0.509667 -0.423,-1.166333 -1.721667,-1.793 -2.916,-1.384666 L 3.651676,11.628 c -0.286667,0.09667 -0.591,-0.02187 -0.730334,-0.26 L 2.478009,10.612 c -0.136667,-0.23 -0.09,-0.526667 0.126667,-0.709 L 2.801342,9.736334 c 1.074,-0.913667 1.074,-2.563 0,-3.476567 L 2.604673,6.093099 c -0.213334,-0.183333 -0.26,-0.478333 -0.126667,-0.709 l 0.443333,-0.756 c 0.14,-0.236667 0.445,-0.357333 0.730334,-0.26 l 0.246666,0.08333 c 1.308333,0.447333 2.748,-0.344667 3.017667,-1.730333 l 0.05,-0.253334 c 0.05,-0.26 0.29,-0.470666 0.593666,-0.470666 h 0.886667 c 0.303333,0 0.543333,0.21 0.593667,0.470666 l 0.05,0.253334 c 0.27,1.386 1.707333,2.177666 3.015666,1.730333 l 0.246667,-0.08333 c 0.286667,-0.09667 0.591,0.02187 0.730333,0.26 l 0.443334,0.756 c 0.136666,0.23 0.09,0.526667 -0.126667,0.709 l -0.196667,0.166667 c -0.18,0.153333 -0.326666,0.33 -0.447333,0.517666 0.573667,-0.13 1.022667,0.0097 1.552667,0.183334 0.583333,-0.583 0.712333,-1.494667 0.286666,-2.222667 L 14.151339,3.980432 c -0.448333,-0.764 -1.370333,-1.092666 -2.195333,-0.810666 l -0.246667,0.08333 C 11.076672,3.469762 10.427672,3.076429 10.311006,2.475762 l -0.05,-0.253333 c -0.17,-0.877 -0.942667,-1.488333 -1.814334,-1.488333 z m 0.443333,4.738267 c -1.374666,0 -2.488333,1.130333 -2.488333,2.525333 0,1.221667 0.853333,2.24 1.988333,2.474667 0.223334,-0.447333 0.494334,-0.867333 0.806667,-1.252 -0.740333,0.19 -1.550667,-0.353333 -1.550667,-1.222667 0,-0.697666 0.557,-1.263666 1.244,-1.263666 0.859334,0 1.39,0.827 1.205,1.572333 0.377334,-0.316667 0.789334,-0.595 1.230334,-0.824333 -0.233334,-1.148 -1.235,-2.009667 -2.435667,-2.009667 z" /></g></svg>
