<?xml version="1.0" encoding="UTF-8" standalone="no"?>
<!-- Created with Inkscape (http://www.inkscape.org/) -->

<svg
   width="16"
   height="16"
   viewBox="0 0 16 16"
   version="1.1"
   id="svg1"
   xml:space="preserve"
   xmlns="http://www.w3.org/2000/svg"
   xmlns:svg="http://www.w3.org/2000/svg"><defs
     id="defs1" /><g
     id="layer1"><path
       id="path178"
       style="color:#000000;fill:#fc7f7f;fill-opacity:1;stroke:none;stroke-width:8.37714;stroke-linecap:round;stroke-linejoin:round;stroke-dasharray:none;stroke-opacity:1;-inkscape-stroke:none"
       d="M 12.529067,0.95394447 4.0190178,11.749191 c -0.3664972,0.464957 -0.5497457,0.69738 -0.5513982,0.893386 -0.00145,0.170391 0.072396,0.332207 0.200406,0.438897 0.1472062,0.122838 0.4365969,0.122838 1.0153674,0.122838 h 6.772664 L 10.383048,21 18.892979,10.204754 c 0.36654,-0.4649575 0.54981,-0.6973804 0.551419,-0.8933862 0.0015,-0.1703915 -0.07232,-0.3322077 -0.20033,-0.4388973 C 19.096851,8.7496327 18.80746,8.7496327 18.228679,8.7496327 H 11.456057 Z M -0.51039569,-18.798157 c -2.45262721,0 -4.62521741,1.749414 -5.10560331,4.259338 l -0.1373951,0.726659 c -0.3286942,1.717506 -2.154694,2.843771 -3.9349968,2.224693 l -0.6979671,-0.240356 c -2.321229,-0.807057 -4.916028,0.133167 -6.177286,2.3197182 l -1.247548,2.1687967 c -1.273165,2.2071684 -0.789328,5.0025518 1.110153,6.64613199 l 0.555076,0.48071281 c 1.352055,1.17001045 1.352055,3.2346617 0,4.4046693 l -0.555076,0.4807128 c -1.899481,1.6436345 -2.383318,4.4389453 -1.110153,6.6461332 l 1.247548,2.168795 c 1.261224,2.186471 3.85609,3.126796 6.177286,2.319719 l 0.6979671,-0.240344 c 1.7802831,-0.619004 3.6062857,0.507255 3.9349968,2.224691 l 0.1373948,0.726661 c 0.4804028,2.509927 2.6529564,4.259337 5.10560333,4.259337 H 1.9846999 c 1.4964028,0 2.8854355,-0.655161 3.8525596,-1.732802 -0.012409,-1.095216 0.2191963,-2.182329 0.3682298,-3.264374 -0.8467808,0.03034 -1.6935416,-0.01631 -2.5390727,-0.02805 l -0.011002,0.0615 C 3.5134355,18.556077 2.8399644,19.16137 1.9847004,19.16137 h -2.49509589 c -0.85509231,0 -1.52873511,-0.605287 -1.67072491,-1.347113 l -0.1373951,-0.721069 c -0.7591118,-3.966194 -4.8042571,-6.23244 -8.4855235,-4.952459 l -0.697968,0.240344 c -0.803565,0.279429 -1.662691,-0.06252 -2.055431,-0.743415 l -1.247548,-2.1632083 c -0.380801,-0.6601585 -0.251221,-1.5073289 0.351732,-2.0290536 l 0.555076,-0.4807128 c 3.021813,-2.6147792 3.02183,-7.33487186 0,-9.949634 l -0.555076,-0.4807128 c -0.602961,-0.5218328 -0.732533,-1.3689483 -0.351732,-2.0290547 l 1.247548,-2.163207 c 0.392757,-0.6808922 1.251846,-1.0228707 2.055431,-0.7434277 l 0.692472,0.2403564 c 3.6813398,1.280269 7.7319274,-0.9862084 8.4910195,-4.9524585 l 0.1373951,-0.721069 c 0.1419898,-0.741977 0.8156326,-1.347113 1.67072491,-1.347113 H 1.9847002 c 0.855264,0 1.5287351,0.605308 1.6707249,1.347113 l 0.1373948,0.721069 c 0.7589742,3.9664304 4.8041173,6.2325443 8.4855231,4.9524585 l 0.697967,-0.2403552 c 0.80362,-0.2794377 1.662728,0.062536 2.055432,0.7434276 l 1.24755,2.1632071 c 0.532921,1.4438081 -0.358226,1.7591939 -1.11565,2.7109958 1.062479,0.750138 1.755852,1.91669121 1.907046,3.20847767 0.259381,-0.4753304 0.737567,-0.74643296 1.104656,-1.11793644 1.899444,-1.64358023 2.383333,-4.43896363 1.110152,-6.64613203 L 18.03795,-9.5081048 C 16.776671,-11.694668 14.181874,-12.63488 11.860663,-11.827823 l -0.697968,0.240355 c -1.7803863,0.619079 -3.6063683,-0.507186 -3.9349953,-2.224692 l -0.1373976,-0.726659 c -0.4804203,-2.510108 -2.6527327,-4.259338 -5.1056019,-4.259338 z m 1.24754794,13.5605694 c -3.86767565,0 -7.00165645,3.2344587 -7.00165615,7.2274589 0,3.8068795 2.851441,6.9170766 6.46856307,7.1995107 C 2.6288189,6.1264642 5.0448185,3.0562592 7.4640183,-0.01123503 6.6237119,-3.030271 3.9325485,-5.2375876 0.73715225,-5.2375876 Z m 0,3.6109345 c 1.93393635,0 3.50082805,1.61993561 3.50082805,3.6165244 0,1.9965917 -1.5668917,3.6165245 -3.50082805,3.6165245 -1.93375905,0 -3.50082805,-1.6199328 -3.50082805,-3.6165245 0,-1.99658879 1.567069,-3.6165244 3.50082805,-3.6165244 z"
       transform="matrix(0.35538466,0,0,0.34941611,7.7380274,7.3047069)" /></g></svg>
