<?xml version="1.0" encoding="UTF-8" standalone="no"?>
<!-- Created with Inkscape (http://www.inkscape.org/) -->

<svg
   width="16"
   height="16"
   viewBox="0 0 16 16"
   version="1.1"
   id="svg1"
   xml:space="preserve"
   inkscape:version="1.3.2 (091e20ef0f, 2023-11-25)"
   sodipodi:docname="sheet.svg"
   inkscape:export-filename="../GitHub/gd-cinder-icon/2d/Hurtbox2D.svg"
   inkscape:export-xdpi="96"
   inkscape:export-ydpi="96"
   xmlns:inkscape="http://www.inkscape.org/namespaces/inkscape"
   xmlns:sodipodi="http://sodipodi.sourceforge.net/DTD/sodipodi-0.dtd"
   xmlns="http://www.w3.org/2000/svg"
   xmlns:svg="http://www.w3.org/2000/svg"><sodipodi:namedview
     id="namedview1"
     pagecolor="#ffffff"
     bordercolor="#000000"
     borderopacity="0.25"
     inkscape:showpageshadow="2"
     inkscape:pageopacity="0.0"
     inkscape:pagecheckerboard="0"
     inkscape:deskcolor="#414141"
     inkscape:document-units="px"
     showgrid="true"
     inkscape:zoom="1.9329203"
     inkscape:cx="-106.31582"
     inkscape:cy="46.561671"
     inkscape:window-width="1920"
     inkscape:window-height="1014"
     inkscape:window-x="1920"
     inkscape:window-y="0"
     inkscape:window-maximized="1"
     inkscape:current-layer="layer1"
     showguides="true"><inkscape:grid
       id="grid2"
       units="px"
       originx="0"
       originy="0"
       spacingx="1"
       spacingy="1"
       empcolor="#0099e5"
       empopacity="0.30196078"
       color="#0099e5"
       opacity="0.14901961"
       empspacing="8"
       dotted="false"
       gridanglex="30"
       gridanglez="30"
       visible="true" /></sodipodi:namedview><defs
     id="defs1" /><g
     inkscape:label="Layer 1"
     inkscape:groupmode="layer"
     id="layer1"><path
       d="M 8.048599,1.000135 C 4.206018,0.983235 1.026206,2.55556 1.000003,6.436829 c -8.52e-4,2.007573 0.209711,3.940967 1.711054,5.256525 v 1.051393 c 0.0058,1.263547 1.675482,2.259155 2.926432,2.255242 h 4.724999 c 1.250683,0.0034 3.075453,-0.94266 3.08201,-2.205929 v -1.051393 c 1.501518,-1.31572 1.556527,-3.29801 1.555489,-5.305838 C 14.973737,2.55556 11.89119,0.98328 8.048599,1.000135 Z m 4.258397,9.856595 c -0.167618,0.134144 -0.265339,0.338322 -0.265304,0.55433 v 1.383 c -0.0058,0.481332 -1.055205,0.942243 -1.53177,0.939487 h -0.473043 v -1.890955 c 0,-0.94274 -1.166681,-0.94274 -1.166681,0 v 1.890955 H 7.129791 v -1.890955 c 0,-0.94274 -1.166681,-0.94274 -1.166681,0 v 1.890955 H 5.700606 c -0.47765,0.0046 -1.583407,-0.505651 -1.589555,-0.988094 v -1.383 C 4.111774,11.146919 4.015151,10.942821 3.848547,10.808111 2.524353,9.762113 2.401396,8.134812 2.399996,6.436829 c 0,-3.123977 2.555813,-4.101063 5.648603,-4.101063 3.092788,0 5.551382,0.977086 5.551382,4.101063 -0.0012,1.697983 0.03116,3.373892 -1.292985,4.419901 z M 7.066626,7.963881 c 0,1.259923 -1.507981,1.890678 -2.389887,0.999879 C 3.794833,8.072962 4.419276,6.549765 5.666633,6.549765 c 0.773194,0 1.399993,0.633127 1.399993,1.414116 z m 4.661813,0 c 0,1.259923 -1.507994,1.890678 -2.3899,0.999879 -0.881905,-0.890798 -0.257451,-2.413995 0.989894,-2.413995 0.773206,0 1.400006,0.633127 1.400006,1.414116 z"
       id="path1-0"
       sodipodi:nodetypes="cccccccccccccccssccssccccccsccssssssss"
       style="fill:#fc7f7f;fill-opacity:1;stroke:#000000;stroke-width:0;stroke-dasharray:none"
       inkscape:label="Hitbox3D" /></g></svg>
