<?xml version="1.0" encoding="UTF-8" standalone="no"?>
<!-- Created with Inkscape (http://www.inkscape.org/) -->

<svg
   width="16"
   height="16"
   viewBox="0 0 16 16"
   version="1.1"
   id="svg1"
   xml:space="preserve"
   xmlns="http://www.w3.org/2000/svg"
   xmlns:svg="http://www.w3.org/2000/svg"><defs
     id="defs1" /><g
     id="layer1"><path
       d="m 8.041662,2.000189 c -3.293605,-0.01456 -6.019125,1.343658 -6.041587,4.69651 -7.21e-4,1.734255 0.179758,3.404417 1.466601,4.540867 v 0.90825 c 0.0053,1.091524 1.436117,1.951584 2.508346,1.948202 h 4.049946 c 1.071997,0.0034 2.636069,-0.814314 2.641689,-1.905599 v -0.90825 c 1.287001,-1.136589 1.334155,-2.849002 1.33326,-4.58347 -0.02246,-3.352852 -2.66465,-4.711068 -5.958255,-4.69651 z m 3.650008,8.514656 c -0.143674,0.11588 -0.227432,0.292261 -0.227397,0.478862 v 1.194712 C 11.458973,12.604223 10.559819,13.002384 10.15134,13 H 9.745884 v -1.633506 c 0,-0.814391 -1,-0.814391 -1,0 V 13 H 7.254117 v -1.633506 c 0,-0.814391 -1,-0.814391 -1,0 V 13 H 6.029119 C 5.619708,13.0037 4.671931,12.563191 4.66666,12.146427 V 10.951715 C 4.66728,10.765527 4.58444,10.58922 4.441663,10.472853 3.30665,9.569263 3.20126,8.163507 3.200059,6.696699 c 0,-2.698658 2.190671,-3.542719 4.841603,-3.542719 2.650932,0 4.758271,0.844061 4.758271,3.542719 -0.0012,1.466808 0.02675,2.914556 -1.108263,3.818146 z M 7.199984,8.01585 c 0,1.088393 -1.292549,1.633265 -2.048458,0.863748 C 4.395617,8.110081 4.930854,6.794262 6,6.794262 c 0.662733,0 1.199984,0.546924 1.199984,1.221588 z m 3.995786,0 c 0,1.088393 -1.29255,1.633265 -2.048458,0.863748 C 8.391403,8.110081 8.92664,6.794262 9.995785,6.794262 c 0.662734,0 1.199985,0.546924 1.199985,1.221588 z"
       id="path1-0"
       style="fill:#fc7f7f;fill-opacity:1;stroke:#000000;stroke-width:0;stroke-dasharray:none" /></g></svg>
