<?xml version="1.0" encoding="UTF-8" standalone="no"?>
<!-- Created with Inkscape (http://www.inkscape.org/) -->

<svg
   width="16"
   height="16"
   viewBox="0 0 16 16"
   version="1.1"
   id="svg1"
   xml:space="preserve"
   xmlns="http://www.w3.org/2000/svg"
   xmlns:svg="http://www.w3.org/2000/svg"><defs
     id="defs1" /><g
     id="layer1"><path
       fill-rule="evenodd"
       clip-rule="evenodd"
       d="m 6.504763,2.221779 c 0,-0.295682 -0.239692,-0.535374 -0.535374,-0.535374 -0.295676,0 -0.535373,0.239692 -0.535373,0.535374 v 0.267687 c 0,0.295676 0.239697,0.535374 0.535373,0.535374 0.295682,0 0.535374,-0.239698 0.535374,-0.535374 z M 3.671089,2.913958 c -0.209079,-0.209074 -0.548057,-0.209074 -0.757136,0 -0.209074,0.20908 -0.209074,0.548057 0,0.757136 l 0.535374,0.535374 c 0.209079,0.209074 0.548056,0.209074 0.757136,0 0.209074,-0.209079 0.209074,-0.548057 0,-0.757136 z m 5.353737,0.757136 c 0.209063,-0.209079 0.209063,-0.548056 0,-0.757136 -0.209064,-0.209074 -0.548062,-0.209074 -0.757126,0 L 7.732327,3.449332 c -0.209064,0.209079 -0.209064,0.548057 0,0.757136 0.209063,0.209074 0.548062,0.209074 0.757125,0 z M 2.221779,5.434021 c -0.295679,0 -0.535374,0.239698 -0.535374,0.535374 0,0.295676 0.239695,0.535374 0.535374,0.535374 h 0.267687 c 0.295676,0 0.535374,-0.239698 0.535374,-0.535374 0,-0.295676 -0.239698,-0.535374 -0.535374,-0.535374 z m 7.495232,0 c -0.295687,0 -0.535374,0.239698 -0.535374,0.535374 0,0.295676 0.239687,0.535374 0.535374,0.535374 h 0.267686 c 0.295687,0 0.535374,-0.239698 0.535374,-0.535374 0,-0.295676 -0.239687,-0.535374 -0.535374,-0.535374 z M 4.206468,8.489453 c 0.209074,-0.209064 0.209074,-0.548062 0,-0.757126 -0.209079,-0.209063 -0.548056,-0.209063 -0.757136,0 L 2.913958,8.267701 c -0.209074,0.209063 -0.209074,0.548062 0,0.757125 0.20908,0.209064 0.548057,0.209064 0.757137,0 z m 2.298301,1.227558 c 0,-0.295687 -0.239698,-0.535374 -0.535374,-0.535374 -0.295676,0 -0.535374,0.239687 -0.535374,0.535374 v 0.267687 c 0,0.295687 0.239698,0.535374 0.535374,0.535374 0.295676,0 0.535374,-0.239687 0.535374,-0.535374 z M 6.726526,4.363263 c -0.418154,-0.418148 -1.096114,-0.418148 -1.514262,0 l -0.84899,0.84899 c -0.418154,0.418154 -0.418154,1.096114 0,1.514267 l 1.227553,1.227559 6.045927,6.045922 c 0.418126,0.418126 1.096124,0.418126 1.51425,0 L 14,13.151005 c 0.418127,-0.41818 0.418127,-1.096124 0,-1.514251 L 7.954078,5.590821 Z m 0,3.212253 0.84899,-0.848996 5.667359,5.66736 -0.848996,0.848995 z"
       fill="#000000"
       id="path180"
       style="fill:#fc7f7f;fill-opacity:1;stroke-width:0.535374" /></g></svg>
