<?xml version="1.0" encoding="UTF-8" standalone="no"?>
<!-- Created with Inkscape (http://www.inkscape.org/) -->

<svg
   width="16"
   height="16"
   viewBox="0 0 16 16"
   version="1.1"
   id="svg1"
   xml:space="preserve"
   xmlns="http://www.w3.org/2000/svg"
   xmlns:svg="http://www.w3.org/2000/svg"><defs
     id="defs1" /><g
     id="layer1"><path
       id="path222"
       style="color:#000000;fill:#fc7f7f;fill-opacity:1;stroke-linecap:round;stroke-linejoin:round;stroke-miterlimit:3.7;-inkscape-stroke:none;paint-order:stroke fill markers"
       d="m 6.886034,4.2460937 a 0.75,0.75 0 0 0 -0.529297,0.21875 0.75,0.75 0 0 0 -0.002,1.0605469 L 8.07744,7.25 H 1.870409 a 0.75,0.75 0 0 0 -0.75,0.75 0.75,0.75 0 0 0 0.75,0.75 h 6.216797 l -1.734375,1.751953 a 0.75,0.75 0 0 0 0.0059,1.060547 0.75,0.75 0 0 0 1.060547,-0.0059 l 2.990234,-3.0194906 a 0.75,0.75 0 0 0 0.0293,-0.039063 0.750075,0.750075 0 0 0 0.18945,-0.4589839 A 0.75,0.75 0 0 0 10.643847,8 0.75,0.75 0 0 0 10.3958,7.4492187 L 7.417284,4.4667969 A 0.75,0.75 0 0 0 6.886034,4.2460937 Z m 3,-2.2463616 c -2,-0.029029 -2,1.9709709 0,1.9533928 3,0.017578 3,1.7179709 3.051126,4.0468751 -0.05113,2.763372 -0.05113,3.970703 -3.051126,4 -2,-0.0293 -2,1.970703 0,1.976562 5,0.02344 5,0.02344 4.993068,-5.976562 -0.0069,-6 0.0069,-6 -4.993068,-6.0002679 z" /></g></svg>
