<?xml version="1.0" encoding="UTF-8" standalone="no"?>
<!-- Created with Inkscape (http://www.inkscape.org/) -->

<svg
   width="16"
   height="16"
   viewBox="0 0 16 16"
   version="1.1"
   id="svg1"
   xml:space="preserve"
   inkscape:version="1.3.2 (091e20ef0f, 2023-11-25)"
   sodipodi:docname="sheet.svg"
   inkscape:export-filename="misc/InputManager.svg"
   inkscape:export-xdpi="96"
   inkscape:export-ydpi="96"
   xmlns:inkscape="http://www.inkscape.org/namespaces/inkscape"
   xmlns:sodipodi="http://sodipodi.sourceforge.net/DTD/sodipodi-0.dtd"
   xmlns="http://www.w3.org/2000/svg"
   xmlns:svg="http://www.w3.org/2000/svg"><sodipodi:namedview
     id="namedview1"
     pagecolor="#ffffff"
     bordercolor="#000000"
     borderopacity="0.25"
     inkscape:showpageshadow="2"
     inkscape:pageopacity="0.0"
     inkscape:pagecheckerboard="0"
     inkscape:deskcolor="#414141"
     inkscape:document-units="px"
     showgrid="false"
     inkscape:zoom="3.8658406"
     inkscape:cx="-144.21184"
     inkscape:cy="19.142021"
     inkscape:window-width="1920"
     inkscape:window-height="1014"
     inkscape:window-x="1920"
     inkscape:window-y="0"
     inkscape:window-maximized="1"
     inkscape:current-layer="layer1"
     showguides="true"><inkscape:grid
       id="grid2"
       units="px"
       originx="0"
       originy="0"
       spacingx="1"
       spacingy="1"
       empcolor="#0099e5"
       empopacity="0.30196078"
       color="#0099e5"
       opacity="0.14901961"
       empspacing="8"
       dotted="false"
       gridanglex="30"
       gridanglez="30"
       visible="false" /></sodipodi:namedview><defs
     id="defs1"><filter
       style="color-interpolation-filters:sRGB;"
       inkscape:label="Invert"
       id="filter2"
       x="0"
       y="0"
       width="1"
       height="1"><feColorMatrix
         id="feColorMatrix12"
         values="0 0 1 0 0 0 1 0 0 0 1 0 0 0 0 -0.20999999999999999 -0.71999999999999997 -0.070000000000000007 2 0"
         result="fbSourceGraphic"
         in="fbSourceGraphic" /></filter></defs><g
     inkscape:label="Layer 1"
     inkscape:groupmode="layer"
     id="layer1"><circle
       cx="-52"
       cy="-72"
       r="5"
       fill="none"
       stroke-width="2"
       stroke="#fc7f7f"
       id="circle1-6"
       inkscape:label="Node3D" /><circle
       cx="-72"
       cy="-72"
       r="5"
       fill="none"
       stroke-width="2"
       stroke="#8da5f3"
       id="circle1"
       inkscape:label="Node2D" /><circle
       cx="-92"
       cy="-72"
       r="5"
       fill="none"
       stroke-width="2"
       stroke="#e0e0e0"
       id="circle1-2"
       inkscape:label="Node" /><g
       id="g165"
       style="fill:#e0e0e0;fill-opacity:1"
       transform="translate(-360,-120)"
       inkscape:label="DynamicTweenJob"><path
         id="path162"
         style="fill:#c38ef1;fill-opacity:1;filter:url(#filter2)"
         inkscape:label="DynamicTween"
         d="M 1,1 V 5 H 5 V 1 Z m 6,0 v 2 h 4 L 3,11 V 7 H 1 v 8 H 9 C 8.836827,14.999232 7.8975211,14.139875 8.109375,13.162109 8.1223388,13.102278 8.1381234,13.050013 8.1542969,13 H 5 l 8,-8 v 2.9179688 c 0.07772,0.051018 0.145869,0.1041908 0.199219,0.1542968 0.19087,0.1792638 0.280262,0.3323772 0.351562,0.46875 C 13.636495,8.7050383 13.690792,8.8530046 13.734375,9 H 15 V 1 Z"
         sodipodi:nodetypes="cccccccccccccsccccsccccc"
         transform="translate(220,60)" /><path
         style="color:#000000;fill:#e0e0e0;fill-opacity:1;-inkscape-stroke:none"
         d="m 232.20312,69 c -0.23493,6.19e-4 -0.44185,0.878079 -0.50976,2.160156 -2.76163,-1.353609 -3.13022,-0.75227 -0.51563,0.841797 -2.61459,1.594068 -2.246,2.195408 0.51563,0.841797 0.15311,2.873964 0.86642,2.873964 1.01953,0 2.76163,1.353611 3.13022,0.752271 0.51563,-0.841797 2.61459,-1.594067 2.246,-2.195406 -0.51563,-0.841797 C 232.64499,69.878079 232.43806,69.000619 232.20312,69 Z"
         id="path164"
         inkscape:label="Star" /></g><path
       id="path1"
       style="fill:#c38ef1;fill-opacity:1;filter:url(#filter2)"
       inkscape:label="DynamicTween"
       d="m -139,-79 v 4 h 4 v -4 z m 6,0 v 2 h 4 l -8,8 v -4 h -2 v 8 h 8 v -2 h -4 l 8,-8 v 4 h 2 v -8 z m 4,10 v 4 h 4 v -4 z" /><path
       id="rect40"
       style="fill:#fc7f7f;fill-opacity:1;stroke-width:1.41422"
       d="M -55.33398,-59 C -56.81131,-59 -58,-57.81131 -58,-56.33398 v 2.66796 c 0,1.47733 1.18869,2.66602 2.66602,2.66602 h 6.66796 C -47.18869,-51 -46,-52.18869 -46,-53.66602 v -2.66796 C -46,-57.81131 -47.18869,-59 -48.66602,-59 Z M -56,-57 h 2 v 4 h -2 z m 6,0 h 2 v 4 h -2 z m -4,7 c -0.554,0 -1,0.446 -1,1 v 3 c 0,0.554 0.446,1 1,1 h 4 c 0.554,0 1,-0.446 1,-1 v -3 c 0,-0.554 -0.446,-1 -1,-1 z"
       inkscape:label="Entity3D"
       sodipodi:nodetypes="sssssssssccccccccccsssssssss" /><path
       id="path49"
       style="fill:#8da5f3;fill-opacity:1;stroke-width:1.41422"
       d="M -75.33398,-59 C -76.81131,-59 -78,-57.81131 -78,-56.33398 v 2.66796 c 0,1.47733 1.18869,2.66602 2.66602,2.66602 h 6.66796 C -67.18869,-51 -66,-52.18869 -66,-53.66602 v -2.66796 C -66,-57.81131 -67.18869,-59 -68.66602,-59 Z M -76,-57 h 2 v 4 h -2 z m 6,0 h 2 v 4 h -2 z m -4,7 c -0.554,0 -1,0.446 -1,1 v 3 c 0,0.554 0.446,1 1,1 h 4 c 0.554,0 1,-0.446 1,-1 v -3 c 0,-0.554 -0.446,-1 -1,-1 z"
       inkscape:label="Entity2D"
       sodipodi:nodetypes="sssssssssccccccccccsssssssss" /><path
       id="path49-7"
       style="fill:#e0e0e0;fill-opacity:1;stroke-width:1.41422"
       inkscape:label="EntityUtilities"
       d="M -95.33398,-59 C -96.81131,-59 -98,-57.811313 -98,-56.333984 v 2.667968 C -98,-52.188687 -96.81131,-51 -95.33398,-51 h 6.66796 C -87.18869,-51 -86,-52.188687 -86,-53.666016 v -2.667968 C -86,-57.811313 -87.18869,-59 -88.66602,-59 Z M -93,-57.966797 h 2 v 1.933594 h 2 v 2 h -2 v 2 h -2 v -2 h -2 v -2 h 2 z M -94,-50 c -0.554,0 -1,0.446001 -1,1 v 3 c 0,0.553999 0.446,1 1,1 h 4 c 0.554,0 1,-0.446001 1,-1 v -3 c 0,-0.553999 -0.446,-1 -1,-1 z" /><path
       d="m -71.95834,-17.99981 c -3.2936,-0.0146 -6.01912,1.34366 -6.04158,4.69651 -7.3e-4,1.73425 0.17975,3.40442 1.4666,4.54087 v 0.90825 c 0.005,1.09152 1.43611,1.95158 2.50834,1.9482 h 4.04995 c 1.072,0.003 2.63607,-0.81432 2.64169,-1.9056 v -0.90825 c 1.287,-1.13659 1.33415,-2.849 1.33326,-4.58347 -0.0225,-3.35285 -2.66465,-4.71107 -5.95826,-4.69651 z m 3.65001,8.51466 c -0.14367,0.11588 -0.22743,0.29226 -0.2274,0.47886 v 1.19471 c -0.005,0.4158 -0.90445,0.81396 -1.31293,0.81158 h -0.40546 v -1.63351 c 0,-0.81439 -1,-0.81439 -1,0 V -7 h -1.49176 v -1.63351 c 0,-0.81439 -1,-0.81439 -1,0 V -7 h -0.225 c -0.40941,0.004 -1.35719,-0.43681 -1.36246,-0.85357 v -1.19471 c 6.2e-4,-0.18619 -0.0822,-0.3625 -0.225,-0.47887 -1.13501,-0.90359 -1.2404,-2.30934 -1.2416,-3.77615 0,-2.69866 2.19067,-3.54272 4.8416,-3.54272 2.65093,0 4.75827,0.84406 4.75827,3.54272 -0.001,1.46681 0.0267,2.91455 -1.10826,3.81815 z m -4.49169,-2.499 c 0,1.08839 -1.29254,1.63326 -2.04845,0.86375 -0.75591,-0.76952 -0.22068,-2.08534 0.84847,-2.08534 0.66273,0 1.19998,0.54693 1.19998,1.22159 z m 3.99579,0 c 0,1.08839 -1.29255,1.63326 -2.04846,0.86375 -0.75591,-0.76952 -0.22067,-2.08534 0.84847,-2.08534 0.66274,0 1.19999,0.54693 1.19999,1.22159 z"
       id="path62"
       sodipodi:nodetypes="cccccccccccccccssccssccccccsccssssssss"
       style="fill:#8da5f3;fill-opacity:1;stroke:#000000;stroke-width:0;stroke-dasharray:none"
       inkscape:label="Hurtbox2D" /><path
       d="m -51.95834,-17.99981 c -3.2936,-0.0146 -6.01912,1.34366 -6.04158,4.69651 -7.3e-4,1.73425 0.17975,3.40442 1.4666,4.54087 v 0.90825 c 0.005,1.09152 1.43611,1.95158 2.50834,1.9482 h 4.04995 c 1.072,0.003 2.63607,-0.81432 2.64169,-1.9056 v -0.90825 c 1.287,-1.13659 1.33415,-2.849 1.33326,-4.58347 -0.0225,-3.35285 -2.66465,-4.71107 -5.95826,-4.69651 z m 3.65001,8.51466 c -0.14367,0.11588 -0.22743,0.29226 -0.2274,0.47886 v 1.19471 c -0.005,0.4158 -0.90445,0.81396 -1.31293,0.81158 h -0.40546 v -1.63351 c 0,-0.81439 -1,-0.81439 -1,0 V -7 h -1.49176 v -1.63351 c 0,-0.81439 -1,-0.81439 -1,0 V -7 h -0.225 c -0.40941,0.004 -1.35719,-0.43681 -1.36246,-0.85357 v -1.19471 c 6.2e-4,-0.18619 -0.0822,-0.3625 -0.225,-0.47887 -1.13501,-0.90359 -1.2404,-2.30934 -1.2416,-3.77615 0,-2.69866 2.19067,-3.54272 4.8416,-3.54272 2.65093,0 4.75827,0.84406 4.75827,3.54272 -0.001,1.46681 0.0267,2.91455 -1.10826,3.81815 z m -4.49169,-2.499 c 0,1.08839 -1.29254,1.63327 -2.04845,0.86375 -0.75591,-0.76952 -0.22068,-2.08534 0.84847,-2.08534 0.66273,0 1.19998,0.54693 1.19998,1.22159 z m 3.99579,0 c 0,1.08839 -1.29255,1.63327 -2.04846,0.86375 -0.75591,-0.76952 -0.22067,-2.08534 0.84847,-2.08534 0.66274,0 1.19999,0.54693 1.19999,1.22159 z"
       id="path1-0"
       sodipodi:nodetypes="cccccccccccccccssccssccccccsccssssssss"
       style="fill:#fc7f7f;fill-opacity:1;stroke:#000000;stroke-width:0;stroke-dasharray:none"
       inkscape:label="Hurtbox3D" /><path
       fill-rule="evenodd"
       clip-rule="evenodd"
       d="M -72.00363,-35.77458 C -73,-37 -75.07486,-37.31455 -76,-36.4974 c -1.32573,1.17096 -1.39326,3.26009 -0.4065,4.73249 0.82042,1.22416 3.30329,3.8061 4.11705,4.64179 0.091,0.0935 0.13654,0.14023 0.18966,0.15857 0.0463,0.016 0.097,0.016 0.1434,0 0.0531,-0.0183 0.0986,-0.0651 0.18966,-0.15857 0.81375,-0.83569 3.29659,-3.41763 4.11704,-4.64179 0.98675,-1.4724 0.94278,-3.70726 -0.4467,-4.79879 C -69.03649,-37.3022 -71,-37 -72.00363,-35.77458 Z"
       stroke="#000000"
       stroke-width="2"
       stroke-linecap="round"
       stroke-linejoin="round"
       id="path60"
       sodipodi:nodetypes="csccccccsc"
       style="fill:none;stroke:#8da5f3;stroke-width:1.904;stroke-linecap:round;stroke-linejoin:miter;stroke-dasharray:none;stroke-opacity:1"
       inkscape:label="Hitbox2D" /><path
       fill-rule="evenodd"
       clip-rule="evenodd"
       d="M -52.00363,-35.77458 C -53,-37 -55.07486,-37.31455 -56,-36.4974 c -1.32573,1.17096 -1.39326,3.26009 -0.4065,4.73249 0.82042,1.22416 3.30329,3.8061 4.11705,4.64179 0.091,0.0935 0.13654,0.14023 0.18966,0.15857 0.0463,0.016 0.097,0.016 0.1434,0 0.0531,-0.0183 0.0986,-0.0651 0.18966,-0.15857 0.81375,-0.83569 3.29659,-3.41763 4.11704,-4.64179 0.98675,-1.4724 0.94278,-3.70726 -0.4467,-4.79879 C -49.03649,-37.3022 -51,-37 -52.00363,-35.77458 Z"
       stroke="#000000"
       stroke-width="2"
       stroke-linecap="round"
       stroke-linejoin="round"
       id="path1-5"
       sodipodi:nodetypes="csccccccsc"
       style="fill:none;stroke:#fc7f7f;stroke-width:1.90444;stroke-linecap:round;stroke-linejoin:miter;stroke-dasharray:none;stroke-opacity:1"
       inkscape:label="Hitbox3D" /><path
       id="rect66"
       style="opacity:1;fill:none;stroke:#e0e0e0;stroke-width:2.003;stroke-linecap:round;stroke-linejoin:round;stroke-miterlimit:3.7;paint-order:stroke fill markers"
       inkscape:label="State"
       d="m -235.63126,23 h 7.26252 c 0.75828,0 1.36874,0.6579 1.36874,1.47511 v 7.04978 C -227,32.3421 -227.61046,33 -228.36874,33 h -7.26252 C -236.38954,33 -237,32.3421 -237,31.52489 V 24.47511 C -237,23.6579 -236.38954,23 -235.63126,23 Z" /><path
       fill="none"
       stroke="#000000"
       stroke-width="1.63405"
       d="m -237.51247,6.51329 10.99827,0.002 0.011,-4.03938 -11.00932,0.0312 z m 0.0211,6.99527 h 3.99369 V 9.50234 h -3.99369 z m 6.98896,0 h 3.99369 V 9.50234 h -3.99369 z m -4.99212,-4.00622 0.004,-2.98871 z m 2.49606,2.00311 h 1.99685 z m 4.48422,-4.99064 0.009,2.98753 z"
       id="path1-32"
       sodipodi:nodetypes="cccccccccccccccccccccccc"
       style="fill:none;stroke:#e0e0e0;stroke-width:1;stroke-linecap:round;stroke-linejoin:round;stroke-miterlimit:4;stroke-dasharray:none;stroke-opacity:1;paint-order:stroke fill markers"
       inkscape:label="StateMachine" /><path
       d="m -228.07067,-33.33803 v 3.73605 c 0,0.97738 0,1.46608 -0.18551,1.83936 -0.16318,0.32837 -0.42356,0.59532 -0.74382,0.76262 -0.36408,0.19022 -0.80181,0.0926 -1.75504,0.0926 h -2.49631 c -0.95326,0 -1.38453,0.0976 -1.74865,-0.0926 -0.32027,-0.1673 -0.58062,-0.43425 -0.74379,-0.76262 -0.18552,-0.37328 -0.1797,-0.86199 -0.18552,-1.83936 l -0.0207,-3.46991 m -1.15931,0.9291 3.08249,-3.5112 c 0.70107,-0.79855 1.05157,-1.19782 1.46443,-1.34523 0.36253,-0.12946 0.75718,-0.12944 1.11977,9e-5 0.4128,0.14746 0.76324,0.54679 1.46418,1.34545 l 3.08133,3.51089"
       stroke="#000000"
       stroke-width="2"
       stroke-linecap="round"
       stroke-linejoin="round"
       id="path1-9"
       style="fill:none;stroke:#e0e0e0;stroke-width:1.396;stroke-linecap:round;stroke-linejoin:miter;stroke-dasharray:none;stroke-opacity:1"
       sodipodi:nodetypes="csccssccsccccccc"
       inkscape:label="Subarea" /><g
       id="g128"
       inkscape:label="LevelData"
       transform="translate(-220,-60)"><path
         style="fill:#f18ec3;fill-opacity:1;stroke-width:1.659;stroke-dasharray:none"
         d="m 12.20312,9 c -0.23493,6.19e-4 -0.44185,0.878079 -0.50976,2.160156 -2.76163,-1.353609 -3.13022,-0.75227 -0.51563,0.841797 -2.61459,1.594068 -2.246,2.195408 0.51563,0.841797 0.15311,2.873964 0.86642,2.873964 1.01953,0 2.76163,1.353611 3.13022,0.752271 0.51563,-0.841797 2.61459,-1.594067 2.246,-2.195406 -0.51563,-0.841797 C 12.64499,9.878079 12.43806,9.000619 12.20312,9 Z"
         id="path128"
         inkscape:label="Star" /><path
         id="path124"
         style="fill:#e0e0e0;fill-opacity:1;stroke-width:1.659;stroke-dasharray:none"
         d="M 4.30859,2 C 4.05373,2 3.8457,2.179511 3.8457,2.400391 v 2 c 0,0.441839 0.41401,0.798828 0.92383,0.798828 h 6.46094 c 0.50981,0 0.92383,-0.356989 0.92383,-0.798828 v -2 C 12.1543,2.179511 11.94627,2 11.69141,2 11.43655,2 11.23047,2.179511 11.23047,2.400391 V 3.599609 H 10.30859 V 2.800781 C 10.30859,2.358942 9.89459,2 9.38477,2 8.87496,2 8.46094,2.358942 8.46094,2.800781 V 3.599609 H 7.53906 V 2.800781 C 7.53906,2.358942 7.12504,2 6.61523,2 6.10542,2 5.69141,2.358942 5.69141,2.800781 V 3.599609 H 4.76953 V 2.400391 C 4.76953,2.179511 4.56345,2 4.30859,2 Z M 5.69141,6 C 5.1816,6 4.76953,6.358942 4.76953,6.800781 c 0,0.799999 -0.92383,5.59961 -0.92383,5.59961 0,0.441838 -0.41205,0.798828 -0.92187,0.798828 H 2.46094 C 2.20608,13.199219 2,13.378731 2,13.599609 2,13.820489 2.23358,14 2.48844,14 h 5.71093 c 0.0537,0 0.0266,-0.800781 -0.0123,-0.800781 h -1.5718 v -2.798828 c 0,-0.662719 0.62015,-1.192035 1.38477,-1.201172 1.13598,-0.01357 1.50249,0.01836 2.5918,0.07031 0.0582,-0.244048 0.11915,-0.467185 0.25781,-0.732422 0.0715,-0.136838 0.15979,-0.290631 0.35156,-0.470703 0.0451,-0.04232 0.0994,-0.08723 0.16211,-0.13086 C 11.28412,7.413273 11.23051,6.990499 11.23051,6.800779 11.23047,6.358942 10.8184,6 10.30859,6 Z"
         inkscape:label="LevelIcon" /></g><path
       d="m -228.76921,-54.8 h -6.4615 c -0.50982,0 -0.92307,-0.35816 -0.92307,-0.8 v -2 c 0,-0.22088 0.20667,-0.4 0.46153,-0.4 0.25486,0 0.46154,0.17912 0.46154,0.4 v 1.2 h 0.92307 v -0.8 c 0,-0.44184 0.41326,-0.8 0.92307,-0.8 0.50981,0 0.92307,0.35816 0.92307,0.8 v 0.8 h 0.92307 v -0.8 c 0,-0.44184 0.41326,-0.8 0.92307,-0.8 0.50982,0 0.92307,0.35816 0.92307,0.8 v 0.8 h 0.92308 v -1.2 c 0,-0.22088 0.20667,-0.4 0.46153,-0.4 0.25486,0 0.46154,0.17912 0.46154,0.4 v 2 c 0,0.44184 -0.41326,0.8 -0.92307,0.8 z M -226,-46.4 c 0,0.22088 -0.20668,0.4 -0.46153,0.4 h -11.07686 c -0.25486,0 -0.46154,-0.17912 -0.46154,-0.4 0,-0.22088 0.20668,-0.4 0.46154,-0.4 h 0.46153 c 0.50982,0 0.92308,-0.35816 0.92308,-0.8 0,0 0.92307,-4.8 0.92307,-5.6 0,-0.44184 0.41326,-0.8 0.92307,-0.8 h 4.61536 c 0.50981,0 0.92307,0.35816 0.92307,0.8 0,0.8 0.92307,5.6 0.92307,5.6 0,0.44184 0.41326,0.8 0.92307,0.8 h 0.46153 c 0.25136,-8e-5 0.45656,0.17424 0.46154,0.392 z m -4.61536,-3.2 c 0,-0.66272 -0.61993,-1.2 -1.3846,-1.2 -0.76468,0 -1.38461,0.53728 -1.38461,1.2 v 2.8 h 2.76921 z"
       id="path1-3"
       style="fill:#e0e0e0;fill-opacity:1;stroke-width:1.659;stroke-dasharray:none"
       inkscape:label="Level" /><path
       d="m -237.4043,-71.98906 h 10.78603 m -10.78603,0 c 0,2.986696 2.41454,5.407852 5.39302,5.407852 m -5.39302,-5.407852 c 0,-2.986673 2.41454,-5.407853 5.39302,-5.407853 m 5.39301,5.407853 c 0,2.986696 -2.41451,5.407852 -5.39301,5.407852 m 5.39301,-5.407852 c 0,-2.986673 -2.41451,-5.407853 -5.39301,-5.407853 m 0,10.815705 c -4.34102,-4.75891 -1.80876,-9.193349 0,-10.815705 m 0,10.815705 c 4.34102,-4.75891 1.80876,-9.193349 0,-10.815705"
       stroke="#000000"
       stroke-width="2"
       stroke-linecap="round"
       stroke-linejoin="round"
       id="path1-92"
       style="fill:none;stroke:#e0e0e0;stroke-width:1.5;stroke-dasharray:none;stroke-opacity:1"
       inkscape:label="LevelManager" /><g
       id="g214"
       inkscape:label="EventTree"><path
         id="path204"
         style="opacity:1;fill:#e0e0e0;stroke:#e0e0e0;stroke-width:1.5;stroke-linecap:round;stroke-linejoin:round;stroke-miterlimit:3.7;stroke-dasharray:none;paint-order:stroke fill markers"
         d="m -232.97471,73.280991 h -4.57201 m 4.57201,-3.513754 h -4.57201 m 11.09345,-3.513754 h -11.09345 m 11.09345,-3.513753 h -11.09345" /><path
         style="opacity:1;fill:#f18ec3;fill-opacity:1;stroke:#f18ec3;stroke-width:1.5;stroke-linecap:round;stroke-linejoin:round;stroke-miterlimit:3.7;stroke-dasharray:none;stroke-opacity:1;paint-order:stroke fill markers"
         d="M -226.66397,71.5 A 1.8360294,1.8360294 0 0 1 -228.5,73.336029 1.8360294,1.8360294 0 0 1 -230.33603,71.5 1.8360294,1.8360294 0 0 1 -228.5,69.663971 1.8360294,1.8360294 0 0 1 -226.66397,71.5 Z"
         id="path75" /></g><path
       id="circle85"
       style="fill:#f18ec3;fill-opacity:1;stroke:#f18ec3;stroke-width:2;stroke-opacity:1"
       inkscape:label="Event"
       d="m -227,88 a 5,5 0 0 1 -5,5 5,5 0 0 1 -5,-5 5,5 0 0 1 5,-5 5,5 0 0 1 5,5 z" /><g
       id="g215"
       inkscape:label="EventTalk"><path
         style="opacity:1;fill:#fc7f7f;fill-opacity:0;stroke:#e0e0e0;stroke-width:1;stroke-linecap:round;stroke-linejoin:miter;stroke-miterlimit:3.7;stroke-dasharray:none;stroke-opacity:1;paint-order:stroke fill markers"
         d="m -217.5,82.5 h 11.07758 l -0.0784,7.96792 -3.49914,0.0146 -2,3.3626 -2,-3.31024 -3.5,-0.0669 z"
         id="path201" /><path
         id="path91"
         style="opacity:1;fill:#f18ec3;fill-opacity:1;stroke:#f18ec3;stroke-width:1;stroke-linecap:round;stroke-linejoin:miter;stroke-miterlimit:3.7;stroke-dasharray:none;stroke-opacity:1;paint-order:stroke fill markers"
         d="m -215,84.49013 h 6 m -6.07918,4.00013 H -209 m -6,-2.01949 h 6" /></g><g
       id="g161"
       inkscape:label="EventMusic"
       transform="translate(-220,100)"><path
         style="fill:#f18ec3;fill-opacity:1;stroke-width:0.503999;stroke-dasharray:none"
         d="m 11.95703,10 0.043,3 h 2 v 1 h -2 l -0.0254,1 h 3.01758 l 0.008,-3 h -2 v -1 h 2 v -1 z"
         id="path161" /><path
         style="fill:#f18ec3;fill-opacity:1;stroke-width:0.503999;stroke-dasharray:none"
         d="m 8,10 v 5 h 2.97266 L 11,10 h -1 v 4 H 9 v -4 z"
         id="path160" /><path
         style="fill:#f18ec3;fill-opacity:1;stroke-width:0.503999;stroke-dasharray:none"
         d="m 3,10 0.0234,5 h 0.98242 l 0.0137,-3 0.99024,3 1.00976,-3 -0.006,3 H 7.01938 V 10 H 6.01352 L 5.01938,12 4.00571,10 Z"
         id="path159" /><path
         style="fill:#e0e0e0;fill-opacity:1;stroke-width:0.503999;stroke-dasharray:none"
         d="M 7.58594,3.33789 7.22852,3.69922 c 0.331,0.34555 0.51367,0.79749 0.51367,1.27539 0,0.4779 -0.18267,0.93179 -0.51367,1.27734 L 7.58594,6.61328 C 8.00944,6.17092 8.24219,5.58846 8.24219,4.97461 8.24219,4.36076 8.00944,3.78025 7.58594,3.33789 Z"
         id="path158" /><path
         style="fill:#e0e0e0;fill-opacity:1;stroke-width:0.503999;stroke-dasharray:none"
         d="M 9.35352,2.25977 9,2.625 C 9.61401,3.25739 9.95117,4.09767 9.95117,4.99219 9.95117,5.88618 9.61401,6.72698 9,7.35938 l 0.35352,0.36328 c 0.708,-0.72972 1.09765,-1.69897 1.09765,-2.73047 0,-1.03201 -0.38965,-2.00271 -1.09765,-2.73242 z"
         id="path157" /><path
         style="fill:#e0e0e0;fill-opacity:1;stroke-width:0.503999;stroke-dasharray:none"
         d="M 4.87305,1 3.53516,2.94531 H 1.75 C 1.33649,2.94531 1,3.40615 1,3.83203 V 5.89258 C 1,6.31847 1.33649,7 1.75,7 H 3.53516 L 4.87305,8.95313 H 6.04492 V 1 Z M 5.08008,1.90234 H 5.22656 V 8 H 5.08008 L 3.88867,6.30078 V 3.42383 Z M 2.13867,3.91797 H 3 V 6.15039 H 2.13867 c -0.1375,0 -0.25,-0.11568 -0.25,-0.25781 V 4.17383 c 0,-0.14213 0.1125,-0.25586 0.25,-0.25586 z"
         id="path122" /></g><g
       id="g156"
       inkscape:label="EventStem"
       transform="translate(-240,100)"><path
         style="fill:#f18ec3;fill-opacity:1;stroke-width:0.503999;stroke-dasharray:none"
         d="m 11.980469,10 0.02344,5 h 0.982422 L 13,12 13.990234,15 15,12 14.9941,15 H 16 V 10 H 14.994141 L 14,12 12.986328,10 Z"
         id="path156" /><path
         style="fill:#f18ec3;fill-opacity:1;stroke-width:0.503999;stroke-dasharray:none"
         d="m 8,10 v 5 h 3 V 14 H 9 v -1 h 1 V 12 H 9 v -1 h 2 l -0.04492,-1 z"
         id="path155" /><path
         style="fill:#f18ec3;fill-opacity:1;stroke-width:0.503999;stroke-dasharray:none"
         d="m 4,10 v 1 h 1 v 4 h 1 v -4 h 1 v -1 z"
         id="path154" /><path
         style="fill:#f18ec3;fill-opacity:1;stroke-width:0.503999;stroke-dasharray:none"
         d="m 0,10 v 3 h 2 v 1 L -0.001953,14.03906 0,15 H 3 V 12 L 1,12.0059 V 11 h 2 v -1 z"
         id="path153" /><path
         style="fill:#e0e0e0;fill-opacity:1;stroke-width:0.503999;stroke-dasharray:none"
         d="M 7.585937,3.337891 7.228516,3.699219 c 0.331006,0.345549 0.513671,0.797493 0.513671,1.27539 0,0.477897 -0.182665,0.931793 -0.513671,1.277344 l 0.357421,0.361328 c 0.423507,-0.442363 0.65625,-1.024821 0.65625,-1.638672 0,-0.613851 -0.232743,-1.194354 -0.65625,-1.636718 z"
         id="path152" /><path
         style="fill:#e0e0e0;fill-opacity:1;stroke-width:0.503999;stroke-dasharray:none"
         d="M 9.353516,2.259766 9,2.625 C 9.614007,3.257389 9.951172,4.09767 9.951172,4.992187 9.951172,5.886185 9.614007,6.726981 9,7.359375 l 0.353516,0.363281 c 0.708007,-0.729719 1.097656,-1.698968 1.097656,-2.730469 0,-1.032008 -0.389649,-2.002702 -1.097656,-2.732421 z"
         id="path151" /><path
         style="fill:#e0e0e0;fill-opacity:1;stroke-width:0.503999;stroke-dasharray:none"
         d="M 4.873047,1 3.535156,2.945312 H 1.75 C 1.33649,2.945312 1,3.406146 1,3.832031 V 5.892578 C 1,6.318468 1.33649,7 1.75,7 H 3.535156 L 4.873047,8.953125 H 6.044922 V 1 Z M 5.080078,1.902344 H 5.226562 V 8 H 5.080078 L 3.888672,6.300781 V 3.423828 Z M 2.138672,3.917969 H 3 V 6.150391 H 2.138672 c -0.137505,0 -0.25,-0.115681 -0.25,-0.257813 v -1.71875 c 0,-0.142128 0.112495,-0.255859 0.25,-0.255859 z"
         id="path119" /></g><g
       id="g150"
       inkscape:label="EventSFX"
       transform="translate(-140,80)"><path
         style="fill:#f18ec3;fill-opacity:1;stroke-width:0.503999;stroke-dasharray:none"
         d="M 7,10 H 4 v 3 h 2 v 1 l -2.001002,0.03906 0.001,0.960943 h 3 v -3 l -2,0.0057 L 5,11 h 1.999998 z"
         id="path150" /><path
         style="fill:#f18ec3;fill-opacity:1;stroke-width:0.503999;stroke-dasharray:none"
         d="m 8,10 v 5 h 1 l -4e-6,-2 H 10 l -4.4e-5,-0.999996 H 8.999955 v -1 h 1.999999 L 10.974984,10 Z"
         id="path149" /><path
         style="fill:#f18ec3;fill-opacity:1;stroke-width:0.503999;stroke-dasharray:none"
         d="m 15,10 h -0.951588 l -1.687127,4 -0.451849,1.000003 h 1.097346 l 1.993214,-4.429975 z m -3,0 v 0.677251 L 14.297773,15.000003 14.999996,15 15,14.355024 13,10 Z"
         id="path148" /><path
         style="fill:#e0e0e0;fill-opacity:1;stroke-width:0.503999;stroke-dasharray:none"
         d="m 7.585455,3.337149 c 0.423507,0.442365 0.656508,1.024289 0.656508,1.638141 0,0.613851 -0.233001,1.195776 -0.656508,1.63814 L 7.228948,6.251917 C 7.559955,5.906366 7.741957,5.453187 7.741957,4.97529 c 0,-0.477898 -0.182002,-0.931077 -0.513009,-1.276627 z"
         id="path147" /><path
         style="fill:#e0e0e0;fill-opacity:1;stroke-width:0.503999;stroke-dasharray:none"
         d="m 9.353506,2.260143 c 0.708008,0.72972 1.098015,1.699426 1.098015,2.731435 0,1.031502 -0.390007,2.001203 -1.098015,2.730923 L 9,7.358416 C 9.614008,6.726021 9.95151,5.88558 9.95151,4.991582 9.95151,4.097064 9.614008,3.256623 9,2.624233 Z"
         id="path146" /><path
         style="fill:#e0e0e0;fill-opacity:1;stroke-width:0.503999;stroke-dasharray:none"
         d="M 6.045718,1 V 8.952873 H 4.8727 L 3.534502,7 H 1.750012 C 1.336502,7 1,6.31817 1,5.89228 V 3.832371 C 1,3.406485 1.336502,2.9458 1.750012,2.9458 h 1.78449 L 4.8727,1 Z M 5.226206,1.902947 5.079701,1.902942 3.888008,3.423994 V 6.300656 L 5.079701,8 H 5.226206 Z M 3.000031,3.917212 H 2.137983 c -0.137505,0 -0.250006,0.115358 -0.250006,0.257486 V 5.89228 c 0,0.142132 0.112501,0.25749 0.250006,0.25749 h 0.862048 z"
         id="path1-926" /></g><g
       id="g216"
       inkscape:label="EventConditional"><path
         id="path208"
         style="font-size:14.212px;font-family:Comfortaa;-inkscape-font-specification:Comfortaa;fill:#e0e0e0;stroke:#e0e0e0;stroke-width:1.33238;stroke-miterlimit:3.7;paint-order:stroke fill markers"
         d="m -156.12911,93.333791 c 0.32533,0 0.56193,-0.218542 0.56193,-0.532696 V 87.08841 c 0,-0.314154 -0.2366,-0.532696 -0.56193,-0.532696 -0.34011,0 -0.57671,0.218542 -0.57671,0.532696 v 5.712685 c 0,0.314154 0.2366,0.532696 0.57671,0.532696 z m 5.9366,0 c 0.36969,0 0.5915,-0.204883 0.5915,-0.532696 v -4.807461 h 1.7745 c 0.31054,0 0.51757,-0.191224 0.51757,-0.450743 0,-0.273177 -0.20703,-0.464402 -0.51757,-0.464402 h -1.7745 v -0.314154 c 0,-2.102269 0.62107,-3.142005 1.96674,-3.142005 0.34011,0 0.57671,-0.204883 0.57671,-0.478061 0,-0.273177 -0.2366,-0.47806 -0.57671,-0.47806 -2.02589,0 -3.10538,1.333791 -3.10538,4.152762 v 0.259518 h -1.55653 c -0.31054,0 -0.51756,0.191225 -0.51756,0.464402 0,0.259519 0.20702,0.450743 0.51756,0.450743 h 1.55653 v 4.807461 c 0,0.327813 0.2366,0.532696 0.54714,0.532696 z" /><path
         style="font-size:14.212px;font-family:Comfortaa;-inkscape-font-specification:Comfortaa;fill:#f18ec3;fill-opacity:1;stroke:#f18ec3;stroke-width:1.33238;stroke-miterlimit:3.7;stroke-opacity:1;paint-order:stroke fill markers"
         d="m -156.14391,84.441863 c 0.45842,0 0.81332,-0.327813 0.81332,-0.751238 0,-0.450743 -0.38448,-0.73758 -0.79853,-0.73758 -0.42884,0 -0.81331,0.286837 -0.81331,0.73758 0,0.423425 0.3549,0.751238 0.79852,0.751238 z"
         id="text95" /></g><g
       id="g213"
       inkscape:label="EventMove"><path
         style="opacity:1;fill:#f18ec3;fill-opacity:1;stroke:#e0e0e0;stroke-width:0;stroke-miterlimit:3.7;paint-order:stroke fill markers"
         d="m -189,89 v 2 h 1 v -2 z m -2,2 v 1 h 2 v -1 z m 3,0 v 1 h 2 v -1 z m -1,1 v 2 h 1 v -2 z"
         id="path213" /><path
         id="rect98"
         style="opacity:1;fill:#e0e0e0;stroke:#e0e0e0;stroke-width:0;stroke-miterlimit:3.7;paint-order:stroke fill markers"
         d="m -198,82 h 1 v 1 h -1 z m 6,6 h 0.45934 H -191 v 1 h -1 z m -2,-2 h 1 v 1 h -1 z m -2,-2 h 1 v 1 h -1 z" /></g><g
       id="g139"
       inkscape:label="EventLevelFlag"
       transform="translate(-140,100)"><path
         style="color:#000000;fill:#f18ec3;stroke-linecap:round;stroke-linejoin:round;-inkscape-stroke:none"
         d="M 9.87109,8.69541 C 9.57271,8.71061 9.28102,8.79936 9,9.00009 v 4 2 h 1 v -2 c 1.47735,-1.05984 3,1.42917 5,0 0,0 -0.0228,-2.02182 0,-4 -1.6875,1.6875 -3.51761,-0.3868 -5.12891,-0.30469 z"
         id="path138"
         inkscape:label="Flag" /><path
         id="rect100"
         style="color:#000000;fill:#e0e0e0;stroke-miterlimit:3.7;-inkscape-stroke:none;paint-order:stroke fill markers"
         inkscape:label="Castle"
         d="M 4.3085938,2 C 4.053734,2 3.8457031,2.1795108 3.8457031,2.4003906 v 2 c 0,0.4418396 0.4140087,0.7988282 0.9238281,0.7988282 h 6.4609378 c 0.509809,0 0.923828,-0.3569886 0.923828,-0.7988282 v -2 C 12.154297,2.1795108 11.946266,2 11.691406,2 11.436547,2 11.230469,2.1795108 11.230469,2.4003906 V 3.5996094 H 10.308594 V 2.8007812 C 10.308594,2.3589417 9.8945851,2 9.3847656,2 8.8749561,2 8.4609375,2.3589417 8.4609375,2.8007812 V 3.5996094 H 7.5390625 V 2.8007812 C 7.5390625,2.3589417 7.1250439,2 6.6152344,2 6.1054249,2 5.6914063,2.3589417 5.6914062,2.8007812 V 3.5996094 H 4.7695312 V 2.4003906 C 4.7695312,2.1795108 4.5634535,2 4.3085938,2 Z m 1.3828124,4 c -0.5098094,0 -0.921875,0.3589417 -0.921875,0.8007812 0,0.7999993 -0.9238281,5.5996098 -0.9238281,5.5996098 0,0.441839 -0.4120555,0.798828 -0.921875,0.798828 H 2.4609375 C 2.2060778,13.199219 2,13.37873 2,13.599609 2,13.820489 2.2060778,14 2.4609375,14 h 5.1386719 v -0.800781 h -0.984375 v -2.798828 c 0,-0.5420731 0.4148545,-0.9993083 0.984375,-1.1484379 V 9 A 1.40014,1.40014 0 0 1 8,8.0292969 V 8 H 8.033203 A 1.40014,1.40014 0 0 1 8.1855469,7.8613281 C 8.6805983,7.5077175 9.2721685,7.3238035 9.8007812,7.296875 10.374648,7.2676314 10.869052,7.3571216 11.300781,7.4902344 11.260094,7.1882697 11.230469,6.9303269 11.230469,6.8007812 11.230469,6.3589417 10.818403,6 10.308594,6 Z" /></g><g
       id="g136"
       inkscape:label="EventGlobalFlag"
       transform="translate(-160,100)"><path
         id="path101"
         style="color:#000000;fill:#e0e0e0;stroke-linecap:round;stroke-linejoin:round;-inkscape-stroke:none"
         d="m 7.9882812,1.8535156 c -3.3849066,0 -6.1425781,2.7673265 -6.1425781,6.1582032 0,3.2262652 2.4964575,5.8840812 5.6542969,6.1347652 V 13 11.269531 C 6.9631026,10.388162 6.6472108,9.5528209 6.5449219,8.7617188 h 0.984375 C 7.5905977,8.3675479 7.8063668,7.5667976 8.1289062,7.3320705 L 6.4433594,7.2617188 C 6.4547594,7.1666188 6.406375,7.0501512 6.421875,6.9570312 6.6457148,5.6090026 7.3264119,4.5583886 7.9882812,3.7871094 8.6503906,4.5583886 9.3307577,5.6084726 9.5546875,6.9570312 9.568148,7.0378812 9.5351095,7.1358747 9.5332031,7.2226562 9.6215596,7.2102189 9.7091652,7.2016342 9.7949219,7.1972656 11.216263,7.1248357 12.147765,7.748624 12.814453,8 H 13.875 c 0.02169,-0.020053 0.03831,-0.034403 0.06445,-0.060547 0.04724,-0.046235 0.09748,-0.089298 0.150391,-0.1289062 -0.0013,-0.029177 -0.004,-0.057837 -0.01563,-0.085937 l -0.002,-0.00195 C 13.912596,4.4726695 11.270958,1.8535156 7.9882812,1.8535156 Z M 6.0800781,3.7832031 C 5.5666386,4.6062523 5.1327292,5.5704686 4.9433594,6.7109375 c -0.028,0.1685998 -0.048353,0.3765914 -0.064453,0.5507813 H 3.4960938 C 3.7547935,5.7104903 4.6976895,4.4103925 6.0800781,3.7832031 Z m 3.8164063,0 C 11.278933,4.4103825 12.221759,5.7104503 12.480469,7.2617188 L 11.114561,7.330641 C 11.098361,7.1564611 11.063116,6.8795273 11.035156,6.7109375 10.845776,5.5704286 10.409954,4.6062723 9.8964844,3.7832031 Z M 3.4960938,8.7617188 H 5.09375 C 5.2194099,9.9122376 5.457132,11.079427 6.2382812,12.316406 4.7720127,11.719307 3.7652635,10.373977 3.4960938,8.7617188 Z"
         sodipodi:nodetypes="ssccccccccccccccccccscccccccccccccc"
         inkscape:label="Globe" /><path
         style="color:#000000;fill:#f18ec3;fill-opacity:1;stroke-linecap:round;stroke-linejoin:round;-inkscape-stroke:none"
         d="M 9.87109,8.69541 C 9.57271,8.71061 9.28102,8.79936 9,9.00009 v 4 2 h 1 v -2 c 1.47735,-1.05984 3,1.42917 5,0 0,0 -0.0228,-2.02182 0,-4 -1.6875,1.6875 -3.51761,-0.3868 -5.12891,-0.30469 z"
         id="path135"
         inkscape:label="Flag" /></g><path
       fill-rule="evenodd"
       clip-rule="evenodd"
       d="m -73.495237,62.221779 c 0,-0.295682 -0.239692,-0.535374 -0.535374,-0.535374 -0.295676,0 -0.535373,0.239692 -0.535373,0.535374 v 0.267687 c 0,0.295676 0.239697,0.535374 0.535373,0.535374 0.295682,0 0.535374,-0.239698 0.535374,-0.535374 z m -2.833674,0.692179 c -0.209079,-0.209074 -0.548057,-0.209074 -0.757136,0 -0.209074,0.20908 -0.209074,0.548057 0,0.757136 l 0.535374,0.535374 c 0.209079,0.209074 0.548056,0.209074 0.757136,0 0.209074,-0.209079 0.209074,-0.548057 0,-0.757136 z m 5.353737,0.757136 c 0.209063,-0.209079 0.209063,-0.548056 0,-0.757136 -0.209064,-0.209074 -0.548062,-0.209074 -0.757126,0 l -0.535373,0.535374 c -0.209064,0.209079 -0.209064,0.548057 0,0.757136 0.209063,0.209074 0.548062,0.209074 0.757125,0 z m -6.803047,1.762927 c -0.295679,0 -0.535374,0.239698 -0.535374,0.535374 0,0.295676 0.239695,0.535374 0.535374,0.535374 h 0.267687 c 0.295676,0 0.535374,-0.239698 0.535374,-0.535374 0,-0.295676 -0.239698,-0.535374 -0.535374,-0.535374 z m 7.495232,0 c -0.295687,0 -0.535374,0.239698 -0.535374,0.535374 0,0.295676 0.239687,0.535374 0.535374,0.535374 h 0.267686 c 0.295687,0 0.535374,-0.239698 0.535374,-0.535374 0,-0.295676 -0.239687,-0.535374 -0.535374,-0.535374 z m -5.510543,3.055432 c 0.209074,-0.209064 0.209074,-0.548062 0,-0.757126 -0.209079,-0.209063 -0.548056,-0.209063 -0.757136,0 l -0.535374,0.535374 c -0.209074,0.209063 -0.209074,0.548062 0,0.757125 0.20908,0.209064 0.548057,0.209064 0.757137,0 z m 2.298301,1.227558 c 0,-0.295687 -0.239698,-0.535374 -0.535374,-0.535374 -0.295676,0 -0.535374,0.239687 -0.535374,0.535374 v 0.267687 c 0,0.295687 0.239698,0.535374 0.535374,0.535374 0.295676,0 0.535374,-0.239687 0.535374,-0.535374 z m 0.221757,-5.353748 c -0.418154,-0.418148 -1.096114,-0.418148 -1.514262,0 l -0.84899,0.84899 c -0.418154,0.418154 -0.418154,1.096114 0,1.514267 l 1.227553,1.227559 6.045927,6.045922 c 0.418126,0.418126 1.096124,0.418126 1.51425,0 L -66,73.151005 c 0.418127,-0.41818 0.418127,-1.096124 0,-1.514251 l -6.045922,-6.045933 z m 0,3.212253 0.84899,-0.848996 5.667359,5.66736 -0.848996,0.848995 z"
       fill="#000000"
       id="path1-94"
       sodipodi:nodetypes="sssssssccccccccccccccsssssssssssssscccccccssssssscsscccsccccccccc"
       style="fill:#8da5f3;fill-opacity:0.980392;stroke-width:0.535374"
       inkscape:label="Respawner2D" /><path
       id="path178"
       style="color:#000000;fill:#fc7f7f;fill-opacity:1;stroke:none;stroke-width:2.952;stroke-linecap:round;stroke-linejoin:round;stroke-dasharray:none;stroke-opacity:1;-inkscape-stroke:none"
       d="m -47.809334,47.63803 -3.024341,3.772034 c -0.130248,0.162463 -0.195372,0.243675 -0.195959,0.312163 -5.15e-4,0.05954 0.02573,0.116078 0.07122,0.153358 0.05232,0.04292 0.15516,0.04292 0.360846,0.04292 h 2.406901 l -0.381331,2.723939 3.024299,-3.772033 c 0.130263,-0.162463 0.195394,-0.243676 0.195966,-0.312163 5.33e-4,-0.05954 -0.0257,-0.116079 -0.07119,-0.153358 -0.05232,-0.04292 -0.155164,-0.04292 -0.360854,-0.04292 h -2.40689 z m -4.634025,-6.901702 c -0.871627,0 -1.643732,0.611273 -1.814454,1.488281 l -0.04883,0.253907 c -0.116813,0.600124 -0.765745,0.993659 -1.398437,0.777343 l -0.248047,-0.08398 c -0.824929,-0.281999 -1.747081,0.04653 -2.195313,0.810547 l -0.443359,0.757812 c -0.452463,0.771221 -0.280515,1.747973 0.394531,2.322266 L -58,47.230469 c 0.480499,0.40882 0.480499,1.130243 0,1.539062 l -0.197266,0.167969 c -0.675046,0.574312 -0.846994,1.551039 -0.394531,2.322266 l 0.443359,0.757812 c 0.44822,0.763988 1.370396,1.092553 2.195313,0.810547 l 0.248047,-0.08398 c 0.632685,-0.21629 1.281618,0.177243 1.398437,0.777343 l 0.04883,0.253907 c 0.170728,0.877009 0.94282,1.488281 1.814453,1.488281 h 0.886719 c 0.531799,0 1.02544,-0.228924 1.369141,-0.605469 -0.0044,-0.382686 0.0779,-0.762541 0.130863,-1.140625 -0.300933,0.0106 -0.601859,-0.0057 -0.902347,-0.0098 l -0.0039,0.02149 C -51.013351,53.788501 -51.252693,54 -51.556641,54 h -0.886718 c -0.303887,0 -0.543289,-0.211497 -0.59375,-0.470703 l -0.04883,-0.251955 c -0.269777,-1.385852 -1.70736,-2.177715 -3.015625,-1.730469 l -0.248047,0.08398 c -0.285575,0.09764 -0.590895,-0.02184 -0.730469,-0.259761 l -0.443359,-0.75586 c -0.135331,-0.23067 -0.08928,-0.526685 0.125,-0.708984 l 0.197265,-0.167969 c 1.073906,-0.913646 1.073912,-2.562922 0,-3.476562 l -0.197265,-0.167969 c -0.214283,-0.182337 -0.260331,-0.478332 -0.125,-0.708984 l 0.443359,-0.75586 c 0.13958,-0.237914 0.444887,-0.357407 0.730469,-0.259765 l 0.246094,0.08398 c 1.308291,0.447347 2.747808,-0.344597 3.017578,-1.730469 l 0.04883,-0.251953 c 0.05046,-0.259258 0.289863,-0.470703 0.59375,-0.470703 h 0.886718 c 0.303948,0 0.543289,0.211505 0.59375,0.470703 l 0.04883,0.251953 c 0.269728,1.385935 1.70731,2.177752 3.015625,1.730469 l 0.248047,-0.08398 c 0.285594,-0.09764 0.590908,0.02185 0.730469,0.259766 l 0.44336,0.755859 c 0.189392,0.50449 -0.127308,0.614691 -0.396485,0.947266 0.377589,0.26211 0.624003,0.669723 0.677735,1.121094 0.09218,-0.166088 0.26212,-0.260816 0.392578,-0.390625 0.675033,-0.574294 0.847,-1.551046 0.394531,-2.322266 l -0.443359,-0.757811 c -0.448239,-0.764021 -1.37039,-1.092546 -2.195313,-0.810547 l -0.248047,0.08398 c -0.632722,0.21632 -1.281648,-0.177215 -1.398437,-0.777339 l -0.04883,-0.253907 c -0.170733,-0.877072 -0.94274,-1.488281 -1.814452,-1.488281 z M -52,45.474609 c -1.374513,0 -2.488281,1.130172 -2.488281,2.525391 0,1.330185 1.013358,2.416938 2.298828,2.515625 0.861722,-1.070233 1.720331,-2.143012 2.580078,-3.214844 -0.298632,-1.0549 -1.25503,-1.826172 -2.390625,-1.826172 z m 0,1.261719 c 0.687291,0 1.244141,0.566032 1.244141,1.263672 0,0.697641 -0.55685,1.263672 -1.244141,1.263672 -0.687228,0 -1.244141,-0.566031 -1.244141,-1.263672 0,-0.69764 0.556913,-1.263672 1.244141,-1.263672 z"
       inkscape:label="EnablerReciever3D" /><path
       id="path175"
       style="color:#000000;fill:#8da5f3;fill-opacity:1;stroke-width:33.3333;stroke-linecap:round;stroke-linejoin:round;-inkscape-stroke:none"
       d="m -66.505294,27.972963 c -3.021667,-3.4e-5 -5.468767,2.503666 -5.468767,5.533833 a 0.499,0.499 0 0 0 0.455667,0.521 0.499,0.499 0 0 0 0.521,-0.521 c 0,-2.493 2.012,-4.4922 4.4922,-4.492167 a 0.499,0.499 0 0 0 0.455666,-0.521 0.499,0.499 0 0 0 -0.455666,-0.521 z m 0,2.018333 c -1.921,0 -3.515834,1.59 -3.515634,3.5156 a 0.499,0.499 0 0 0 0.521,0.521 0.499,0.499 0 0 0 0.521,-0.521 c -1.33e-4,-1.387667 1.094334,-2.539 2.474,-2.539 a 0.499,0.499 0 0 0 0.455667,-0.455667 0.499,0.499 0 0 0 -0.455667,-0.521 z m -1.041667,2.474 c -0.581,0.581333 -0.581,1.502333 0,2.083333 0.579,0.581 1.503333,0.58 2.083333,0 0.581667,-0.581 0.581334,-1.502 0,-2.083333 -0.579,-0.581 -1.503333,-0.58 -2.083333,0 z m 0.651,0.651 c 0.2,-0.2 0.517333,-0.2 0.716,0 0.2,0.2 0.2,0.517 0,0.716 -0.2,0.2 -0.517333,0.2 -0.716,0 -0.2,-0.2 -0.2,-0.516667 0,-0.716 z m -5.5474,-12.379967 c -0.871667,0 -1.643667,0.611334 -1.814333,1.488334 l -0.05,0.253333 c -0.116667,0.6 -0.765667,0.993667 -1.398334,0.777333 l -0.246666,-0.08333 c -0.825,-0.283333 -1.747,0.04667 -2.195333,0.810667 l -0.443334,0.757667 c -0.452333,0.771333 -0.28,1.748 0.394667,2.322333 l 0.196667,0.166667 c 0.480333,0.408666 0.480333,1.130333 0,1.539 l -0.196667,0.166666 c -0.675,0.574334 -0.847,1.551 -0.394667,2.322333 l 0.443334,0.757667 c 0.448333,0.764 1.370333,1.092667 2.195333,0.810667 l 0.246666,-0.08333 c 0.632667,-0.216666 1.281667,0.176667 1.398334,0.777334 l 0.05,0.253333 c 0.17,0.877 0.943,1.488333 1.814333,1.488333 h 0.781333 c -0.916333,-0.08667 -1.592,-0.901 -1.549,-1.822333 0.0014,-0.173333 0.01137,-0.341 0.02537,-0.509667 -0.423,-1.166333 -1.721667,-1.793 -2.916,-1.384666 l -0.246666,0.08333 c -0.286667,0.09667 -0.591,-0.02187 -0.730334,-0.26 l -0.443333,-0.756 c -0.136667,-0.23 -0.09,-0.526667 0.126667,-0.709 l 0.196666,-0.166666 c 1.074,-0.913667 1.074,-2.563 0,-3.476567 l -0.196669,-0.166668 c -0.213334,-0.183333 -0.26,-0.478333 -0.126667,-0.709 l 0.443333,-0.756 c 0.14,-0.236667 0.445,-0.357333 0.730334,-0.26 l 0.246666,0.08333 c 1.308333,0.447333 2.748,-0.344667 3.017667,-1.730333 l 0.05,-0.253334 c 0.05,-0.26 0.29,-0.470666 0.593666,-0.470666 h 0.886667 c 0.303333,0 0.543333,0.21 0.593667,0.470666 l 0.05,0.253334 c 0.27,1.386 1.707333,2.177666 3.015666,1.730333 l 0.246667,-0.08333 c 0.286667,-0.09667 0.591,0.02187 0.730333,0.26 l 0.443334,0.756 c 0.136666,0.23 0.09,0.526667 -0.126667,0.709 l -0.196667,0.166667 c -0.18,0.153333 -0.326666,0.33 -0.447333,0.517666 0.573667,-0.13 1.022667,0.0097 1.552667,0.183334 0.583333,-0.583 0.712333,-1.494667 0.286666,-2.222667 l -0.443333,-0.757667 c -0.448333,-0.764 -1.370333,-1.092666 -2.195333,-0.810666 l -0.246667,0.08333 c -0.632667,0.216666 -1.281667,-0.176667 -1.398333,-0.777334 l -0.05,-0.253333 c -0.17,-0.877 -0.942667,-1.488333 -1.814334,-1.488333 z m 0.443333,4.738267 c -1.374666,0 -2.488333,1.130333 -2.488333,2.525333 0,1.221667 0.853333,2.24 1.988333,2.474667 0.223334,-0.447333 0.494334,-0.867333 0.806667,-1.252 -0.740333,0.19 -1.550667,-0.353333 -1.550667,-1.222667 0,-0.697666 0.557,-1.263666 1.244,-1.263666 0.859334,0 1.39,0.827 1.205,1.572333 0.377334,-0.316667 0.789334,-0.595 1.230334,-0.824333 -0.233334,-1.148 -1.235,-2.009667 -2.435667,-2.009667 z"
       inkscape:label="EnablerSignaler2D" /><path
       id="path176"
       style="color:#000000;fill:#fc7f7f;fill-opacity:1;stroke-width:33.3333;stroke-linecap:round;stroke-linejoin:round;-inkscape-stroke:none"
       d="m -46.505294,27.972963 c -3.021667,-3.4e-5 -5.468767,2.503666 -5.468767,5.533833 a 0.499,0.499 0 0 0 0.455667,0.521 0.499,0.499 0 0 0 0.521,-0.521 c 0,-2.493 2.012,-4.4922 4.4922,-4.492167 a 0.499,0.499 0 0 0 0.455666,-0.521 0.499,0.499 0 0 0 -0.455666,-0.521 z m 0,2.018333 c -1.921,0 -3.515834,1.59 -3.515634,3.5156 a 0.499,0.499 0 0 0 0.521,0.521 0.499,0.499 0 0 0 0.521,-0.521 c -1.33e-4,-1.387667 1.094334,-2.539 2.474,-2.539 a 0.499,0.499 0 0 0 0.455667,-0.455667 0.499,0.499 0 0 0 -0.455667,-0.521 z m -1.041667,2.474 c -0.581,0.581333 -0.581,1.502333 0,2.083333 0.579,0.581 1.503333,0.58 2.083333,0 0.581667,-0.581 0.581334,-1.502 0,-2.083333 -0.579,-0.581 -1.503333,-0.58 -2.083333,0 z m 0.651,0.651 c 0.2,-0.2 0.517333,-0.2 0.716,0 0.2,0.2 0.2,0.517 0,0.716 -0.2,0.2 -0.517333,0.2 -0.716,0 -0.2,-0.2 -0.2,-0.516667 0,-0.716 z m -5.5474,-12.379967 c -0.871667,0 -1.643667,0.611334 -1.814333,1.488334 l -0.05,0.253333 c -0.116667,0.6 -0.765667,0.993667 -1.398334,0.777333 l -0.246666,-0.08333 c -0.825,-0.283333 -1.747,0.04667 -2.195333,0.810667 l -0.443334,0.757667 c -0.452333,0.771333 -0.28,1.748 0.394667,2.322333 l 0.196667,0.166667 c 0.480333,0.408666 0.480333,1.130333 0,1.539 l -0.196667,0.166666 c -0.675,0.574334 -0.847,1.551 -0.394667,2.322333 l 0.443334,0.757667 c 0.448333,0.764 1.370333,1.092667 2.195333,0.810667 l 0.246666,-0.08333 c 0.632667,-0.216666 1.281667,0.176667 1.398334,0.777334 l 0.05,0.253333 c 0.17,0.877 0.943,1.488333 1.814333,1.488333 h 0.781333 c -0.916333,-0.08667 -1.592,-0.901 -1.549,-1.822333 0.0014,-0.173333 0.01137,-0.341 0.02537,-0.509667 -0.423,-1.166333 -1.721667,-1.793 -2.916,-1.384666 l -0.246666,0.08333 c -0.286667,0.09667 -0.591,-0.02187 -0.730334,-0.26 l -0.443333,-0.756 c -0.136667,-0.23 -0.09,-0.526667 0.126667,-0.709 l 0.196666,-0.166666 c 1.074,-0.913667 1.074,-2.563 0,-3.476567 l -0.196669,-0.166668 c -0.213334,-0.183333 -0.26,-0.478333 -0.126667,-0.709 l 0.443333,-0.756 c 0.14,-0.236667 0.445,-0.357333 0.730334,-0.26 l 0.246666,0.08333 c 1.308333,0.447333 2.748,-0.344667 3.017667,-1.730333 l 0.05,-0.253334 c 0.05,-0.26 0.29,-0.470666 0.593666,-0.470666 h 0.886667 c 0.303333,0 0.543333,0.21 0.593667,0.470666 l 0.05,0.253334 c 0.27,1.386 1.707333,2.177666 3.015666,1.730333 l 0.246667,-0.08333 c 0.286667,-0.09667 0.591,0.02187 0.730333,0.26 l 0.443334,0.756 c 0.136666,0.23 0.09,0.526667 -0.126667,0.709 l -0.196667,0.166667 c -0.18,0.153333 -0.326666,0.33 -0.447333,0.517666 0.573667,-0.13 1.022667,0.0097 1.552667,0.183334 0.583333,-0.583 0.712333,-1.494667 0.286666,-2.222667 l -0.443333,-0.757667 c -0.448333,-0.764 -1.370333,-1.092666 -2.195333,-0.810666 l -0.246667,0.08333 c -0.632667,0.216666 -1.281667,-0.176667 -1.398333,-0.777334 l -0.05,-0.253333 c -0.17,-0.877 -0.942667,-1.488333 -1.814334,-1.488333 z m 0.443333,4.738267 c -1.374666,0 -2.488333,1.130333 -2.488333,2.525333 0,1.221667 0.853333,2.24 1.988333,2.474667 0.223334,-0.447333 0.494334,-0.867333 0.806667,-1.252 -0.740333,0.19 -1.550667,-0.353333 -1.550667,-1.222667 0,-0.697666 0.557,-1.263666 1.244,-1.263666 0.859334,0 1.39,0.827 1.205,1.572333 0.377334,-0.316667 0.789334,-0.595 1.230334,-0.824333 -0.233334,-1.148 -1.235,-2.009667 -2.435667,-2.009667 z"
       inkscape:label="EnablerSignaler2D" /><path
       id="path179"
       style="color:#000000;fill:#8da5f3;fill-opacity:1;stroke:none;stroke-width:2.952;stroke-linecap:round;stroke-linejoin:round;stroke-dasharray:none;stroke-opacity:1;-inkscape-stroke:none"
       d="m -67.809334,47.63803 -3.024341,3.772034 c -0.130248,0.162463 -0.195372,0.243675 -0.195959,0.312163 -5.15e-4,0.05954 0.02573,0.116078 0.07122,0.153358 0.05232,0.04292 0.15516,0.04292 0.360846,0.04292 h 2.406901 l -0.381331,2.723939 3.024299,-3.772033 c 0.130263,-0.162463 0.195394,-0.243676 0.195966,-0.312163 5.33e-4,-0.05954 -0.0257,-0.116079 -0.07119,-0.153358 -0.05232,-0.04292 -0.155164,-0.04292 -0.360854,-0.04292 h -2.40689 z m -4.634025,-6.901702 c -0.871627,0 -1.643732,0.611273 -1.814454,1.488281 l -0.04883,0.253907 c -0.116813,0.600124 -0.765745,0.993659 -1.398437,0.777343 l -0.248047,-0.08398 c -0.824929,-0.281999 -1.747081,0.04653 -2.195313,0.810547 l -0.443359,0.757812 c -0.452463,0.771221 -0.280515,1.747973 0.394531,2.322266 L -78,47.230469 c 0.480499,0.40882 0.480499,1.130243 0,1.539062 l -0.197266,0.167969 c -0.675046,0.574312 -0.846994,1.551039 -0.394531,2.322266 l 0.443359,0.757812 c 0.44822,0.763988 1.370396,1.092553 2.195313,0.810547 l 0.248047,-0.08398 c 0.632685,-0.21629 1.281618,0.177243 1.398437,0.777343 l 0.04883,0.253907 c 0.170728,0.877009 0.94282,1.488281 1.814453,1.488281 h 0.886719 c 0.531799,0 1.02544,-0.228924 1.369141,-0.605469 -0.0044,-0.382686 0.0779,-0.762541 0.130863,-1.140625 -0.300933,0.0106 -0.601859,-0.0057 -0.902347,-0.0098 l -0.0039,0.02149 C -71.013351,53.788501 -71.252693,54 -71.556641,54 h -0.886718 c -0.303887,0 -0.543289,-0.211497 -0.59375,-0.470703 l -0.04883,-0.251955 c -0.269777,-1.385852 -1.70736,-2.177715 -3.015625,-1.730469 l -0.248047,0.08398 c -0.285575,0.09764 -0.590895,-0.02184 -0.730469,-0.259761 l -0.443359,-0.75586 c -0.135331,-0.23067 -0.08928,-0.526685 0.125,-0.708984 l 0.197265,-0.167969 c 1.073906,-0.913646 1.073912,-2.562922 0,-3.476562 l -0.197265,-0.167969 c -0.214283,-0.182337 -0.260331,-0.478332 -0.125,-0.708984 l 0.443359,-0.75586 c 0.13958,-0.237914 0.444887,-0.357407 0.730469,-0.259765 l 0.246094,0.08398 c 1.308291,0.447347 2.747808,-0.344597 3.017578,-1.730469 l 0.04883,-0.251953 c 0.05046,-0.259258 0.289863,-0.470703 0.59375,-0.470703 h 0.886718 c 0.303948,0 0.543289,0.211505 0.59375,0.470703 l 0.04883,0.251953 c 0.269728,1.385935 1.70731,2.177752 3.015625,1.730469 l 0.248047,-0.08398 c 0.285594,-0.09764 0.590908,0.02185 0.730469,0.259766 l 0.44336,0.755859 c 0.189392,0.50449 -0.127308,0.614691 -0.396485,0.947266 0.377589,0.26211 0.624003,0.669723 0.677735,1.121094 0.09218,-0.166088 0.26212,-0.260816 0.392578,-0.390625 0.675033,-0.574294 0.847,-1.551046 0.394531,-2.322266 l -0.443359,-0.757811 c -0.448239,-0.764021 -1.37039,-1.092546 -2.195313,-0.810547 l -0.248047,0.08398 c -0.632722,0.21632 -1.281648,-0.177215 -1.398437,-0.777339 l -0.04883,-0.253907 c -0.170733,-0.877072 -0.94274,-1.488281 -1.814452,-1.488281 z M -72,45.474609 c -1.374513,0 -2.488281,1.130172 -2.488281,2.525391 0,1.330185 1.013358,2.416938 2.298828,2.515625 0.861722,-1.070233 1.720331,-2.143012 2.580078,-3.214844 -0.298632,-1.0549 -1.25503,-1.826172 -2.390625,-1.826172 z m 0,1.261719 c 0.687291,0 1.244141,0.566032 1.244141,1.263672 0,0.697641 -0.55685,1.263672 -1.244141,1.263672 -0.687228,0 -1.244141,-0.566031 -1.244141,-1.263672 0,-0.69764 0.556913,-1.263672 1.244141,-1.263672 z"
       inkscape:label="EnablerReciever3D" /><path
       fill-rule="evenodd"
       clip-rule="evenodd"
       d="m -53.495237,62.221779 c 0,-0.295682 -0.239692,-0.535374 -0.535374,-0.535374 -0.295676,0 -0.535373,0.239692 -0.535373,0.535374 v 0.267687 c 0,0.295676 0.239697,0.535374 0.535373,0.535374 0.295682,0 0.535374,-0.239698 0.535374,-0.535374 z m -2.833674,0.692179 c -0.209079,-0.209074 -0.548057,-0.209074 -0.757136,0 -0.209074,0.20908 -0.209074,0.548057 0,0.757136 l 0.535374,0.535374 c 0.209079,0.209074 0.548056,0.209074 0.757136,0 0.209074,-0.209079 0.209074,-0.548057 0,-0.757136 z m 5.353737,0.757136 c 0.209063,-0.209079 0.209063,-0.548056 0,-0.757136 -0.209064,-0.209074 -0.548062,-0.209074 -0.757126,0 l -0.535373,0.535374 c -0.209064,0.209079 -0.209064,0.548057 0,0.757136 0.209063,0.209074 0.548062,0.209074 0.757125,0 z m -6.803047,1.762927 c -0.295679,0 -0.535374,0.239698 -0.535374,0.535374 0,0.295676 0.239695,0.535374 0.535374,0.535374 h 0.267687 c 0.295676,0 0.535374,-0.239698 0.535374,-0.535374 0,-0.295676 -0.239698,-0.535374 -0.535374,-0.535374 z m 7.495232,0 c -0.295687,0 -0.535374,0.239698 -0.535374,0.535374 0,0.295676 0.239687,0.535374 0.535374,0.535374 h 0.267686 c 0.295687,0 0.535374,-0.239698 0.535374,-0.535374 0,-0.295676 -0.239687,-0.535374 -0.535374,-0.535374 z m -5.510543,3.055432 c 0.209074,-0.209064 0.209074,-0.548062 0,-0.757126 -0.209079,-0.209063 -0.548056,-0.209063 -0.757136,0 l -0.535374,0.535374 c -0.209074,0.209063 -0.209074,0.548062 0,0.757125 0.20908,0.209064 0.548057,0.209064 0.757137,0 z m 2.298301,1.227558 c 0,-0.295687 -0.239698,-0.535374 -0.535374,-0.535374 -0.295676,0 -0.535374,0.239687 -0.535374,0.535374 v 0.267687 c 0,0.295687 0.239698,0.535374 0.535374,0.535374 0.295676,0 0.535374,-0.239687 0.535374,-0.535374 z m 0.221757,-5.353748 c -0.418154,-0.418148 -1.096114,-0.418148 -1.514262,0 l -0.84899,0.84899 c -0.418154,0.418154 -0.418154,1.096114 0,1.514267 l 1.227553,1.227559 6.045927,6.045922 c 0.418126,0.418126 1.096124,0.418126 1.51425,0 L -46,73.151005 c 0.418127,-0.41818 0.418127,-1.096124 0,-1.514251 l -6.045922,-6.045933 z m 0,3.212253 0.84899,-0.848996 5.667359,5.66736 -0.848996,0.848995 z"
       fill="#000000"
       id="path180"
       sodipodi:nodetypes="sssssssccccccccccccccsssssssssssssscccccccssssssscsscccsccccccccc"
       style="fill:#fc7f7f;fill-opacity:1;stroke-width:0.535374"
       inkscape:label="Respawner2D" /><g
       id="g184"
       inkscape:label="EventBreak"
       transform="translate(-180,100)"><path
         style="fill:#e0e0e0;fill-opacity:1;stroke-width:0.35"
         d="M 14.79,4.885 11.115,1.21 C 10.985759,1.07811 10.809638,1.0026299 10.625,1 H 5.375 C 5.1903615,1.0026299 5.0142413,1.07811 4.885,1.21 L 1.21,4.885 C 1.07811,5.0142413 1.0026299,5.1903615 1,5.375 v 5.25 c 0.00263,0.184638 0.07811,0.360759 0.21,0.49 l 3.675,3.675 c 0.1292413,0.13189 0.3053615,0.20737 0.49,0.21 h 5.25 c 0.184638,-0.0026 0.360759,-0.07811 0.49,-0.21 l 3.675,-3.675 c 0.13189,-0.129241 0.20737,-0.305362 0.21,-0.49 V 5.375 C 14.99737,5.1903615 14.92189,5.0142413 14.79,4.885 Z M 13.6,10.31 10.31,13.6 H 5.69 L 2.4,10.31 V 5.69 L 5.69,2.4 h 4.62 l 3.29,3.29 z"
         id="path2"
         sodipodi:nodetypes="cccccccccccccccccccccccccc" /><path
         d="m 8.9799998,7.9635908 1.9600002,-1.96 c 0.485685,-0.6475805 -0.33242,-1.4656853 -0.9800002,-0.98 l -1.96,1.96 -1.96,-1.96 c -0.6475805,-0.4856853 -1.4656853,0.3324195 -0.98,0.98 l 1.96,1.96 -1.96,1.96 c -0.674662,0.6190142 0.3609858,1.6546632 0.98,0.9800002 l 1.96,-1.9600002 1.96,1.9600002 C 10.579014,11.578253 11.614663,10.542605 10.94,9.9235908 Z"
         style="fill:#f18ec3;fill-opacity:1;stroke-width:0.35"
         id="path1-8" /></g><g
       id="g185"
       inkscape:label="EventWait"
       transform="translate(-200,100)"><path
         style="fill:#e0e0e0;fill-opacity:1;stroke-width:0.35"
         d="M 14.79,4.885 11.115,1.21 C 10.985759,1.07811 10.809638,1.0026299 10.625,1 H 5.375 C 5.1903615,1.0026299 5.0142413,1.07811 4.885,1.21 L 1.21,4.885 C 1.07811,5.0142413 1.0026299,5.1903615 1,5.375 v 5.25 c 0.00263,0.184638 0.07811,0.360759 0.21,0.49 l 3.675,3.675 c 0.1292413,0.13189 0.3053615,0.20737 0.49,0.21 h 5.25 c 0.184638,-0.0026 0.360759,-0.07811 0.49,-0.21 l 3.675,-3.675 c 0.13189,-0.129241 0.20737,-0.305362 0.21,-0.49 V 5.375 C 14.99737,5.1903615 14.92189,5.0142413 14.79,4.885 Z M 13.6,10.31 10.31,13.6 H 5.69 L 2.4,10.31 V 5.69 L 5.69,2.4 h 4.62 l 3.29,3.29 z"
         id="path184"
         sodipodi:nodetypes="cccccccccccccccccccccccccc" /><path
         id="path186"
         style="opacity:1;fill:#f18ec3;fill-opacity:1;stroke:#f18ec3;stroke-width:1.7;stroke-linecap:round;stroke-linejoin:round;stroke-miterlimit:3.7;stroke-dasharray:none;stroke-opacity:1;paint-order:stroke fill markers"
         d="m 10,6 v 4 M 6,6 v 4" /></g><g
       id="g196"
       inkscape:label="Transition"
       transform="translate(-220,-80)"><path
         id="path195"
         style="color:#000000;fill:#e0e0e0;fill-opacity:1;stroke:none;stroke-width:2;stroke-linecap:round;stroke-linejoin:round;stroke-miterlimit:3.7;-inkscape-stroke:none;paint-order:stroke fill markers"
         d="M 3,7 V 9 H 8 V 7 Z M 8,1 v 2.0097656 c 0.2250623,-0.00307 0.4445792,0.069875 0.6230469,0.2070313 l 5.0312501,4 c 0.504231,0.4004003 0.504231,1.1660059 0,1.5664062 L 8.6230469,12.783203 C 8.4453466,12.922456 8.2257583,12.997488 8,12.996094 V 15 h 6 c 0.552262,-5.5e-5 0.999945,-0.447738 1,-1 V 2 C 14.999945,1.4477381 14.552262,1.0000552 14,1 Z" /><path
         id="path196"
         style="opacity:1;fill:#f18ec3;fill-opacity:1;stroke:none;stroke-width:1.7;stroke-linecap:round;stroke-linejoin:round;stroke-miterlimit:3.7;stroke-dasharray:none;stroke-opacity:1;paint-order:stroke fill markers"
         d="M 8,4.0277282 13,8 8,12 Z M 2,1 A 1.0001,1.0001 0 0 0 1,2 v 12 a 1.0001,1.0001 0 0 0 1,1 H 8 V 12.996094 A 1.0001,1.0001 0 0 1 7,12 V 10 H 3 A 1.0001,1.0001 0 0 1 2,9 V 7 A 1.0001,1.0001 0 0 1 3,6 H 7 V 4 A 1.0001,1.0001 0 0 1 7.5664062,3.0996094 1.0001,1.0001 0 0 1 8,3.0097656 V 1 Z" /></g><g
       id="g224"
       inkscape:label="EventWarp"
       transform="translate(-180,80)"><path
         style="color:#000000;fill:#e0e0e0;fill-opacity:1;stroke-linecap:round;stroke-linejoin:round;stroke-miterlimit:3.7;-inkscape-stroke:none;paint-order:stroke fill markers"
         d="m 9.886034,1.9997321 c -2,-0.029029 -2,1.9709709 0,1.9533928 3,0.017578 3,1.7179709 3.051126,4.0468751 -0.05113,2.763372 -0.05113,3.970703 -3.051126,4 -2,-0.0293 -2,1.970703 0,1.976562 5,0.02344 5,0.02344 4.993068,-5.976562 -0.0069,-6 0.0069,-6 -4.993068,-6.0002679 z"
         id="path224" /><path
         style="color:#000000;fill:#f18ec3;fill-opacity:1;stroke-linecap:round;stroke-linejoin:round;stroke-miterlimit:3.7;-inkscape-stroke:none;paint-order:stroke fill markers"
         d="m 6.886034,4.2460937 a 0.75,0.75 0 0 0 -0.529297,0.21875 0.75,0.75 0 0 0 -0.002,1.0605469 L 8.07744,7.25 H 1.870409 a 0.75,0.75 0 0 0 -0.75,0.75 0.75,0.75 0 0 0 0.75,0.75 h 6.216797 l -1.734375,1.751953 a 0.75,0.75 0 0 0 0.0059,1.060547 0.75,0.75 0 0 0 1.060547,-0.0059 l 2.990234,-3.0194906 a 0.75,0.75 0 0 0 0.0293,-0.039063 0.750075,0.750075 0 0 0 0.18945,-0.4589839 A 0.75,0.75 0 0 0 10.643847,8 0.75,0.75 0 0 0 10.3958,7.4492187 L 7.417284,4.4667969 A 0.75,0.75 0 0 0 6.886034,4.2460937 Z"
         id="path223" /></g><path
       id="path221"
       style="color:#000000;fill:#8da5f3;fill-opacity:1;stroke-linecap:round;stroke-linejoin:round;stroke-miterlimit:3.7;-inkscape-stroke:none;paint-order:stroke fill markers"
       d="m -73.113966,4.2460937 a 0.75,0.75 0 0 0 -0.529297,0.21875 0.75,0.75 0 0 0 -0.002,1.0605469 L -71.92256,7.25 h -6.207031 a 0.75,0.75 0 0 0 -0.75,0.75 0.75,0.75 0 0 0 0.75,0.75 h 6.216797 l -1.734375,1.751953 a 0.75,0.75 0 0 0 0.0059,1.060547 0.75,0.75 0 0 0 1.060547,-0.0059 l 2.990234,-3.0194906 a 0.75,0.75 0 0 0 0.0293,-0.039063 0.750075,0.750075 0 0 0 0.18945,-0.4589839 A 0.75,0.75 0 0 0 -69.356153,8 0.75,0.75 0 0 0 -69.6042,7.4492187 l -2.978516,-2.9824218 a 0.75,0.75 0 0 0 -0.53125,-0.2207032 z m 3,-2.2463616 c -2,-0.029029 -2,1.9709709 0,1.9533928 3,0.017578 3,1.7179709 3.051126,4.0468751 -0.05113,2.763372 -0.05113,3.970703 -3.051126,4 -2,-0.0293 -2,1.970703 0,1.976562 5,0.02344 5,0.02344 4.993068,-5.976562 -0.0069,-6 0.0069,-6 -4.993068,-6.0002679 z"
       inkscape:label="WarpPoint2D" /><path
       id="primary-2"
       style="fill:none;stroke:#e0e0e0;stroke-width:1.38744;stroke-linecap:round;stroke-linejoin:round;stroke-opacity:1"
       d="m -172.07563,-71.18753 -3.37557,3.745 c -0.14087,0.21524 -0.6325,0.343 -0.6325,0.343 v 0 c 0,0 -0.85688,-0.471432 -0.73563,-0.959 l 2.06933,-4.641 z m -3.58875,-4.312 0.91438,2.8 4.37937,2.478 2.33063,-1.659 c 0.10853,-0.079 0.19213,-0.188453 0.24062,-0.315 l 1.29938,-3.304 z m 8.47688,5.6 c -1.22508,0 -1.83838,1.507994 -0.97222,2.389899 0.86615,0.881905 2.34722,0.257455 2.34722,-0.989899 0,-0.773198 -0.61561,-1.4 -1.375,-1.4 z m -1.23063,0.777 -6.33187,-3.577 -1.21688,-3.724 a 0.6875,0.7 0 0 0 -0.6875,-0.476 h -1.53312 m 2.52312,1.4 0.91438,2.8 4.37937,2.478 2.33063,-1.659 a 0.6875,0.7 0 0 0 0.24062,-0.315 l 1.29938,-3.304 z"
       inkscape:label="MusicManager" /><path
       id="path222"
       style="color:#000000;fill:#fc7f7f;fill-opacity:1;stroke-linecap:round;stroke-linejoin:round;stroke-miterlimit:3.7;-inkscape-stroke:none;paint-order:stroke fill markers"
       d="m -53.113966,4.2460937 a 0.75,0.75 0 0 0 -0.529297,0.21875 0.75,0.75 0 0 0 -0.002,1.0605469 L -51.92256,7.25 h -6.207031 a 0.75,0.75 0 0 0 -0.75,0.75 0.75,0.75 0 0 0 0.75,0.75 h 6.216797 l -1.734375,1.751953 a 0.75,0.75 0 0 0 0.0059,1.060547 0.75,0.75 0 0 0 1.060547,-0.0059 l 2.990234,-3.0194906 a 0.75,0.75 0 0 0 0.0293,-0.039063 0.750075,0.750075 0 0 0 0.18945,-0.4589839 A 0.75,0.75 0 0 0 -49.356153,8 0.75,0.75 0 0 0 -49.6042,7.4492187 l -2.978516,-2.9824218 a 0.75,0.75 0 0 0 -0.53125,-0.2207032 z m 3,-2.2463616 c -2,-0.029029 -2,1.9709709 0,1.9533928 3,0.017578 3,1.7179709 3.051126,4.0468751 -0.05113,2.763372 -0.05113,3.970703 -3.051126,4 -2,-0.0293 -2,1.970703 0,1.976562 5,0.02344 5,0.02344 4.993068,-5.976562 -0.0069,-6 0.0069,-6 -4.993068,-6.0002679 z"
       inkscape:label="WarpPoint3D" /><g
       id="g230"
       inkscape:label="MusicStem"
       transform="translate(-180,-60)"><path
         id="path225"
         style="color:#000000;fill:#e0e0e0;stroke-linecap:round;stroke-linejoin:round;-inkscape-stroke:none"
         d="M 14.138672,1.0488281 C 11.759447,1.1323112 10.398497,1.9713486 9.5585938,2.8554688 9.5277683,2.8875778 9.499676,2.9222031 9.4746094,2.9589844 8.7999355,3.9579247 8.4693891,5.1261565 8.4628906,6.3164062 8.2733225,6.6170917 8.2867558,6.8018472 8.1445312,7.0585938 7.8428509,6.4313465 7.4587977,5.8444787 6.8085938,5.3964844 5.7338909,4.6560088 4.137463,4.2300875 1.6992188,4.6425781 1.2194778,4.7245982 0.92349209,5.2123751 1.0722656,5.6757812 1.6942289,7.6118593 2.7329764,8.8404631 3.9492188,9.4199219 4.9460121,9.9240649 5.9788827,9.883599 7.140625,9.71875 c -0.063267,1.016101 0.050781,2.091236 0.050781,4.433594 6.455e-4,0.440913 0.3579152,0.798183 0.7988282,0.798828 0.2576914,-0.0056 0.4968981,-0.135021 0.6425781,-0.347656 C 7.4796095,13.722424 8.4541624,12.295551 8.7695313,12 8.6082543,12.01507 7.3384992,10.181241 8.765625,9.3105469 8.8772856,8.7198277 9.1926183,8.1693383 9.7792969,7.2363281 11.195989,7.0942724 12.381402,6.7281589 13.251953,6.0683594 c 0.02315,-0.017658 0.04532,-0.036566 0.06641,-0.056641 C 14.275937,5.1045311 14.878492,3.8090627 14.966797,1.8847656 14.988057,1.417667 14.60595,1.0319545 14.138672,1.0488281 Z m -0.958984,1.7910157 c -0.173596,0.869097 -0.452007,1.5102563 -0.935547,1.9765624 -0.458544,0.3387381 -1.132073,0.565609 -1.933594,0.7226563 0.110816,-0.5601728 0.15135,-1.1388216 0.474609,-1.6308594 0.48565,-0.4998241 1.238452,-0.8640546 2.394532,-1.0683593 z m -9.0039068,3.28125 c 0.1087416,6.1e-5 0.2093976,0.00496 0.2949219,0.019531 C 5.0918936,6.2464922 5.535207,6.4599315 5.9023438,6.7128904 6.3533506,7.0236368 6.6180942,7.5354805 6.8730469,8.160156 5.9658829,8.290391 5.2943804,8.311778 4.6640625,7.9902342 4.6569525,7.9868742 4.6497875,7.9836142 4.6425785,7.9804642 4.0890296,7.7182631 3.5594485,7.0824056 3.0917969,6.1855469 3.4428363,6.1707669 3.8495566,6.1209105 4.1757812,6.1210938 Z"
         sodipodi:nodetypes="cccccscccccccccccccccccccsssccccs" /><path
         style="color:#000000;fill:#f18ec3;-inkscape-stroke:none"
         d="m 12.20312,9 c -0.23493,6.19e-4 -0.44185,0.878079 -0.50976,2.160156 -2.76163,-1.353609 -3.13022,-0.75227 -0.51563,0.841797 -2.61459,1.594068 -2.246,2.195408 0.51563,0.841797 0.15311,2.873964 0.86642,2.873964 1.01953,0 2.76163,1.353611 3.13022,0.752271 0.51563,-0.841797 2.61459,-1.594067 2.246,-2.195406 -0.51563,-0.841797 C 12.64499,9.878079 12.43806,9.000619 12.20312,9 Z"
         id="path229" /></g><path
       d="m -155.7988,-71.31558 h 0.006 m -0.006,2.740666 h 0.006 m 2.52667,-2.740666 h 0.006 m 2.52634,0 h 0.006 m 2.52667,2.740666 h 0.006 m -0.006,-2.740666 h 0.006 m -1.27267,-6.8519 v 1.37 h -5.0657 v 2.740667 m 1.266,5.481466 h 2.533 m -5.57223,2.740667 h 8.61166 c 0.70934,0 1.064,0 1.335,-0.15 0.24,-0.13 0.432,-0.341 0.55367,-0.599 0.13667,-0.296667 0.13667,-0.677334 0.13667,-1.444 v -3.8371 c 0,-0.767667 0,-1.151 -0.13667,-1.444 -0.12333,-0.26 -0.31667,-0.467333 -0.55367,-0.599 -0.27,-0.15 -0.62566,-0.15 -1.335,-0.15 h -8.61166 c -0.70934,0 -1.064,0 -1.335,0.15 -0.24,0.13 -0.432,0.341333 -0.55367,0.599 -0.13667,0.296667 -0.13667,0.677 -0.13667,1.444 v 3.837633 c 0,0.767667 0,1.151 0.13667,1.444 0.12333,0.26 0.31667,0.467333 0.55367,0.599 0.27,0.15 0.62566,0.15 1.335,0.15 z"
       stroke="#000000"
       stroke-width="1.31738"
       stroke-linecap="round"
       stroke-linejoin="round"
       id="path1-1"
       style="fill:none;stroke:#e0e0e0;stroke-opacity:1"
       inkscape:label="InputManager" /><g
       id="g234"
       inkscape:label="InputPrompt"
       transform="translate(-160,-60)"><path
         id="path1-84"
         d="m 4,1.5 c -0.5522841,0 -1,0.4477159 -1,1 v 9 c -6.9e-6,0.550337 0.4438101,0.997248 0.9941406,1 h 4.4628906 c 0.1392135,-0.189632 0.2813556,-0.327737 0.4433594,-0.472656 0.00863,-0.0077 0.026406,-0.01769 0.035156,-0.02539 -0.00875,-0.0077 -0.026526,-0.01769 -0.035156,-0.02539 C 8.7050073,11.801784 8.5383249,11.64235 8.3710938,11.382812 8.2874781,11.253043 8.1949558,11.095725 8.1386719,10.835938 8.0823881,10.576149 8.0919351,10.153672 8.3105469,9.796875 8.5291586,9.4400787 8.8702691,9.2568528 9.1054688,9.1835938 c 0.2351995,-0.073259 0.4059617,-0.076087 0.5546874,-0.072266 0.2974515,0.00764 0.5239738,0.062434 0.7773438,0.1347657 0.05036,0.014376 0.129678,0.057907 0.181641,0.074219 0.0013,-0.00549 6.53e-4,-0.014061 0.002,-0.019531 0.05936,-0.251582 0.119227,-0.4771321 0.259765,-0.7460937 0.07027,-0.1344809 0.158447,-0.2850581 0.345703,-0.4609375 0.187256,-0.1758794 0.538923,-0.3933913 0.972657,-0.3945312 h 0.0039 0.0039 c 0.317273,8.359e-4 0.589886,0.118593 0.78711,0.25 V 2.5 C 12.990314,1.9523953 12.547611,1.5105372 12,1.5078125 H 4 Z m -3,2 v 9 c 0,1.104568 0.8954316,2 2,2 H 8.5546875 C 8.4658262,14.418636 8.3814351,14.322728 8.3105469,14.207031 8.1701308,13.977859 8.1171965,13.722852 8.1113281,13.5 H 3 c -0.5522841,0 -1,-0.447716 -1,-1 v -9 z m 13,0 V 9.2382812 C 14.240777,9.170433 14.461091,9.1186484 14.746094,9.1113281 14.822954,9.1093535 14.905517,9.1107134 15,9.1210938 V 3.5 Z"
         style="fill:#e0e0e0;fill-opacity:1" /><path
         style="color:#000000;fill:#f18ec3;-inkscape-stroke:none"
         d="m 12.20312,9 c -0.23493,6.19e-4 -0.44185,0.878079 -0.50976,2.160156 -2.76163,-1.353609 -3.13022,-0.75227 -0.51563,0.841797 -2.61459,1.594068 -2.246,2.195408 0.51563,0.841797 0.15311,2.873964 0.86642,2.873964 1.01953,0 2.76163,1.353611 3.13022,0.752271 0.51563,-0.841797 2.61459,-1.594067 2.246,-2.195406 -0.51563,-0.841797 C 12.64499,9.878079 12.43806,9.000619 12.20312,9 Z"
         id="path233" /></g></g></svg>
