<?xml version="1.0" encoding="UTF-8" standalone="no"?>
<!-- Created with Inkscape (http://www.inkscape.org/) -->

<svg
   width="16"
   height="16"
   viewBox="0 0 16 16"
   version="1.1"
   id="svg1"
   xml:space="preserve"
   xmlns="http://www.w3.org/2000/svg"
   xmlns:svg="http://www.w3.org/2000/svg"><defs
     id="defs1" /><g
     id="layer1"><path
       id="path175"
       style="color:#000000;fill:#8da5f3;fill-opacity:1;stroke-width:33.3333;stroke-linecap:round;stroke-linejoin:round;-inkscape-stroke:none"
       d="M 13.494706,7.9729626 C 10.473039,7.9729293 8.025939,10.476629 8.025939,13.506796 a 0.499,0.499 0 0 0 0.455667,0.521 0.499,0.499 0 0 0 0.521,-0.521 c 0,-2.493 2.012,-4.4922 4.4922,-4.4921667 a 0.499,0.499 0 0 0 0.455666,-0.521 0.499,0.499 0 0 0 -0.455666,-0.521 z m 0,2.0183334 c -1.921,0 -3.515834,1.59 -3.515634,3.5156 a 0.499,0.499 0 0 0 0.521,0.521 0.499,0.499 0 0 0 0.521,-0.521 c -1.33e-4,-1.387667 1.094334,-2.539 2.474,-2.539 a 0.499,0.499 0 0 0 0.455667,-0.455667 0.499,0.499 0 0 0 -0.455667,-0.5209997 z m -1.041667,2.474 c -0.581,0.581333 -0.581,1.502333 0,2.083333 0.579,0.581 1.503333,0.58 2.083333,0 0.581667,-0.581 0.581334,-1.502 0,-2.083333 -0.579,-0.581 -1.503333,-0.58 -2.083333,0 z m 0.651,0.651 c 0.2,-0.2 0.517333,-0.2 0.716,0 0.2,0.2 0.2,0.517 0,0.716 -0.2,0.2 -0.517333,0.2 -0.716,0 -0.2,-0.2 -0.2,-0.516667 0,-0.716 z M 7.556639,0.73632938 c -0.871667,0 -1.643667,0.61133332 -1.814333,1.48833332 l -0.05,0.2533333 c -0.116667,0.6 -0.765667,0.9936667 -1.398334,0.7773334 L 4.047306,3.1719964 c -0.825,-0.2833333 -1.747,0.046667 -2.195333,0.8106667 L 1.408639,4.7403297 c -0.452333,0.7713334 -0.28,1.748 0.394667,2.3223334 l 0.196667,0.1666666 c 0.480333,0.4086667 0.480333,1.1303333 0,1.539 L 1.803306,8.9349964 c -0.675,0.5743333 -0.847,1.5509996 -0.394667,2.3223326 l 0.443334,0.757667 c 0.448333,0.764 1.370333,1.092667 2.195333,0.810667 l 0.246666,-0.08333 C 4.926639,12.525667 5.575639,12.919 5.692306,13.519667 l 0.05,0.253333 c 0.17,0.877 0.943,1.488333 1.814333,1.488333 h 0.781333 c -0.916333,-0.08667 -1.592,-0.901 -1.549,-1.822333 0.0014,-0.173333 0.01137,-0.341 0.02537,-0.509667 -0.423,-1.166333 -1.721667,-1.793 -2.916,-1.384666 l -0.246666,0.08333 c -0.286667,0.09667 -0.591,-0.02187 -0.730334,-0.26 l -0.443333,-0.756 c -0.136667,-0.23 -0.09,-0.526667 0.126667,-0.7089996 L 2.801342,9.7363307 c 1.074,-0.9136667 1.074,-2.563 0,-3.4765666 L 2.604673,6.093096 c -0.213334,-0.1833333 -0.26,-0.4783333 -0.126667,-0.709 l 0.443333,-0.756 c 0.14,-0.2366667 0.445,-0.3573333 0.730334,-0.26 l 0.246666,0.083333 c 1.308333,0.4473334 2.748,-0.3446666 3.017667,-1.7303333 l 0.05,-0.2533333 c 0.05,-0.26 0.29,-0.4706667 0.593666,-0.4706667 h 0.886667 c 0.303333,0 0.543333,0.21 0.593667,0.4706667 l 0.05,0.2533333 c 0.27,1.386 1.707333,2.1776667 3.015666,1.7303333 l 0.246667,-0.083333 c 0.286667,-0.096667 0.591,0.021867 0.730333,0.26 l 0.443334,0.756 c 0.136666,0.23 0.09,0.5266667 -0.126667,0.709 l -0.196667,0.1666667 c -0.18,0.1533333 -0.326666,0.33 -0.447333,0.5176666 0.573667,-0.13 1.022667,0.00973 1.552667,0.1833334 0.583333,-0.583 0.712333,-1.4946667 0.286666,-2.2226667 L 14.151339,3.9804293 C 13.703006,3.2164294 12.781006,2.8877627 11.956006,3.1697627 l -0.246667,0.083333 C 11.076672,3.4697624 10.427672,3.0764291 10.311006,2.4757624 l -0.05,-0.2533333 c -0.17,-0.877 -0.942667,-1.48833335 -1.814334,-1.48833335 z M 7.999972,5.474596 c -1.374666,0 -2.488333,1.1303333 -2.488333,2.5253333 0,1.2216667 0.853333,2.2399997 1.988333,2.4746667 0.223334,-0.447333 0.494334,-0.8673334 0.806667,-1.252 -0.740333,0.19 -1.550667,-0.3533334 -1.550667,-1.2226667 0,-0.6976667 0.557,-1.2636666 1.244,-1.2636666 0.859334,0 1.39,0.8269999 1.205,1.5723333 0.377334,-0.3166667 0.789334,-0.595 1.230334,-0.8243334 C 10.201972,6.3362627 9.200306,5.474596 7.999639,5.474596 Z" /></g></svg>
