<?xml version="1.0" encoding="UTF-8" standalone="no"?>
<!-- Created with Inkscape (http://www.inkscape.org/) -->

<svg
   width="16"
   height="16"
   viewBox="0 0 16 16"
   version="1.1"
   id="svg1"
   xml:space="preserve"
   xmlns="http://www.w3.org/2000/svg"
   xmlns:svg="http://www.w3.org/2000/svg"><defs
     id="defs1" /><g
     id="layer1"><path
       id="path179"
       style="color:#000000;fill:#8da5f3;fill-opacity:1;stroke:none;stroke-width:2.952;stroke-linecap:round;stroke-linejoin:round;stroke-dasharray:none;stroke-opacity:1;-inkscape-stroke:none"
       d="m 12.190666,7.63803 -3.024341,3.772034 c -0.130248,0.162463 -0.195372,0.243675 -0.195959,0.312163 -5.15e-4,0.05954 0.02573,0.116078 0.07122,0.153358 0.05232,0.04292 0.15516,0.04292 0.360846,0.04292 h 2.406901 l -0.381331,2.723939 3.024299,-3.772033 c 0.130263,-0.162463 0.195394,-0.243676 0.195966,-0.312163 5.33e-4,-0.05954 -0.0257,-0.116079 -0.07119,-0.153358 -0.05232,-0.04292 -0.155164,-0.04292 -0.360854,-0.04292 h -2.40689 z M 7.556641,0.736328 c -0.871627,0 -1.643732,0.611273 -1.814454,1.488281 L 5.693357,2.478516 C 5.576544,3.07864 4.927612,3.472175 4.29492,3.255859 L 4.046873,3.171879 C 3.221944,2.88988 2.299792,3.218409 1.85156,3.982426 L 1.408201,4.740238 C 0.955738,5.511459 1.127686,6.488211 1.802732,7.062504 L 2,7.230469 c 0.480499,0.40882 0.480499,1.130243 0,1.539062 L 1.802734,8.9375 C 1.127688,9.511812 0.95574,10.488539 1.408203,11.259766 l 0.443359,0.757812 c 0.44822,0.763988 1.370396,1.092553 2.195313,0.810547 l 0.248047,-0.08398 c 0.632685,-0.21629 1.281618,0.177243 1.398437,0.777343 l 0.04883,0.253907 c 0.170728,0.877009 0.94282,1.488281 1.814453,1.488281 h 0.886719 c 0.531799,0 1.02544,-0.228924 1.369141,-0.605469 -0.0044,-0.382686 0.0779,-0.762541 0.130863,-1.140625 -0.300933,0.0106 -0.601859,-0.0057 -0.902347,-0.0098 l -0.0039,0.02149 C 8.986649,13.788501 8.747307,14 8.443359,14 H 7.556641 C 7.252754,14 7.013352,13.788503 6.962891,13.529297 L 6.914061,13.277342 C 6.644284,11.89149 5.206701,11.099627 3.898436,11.546873 l -0.248047,0.08398 C 3.364814,11.728493 3.059494,11.609013 2.91992,11.371092 l -0.443359,-0.75586 c -0.135331,-0.23067 -0.08928,-0.526685 0.125,-0.708984 L 2.798826,9.738279 c 1.073906,-0.913646 1.073912,-2.562922 0,-3.476562 L 2.601561,6.093748 C 2.387278,5.911411 2.34123,5.615416 2.476561,5.384764 L 2.91992,4.628904 C 3.0595,4.39099 3.364807,4.271497 3.650389,4.369139 l 0.246094,0.08398 C 5.204774,4.900466 6.644291,4.108522 6.914061,2.72265 L 6.962891,2.470697 C 7.013351,2.211439 7.252754,1.999994 7.556641,1.999994 h 0.886718 c 0.303948,0 0.543289,0.211505 0.59375,0.470703 l 0.04883,0.251953 c 0.269728,1.385935 1.70731,2.177752 3.015625,1.730469 l 0.248047,-0.08398 c 0.285594,-0.09764 0.590908,0.02185 0.730469,0.259766 l 0.44336,0.755859 c 0.189392,0.50449 -0.127308,0.614691 -0.396485,0.947266 0.377589,0.26211 0.624003,0.669723 0.677735,1.121094 0.09218,-0.166088 0.26212,-0.260816 0.392578,-0.390625 0.675033,-0.574294 0.847,-1.551046 0.394531,-2.322266 L 14.14844,3.982422 C 13.700201,3.218401 12.77805,2.889876 11.953127,3.171875 L 11.70508,3.255855 C 11.072358,3.472175 10.423432,3.07864 10.306643,2.478516 L 10.257813,2.224609 C 10.08708,1.347537 9.315073,0.736328 8.443361,0.736328 Z M 8,5.474609 C 6.625487,5.474609 5.511719,6.604781 5.511719,8 c 0,1.330185 1.013358,2.416938 2.298828,2.515625 C 8.672269,9.445392 9.530878,8.372613 10.390625,7.300781 10.091993,6.245881 9.135595,5.474609 8,5.474609 Z M 8,6.736328 C 8.687291,6.736328 9.244141,7.30236 9.244141,8 9.244141,8.697641 8.687291,9.263672 8,9.263672 7.312772,9.263672 6.755859,8.697641 6.755859,8 6.755859,7.30236 7.312772,6.736328 8,6.736328 Z" /></g></svg>
