<?xml version="1.0" encoding="UTF-8" standalone="no"?>
<!-- Created with Inkscape (http://www.inkscape.org/) -->

<svg
   width="16"
   height="16"
   viewBox="0 0 16 16"
   version="1.1"
   id="svg1"
   xml:space="preserve"
   xmlns="http://www.w3.org/2000/svg"
   xmlns:svg="http://www.w3.org/2000/svg"><defs
     id="defs1" /><g
     id="layer1"><path
       fill-rule="evenodd"
       clip-rule="evenodd"
       d="m 8.9999905,1.0000005 c 0,-0.55228997 -0.44771,-0.99999997272196 -1,-0.99999997272196 -0.55228,0 -1,0.44771000272196 -1,0.99999997272196 v 0.5 c 0,0.55228 0.44772,1 1,1 0.55229,0 1,-0.44772 1,-1 z m -5.29289,1.29289 c -0.39053,-0.39052 -1.02369,-0.39052 -1.41422,0 -0.39052,0.39053 -0.39052,1.02369 0,1.41422 l 1,1 c 0.39053,0.39052 1.02369,0.39052 1.41422,0 0.39052,-0.39053 0.39052,-1.02369 0,-1.41422 z m 9.9999995,1.41422 c 0.3905,-0.39053 0.3905,-1.02369 0,-1.41422 -0.3905,-0.39052 -1.0237,-0.39052 -1.4142,0 l -1,1 c -0.3905,0.39053 -0.3905,1.02369 0,1.41422 0.3905,0.39052 1.0237,0.39052 1.4142,0 z m -12.7070995,3.29289 c -0.55228503,0 -1.00000002727805,0.44772 -1.00000002727805,1 0,0.55228 0.44771499727805,1 1.00000002727805,1 h 0.5 c 0.55228,0 1,-0.44772 1,-1 0,-0.55228 -0.44772,-1 -1,-1 z m 13.9999995,0 c -0.5523,0 -1,0.44772 -1,1 0,0.55228 0.4477,1 1,1 h 0.5 c 0.5523,0 1,-0.44772 1,-1 0,-0.55228 -0.4477,-1 -1,-1 z M 4.7071105,12.707101 c 0.39052,-0.3905 0.39052,-1.0237 0,-1.4142 -0.39053,-0.3905 -1.02369,-0.3905 -1.41422,0 l -1,1 c -0.39052,0.3905 -0.39052,1.0237 0,1.4142 0.39053,0.3905 1.02369,0.3905 1.41422,0 z m 4.29289,2.2929 c 0,-0.5523 -0.44772,-1 -1,-1 -0.55228,0 -1,0.4477 -1,1 v 0.5 c 0,0.5523 0.44772,1 1,1 0.55228,0 1,-0.4477 1,-1 z m 0.41421,-10.0000205 c -0.78105,-0.78104 -2.04738,-0.78104 -2.82842,0 l -1.58579,1.58579 c -0.78105,0.78105 -0.78105,2.04738 0,2.82843 l 2.29289,2.2929005 11.2929095,11.2929 c 0.781,0.781 2.0474,0.781 2.8284,0 L 23,21.414201 c 0.781,-0.7811 0.781,-2.0474 0,-2.8284 L 11.7071,7.2928805 Z m 0,6.0000205 L 11,9.4142005 21.5858,20.000001 20,21.585801 Z"
       fill="#000000"
       id="path1-94"
       style="fill:#8da5f3;fill-opacity:0.980392"
       transform="matrix(0.5353737,0,0,0.5353737,1.686405,1.686405)" /></g></svg>
