<?xml version="1.0" encoding="UTF-8" standalone="no"?>
<!-- Created with Inkscape (http://www.inkscape.org/) -->

<svg
   width="16"
   height="16"
   viewBox="0 0 16 16"
   version="1.1"
   id="svg1"
   xml:space="preserve"
   xmlns="http://www.w3.org/2000/svg"
   xmlns:svg="http://www.w3.org/2000/svg"><defs
     id="defs1" /><g
     id="layer1"><path
       id="path221"
       style="color:#000000;fill:#8da5f3;fill-opacity:1;stroke-linecap:round;stroke-linejoin:round;stroke-miterlimit:3.7;-inkscape-stroke:none;paint-order:stroke fill markers"
       d="M 6,4.2460937 A 0.75,0.75 0 0 0 5.4707031,4.4648437 0.75,0.75 0 0 0 5.46875,5.5253906 L 7.1914063,7.25 H 0.984375 a 0.75,0.75 0 0 0 -0.75,0.75 0.75,0.75 0 0 0 0.75,0.75 h 6.2167969 l -1.734375,1.751953 a 0.75,0.75 0 0 0 0.00586,1.060547 0.75,0.75 0 0 0 1.0605469,-0.0059 L 9.523438,8.5371094 A 0.75,0.75 0 0 0 9.552738,8.4980464 0.750075,0.750075 0 0 0 9.742188,8.0390625 0.75,0.75 0 0 0 9.757813,8 0.75,0.75 0 0 0 9.509766,7.4492187 L 6.53125,4.4667969 A 0.75,0.75 0 0 0 6,4.2460937 Z M 9,1.9997321 C 7,1.9707031 7,3.970703 9,3.9531249 12,3.9707029 12,5.6710958 12.051126,8 11.999996,10.763372 11.999996,11.970703 9,12 7,11.9707 7,13.970703 9,13.976562 14,14 14,14 13.993068,8 13.986168,2 13.999968,2 9,1.9997321 Z"
       transform="translate(0.88603412)" /></g></svg>
